<svg xmlns="http://www.w3.org/2000/svg" xmlns:xlink="http://www.w3.org/1999/xlink" viewBox="0 0 2192.91 1450.36"><defs><style>.cls-1{fill:none;}.cls-2{fill:url(#linear-gradient);}.cls-3{fill:#bdd0fb;}.cls-4{fill:url(#linear-gradient-2);}.cls-5{fill:#91b3fa;}.cls-6{fill:url(#linear-gradient-3);}.cls-7{fill:url(#linear-gradient-4);}.cls-10,.cls-32,.cls-48,.cls-60,.cls-8{fill:#fff;}.cls-8{opacity:0.78;}.cls-9{fill:url(#linear-gradient-5);}.cls-10{opacity:0.72;}.cls-11{fill:url(#linear-gradient-6);}.cls-12{fill:url(#linear-gradient-7);}.cls-13{fill:url(#linear-gradient-8);}.cls-14{fill:url(#linear-gradient-9);}.cls-15{fill:url(#linear-gradient-10);}.cls-16{fill:url(#linear-gradient-11);}.cls-17{fill:url(#linear-gradient-12);}.cls-18{fill:url(#linear-gradient-13);}.cls-19{fill:url(#linear-gradient-14);}.cls-20{fill:url(#linear-gradient-15);}.cls-21{fill:url(#linear-gradient-16);}.cls-22{fill:url(#linear-gradient-17);}.cls-23{fill:url(#linear-gradient-18);}.cls-24{fill:url(#linear-gradient-19);}.cls-25{fill:url(#linear-gradient-20);}.cls-26{fill:url(#linear-gradient-21);}.cls-27{fill:url(#linear-gradient-22);}.cls-28{opacity:0.5;}.cls-29{fill:url(#linear-gradient-23);}.cls-30{fill:url(#linear-gradient-24);}.cls-31{fill:#7d97f4;}.cls-33{fill:url(#linear-gradient-25);}.cls-34{fill:url(#linear-gradient-26);}.cls-35{fill:url(#linear-gradient-27);}.cls-36{fill:url(#linear-gradient-28);}.cls-37{fill:url(#linear-gradient-29);}.cls-38{fill:url(#linear-gradient-30);}.cls-39{fill:url(#linear-gradient-31);}.cls-40{fill:url(#linear-gradient-32);}.cls-41{fill:url(#linear-gradient-33);}.cls-42{fill:url(#linear-gradient-34);}.cls-43{fill:url(#linear-gradient-35);}.cls-44{fill:url(#linear-gradient-36);}.cls-45{clip-path:url(#clip-path);}.cls-46{fill:url(#linear-gradient-37);}.cls-47{fill:url(#linear-gradient-38);}.cls-48{opacity:0.66;}.cls-49{fill:url(#linear-gradient-39);}.cls-50{fill:url(#linear-gradient-40);}.cls-51{fill:url(#linear-gradient-41);}.cls-52{fill:url(#linear-gradient-42);}.cls-53{fill:url(#linear-gradient-43);}.cls-54{fill:url(#linear-gradient-44);}.cls-55{fill:url(#linear-gradient-45);}.cls-56{fill:url(#linear-gradient-46);}.cls-57{fill:url(#linear-gradient-47);}.cls-58{fill:url(#linear-gradient-48);}.cls-59{fill:url(#linear-gradient-49);}.cls-60{opacity:0.7;}.cls-61{fill:url(#linear-gradient-50);}.cls-62{fill:url(#linear-gradient-51);}.cls-63{fill:url(#linear-gradient-52);}.cls-64{fill:url(#linear-gradient-53);}.cls-65{fill:url(#linear-gradient-54);}.cls-66{fill:url(#linear-gradient-55);}.cls-67{fill:url(#linear-gradient-56);}.cls-68{fill:url(#linear-gradient-57);}.cls-69{fill:url(#linear-gradient-58);}.cls-70{fill:url(#linear-gradient-59);}.cls-71{fill:url(#linear-gradient-60);}.cls-72{fill:url(#linear-gradient-61);}.cls-73{fill:url(#linear-gradient-62);}.cls-74{fill:url(#linear-gradient-63);}.cls-75{fill:url(#linear-gradient-64);}.cls-76{fill:url(#linear-gradient-65);}.cls-77{fill:url(#linear-gradient-66);}.cls-78{fill:url(#linear-gradient-67);}.cls-79{fill:url(#linear-gradient-68);}.cls-80{fill:url(#linear-gradient-69);}.cls-81{fill:url(#linear-gradient-70);}.cls-82{fill:url(#linear-gradient-71);}.cls-83{fill:url(#linear-gradient-72);}.cls-84{fill:url(#linear-gradient-73);}.cls-85{fill:url(#linear-gradient-74);}.cls-86{fill:url(#linear-gradient-75);}.cls-87{fill:url(#linear-gradient-76);}.cls-88{fill:url(#linear-gradient-77);}.cls-89{fill:url(#linear-gradient-78);}.cls-90{fill:url(#linear-gradient-79);}.cls-91{fill:url(#linear-gradient-80);}.cls-92{fill:url(#linear-gradient-81);}.cls-93{fill:url(#linear-gradient-82);}.cls-94{fill:url(#linear-gradient-83);}.cls-95{fill:url(#linear-gradient-84);}.cls-96{fill:url(#linear-gradient-85);}.cls-97{fill:url(#linear-gradient-86);}.cls-98{fill:url(#linear-gradient-87);}.cls-99{fill:url(#linear-gradient-88);}.cls-100{fill:url(#linear-gradient-89);}.cls-101{fill:url(#linear-gradient-90);}.cls-102{fill:url(#linear-gradient-91);}.cls-103{fill:url(#linear-gradient-92);}.cls-104{fill:url(#linear-gradient-93);}.cls-105{fill:url(#linear-gradient-94);}.cls-106{fill:url(#linear-gradient-95);}.cls-107{fill:url(#linear-gradient-96);}.cls-108{fill:url(#linear-gradient-97);}.cls-109{fill:url(#linear-gradient-98);}.cls-110{fill:url(#linear-gradient-99);}.cls-111{fill:url(#linear-gradient-100);}.cls-112{fill:url(#linear-gradient-101);}.cls-113{fill:url(#linear-gradient-102);}.cls-114{fill:url(#linear-gradient-103);}.cls-115{fill:url(#linear-gradient-104);}.cls-116{fill:url(#linear-gradient-105);}.cls-117{fill:url(#linear-gradient-106);}.cls-118{fill:url(#linear-gradient-107);}.cls-119{fill:url(#linear-gradient-108);}.cls-120{fill:#f4635b;}</style><linearGradient id="linear-gradient" x1="216.31" y1="691.45" x2="2192.91" y2="691.45" gradientUnits="userSpaceOnUse"><stop offset="0" stop-color="#dae3fe"/><stop offset="1" stop-color="#e9effd"/></linearGradient><linearGradient id="linear-gradient-2" x1="50.5" y1="970.48" x2="464.39" y2="970.48" xlink:href="#linear-gradient"/><linearGradient id="linear-gradient-3" x1="-427.61" y1="136.92" x2="-949.84" y2="732.18" gradientTransform="matrix(-1, 0, 0, 1, 530.79, 0)" gradientUnits="userSpaceOnUse"><stop offset="0" stop-color="#09005d"/><stop offset="1" stop-color="#1a0f91"/></linearGradient><linearGradient id="linear-gradient-4" x1="-448.41" y1="152.51" x2="-810.27" y2="589.47" gradientTransform="matrix(-1, 0, 0, 1, 530.79, 0)" gradientUnits="userSpaceOnUse"><stop offset="0" stop-color="#4042e2"/><stop offset="1" stop-color="#4f52ff"/></linearGradient><linearGradient id="linear-gradient-5" x1="3170.74" y1="1934.47" x2="2887.25" y2="2261.45" gradientTransform="matrix(-0.03, -1, -1, 0.03, 2999.59, 3664.85)" gradientUnits="userSpaceOnUse"><stop offset="0" stop-color="#fe7062"/><stop offset="1" stop-color="#ff928e"/></linearGradient><linearGradient id="linear-gradient-6" x1="3310.79" y1="2055.88" x2="3027.3" y2="2382.87" xlink:href="#linear-gradient-5"/><linearGradient id="linear-gradient-7" x1="-1365.36" y1="1213.2" x2="-1648.85" y2="1540.18" gradientTransform="matrix(-1, 0, 0, 1, 530.79, 0)" xlink:href="#linear-gradient-5"/><linearGradient id="linear-gradient-8" x1="1403.82" y1="730.3" x2="1899.82" y2="-429.71" gradientTransform="matrix(1, 0, 0, 1, 0, 0)" xlink:href="#linear-gradient-5"/><linearGradient id="linear-gradient-9" x1="1475.05" y1="555.19" x2="1353.06" y2="1082.37" gradientTransform="translate(-123.21)" gradientUnits="userSpaceOnUse"><stop offset="0" stop-color="#ff928e"/><stop offset="1" stop-color="#feb3b1"/></linearGradient><linearGradient id="linear-gradient-10" x1="-356.16" y1="715.44" x2="-426.16" y2="1021.44" gradientTransform="translate(1558.96 1685.96) rotate(-21.06)" xlink:href="#linear-gradient-9"/><linearGradient id="linear-gradient-11" x1="-876.4" y1="38.14" x2="-946.4" y2="344.14" gradientTransform="matrix(-0.93, -0.36, -0.36, 0.93, 362.32, 1685.96)" xlink:href="#linear-gradient-9"/><linearGradient id="linear-gradient-12" x1="1291.54" y1="885.71" x2="1290.04" y2="540.6" gradientTransform="matrix(1, 0, 0, 1, 0, 0)" xlink:href="#linear-gradient-9"/><linearGradient id="linear-gradient-13" x1="1239.82" y1="437.15" x2="1391.37" y2="857.28" gradientTransform="matrix(1, 0, 0, 1, 0, 0)" xlink:href="#linear-gradient-3"/><linearGradient id="linear-gradient-14" x1="1260.84" y1="429.57" x2="1412.39" y2="849.7" gradientTransform="matrix(1, 0, 0, 1, 0, 0)" xlink:href="#linear-gradient-3"/><linearGradient id="linear-gradient-15" x1="1285.25" y1="353.54" x2="1159.25" y2="607.55" gradientTransform="matrix(1, 0, 0, 1, 0, 0)" xlink:href="#linear-gradient-9"/><linearGradient id="linear-gradient-16" x1="1247.43" y1="334.78" x2="1121.43" y2="588.78" gradientTransform="matrix(1, 0, 0, 1, 0, 0)" xlink:href="#linear-gradient-9"/><linearGradient id="linear-gradient-17" x1="1126.3" y1="611.63" x2="1622.3" y2="-548.37" gradientTransform="matrix(1, 0, 0, 1, 0, 0)" xlink:href="#linear-gradient-5"/><linearGradient id="linear-gradient-18" x1="1584.6" y1="273.5" x2="1462.6" y2="423.5" gradientTransform="matrix(1, 0, 0, 1, 0, 0)" xlink:href="#linear-gradient-9"/><linearGradient id="linear-gradient-19" x1="1689.88" y1="359.14" x2="1567.88" y2="509.14" gradientTransform="matrix(1, 0, 0, 1, 0, 0)" xlink:href="#linear-gradient-9"/><linearGradient id="linear-gradient-20" x1="1599.36" y1="813.91" x2="2095.36" y2="-346.09" gradientTransform="matrix(1, 0, 0, 1, 0, 0)" xlink:href="#linear-gradient-5"/><linearGradient id="linear-gradient-21" x1="333.04" y1="1141.31" x2="2770" y2="1681.84" gradientTransform="matrix(1, 0, 0, 1, 0, 0)" xlink:href="#linear-gradient-4"/><linearGradient id="linear-gradient-22" x1="2005.32" y1="949.74" x2="1945.32" y2="1066.74" gradientTransform="matrix(1, 0, 0, 1, 0, 0)" xlink:href="#linear-gradient-4"/><linearGradient id="linear-gradient-23" x1="1849.34" y1="1351.1" x2="2047.13" y2="1244.14" gradientUnits="userSpaceOnUse"><stop offset="0" stop-color="#53d8ff"/><stop offset="1" stop-color="#3840f7"/></linearGradient><linearGradient id="linear-gradient-24" x1="1879.84" y1="1443.27" x2="2040.36" y2="1356.46" xlink:href="#linear-gradient-23"/><linearGradient id="linear-gradient-25" x1="-16400.78" y1="1619.4" x2="-16398.6" y2="1850.89" gradientTransform="translate(16916.93)" xlink:href="#linear-gradient-3"/><linearGradient id="linear-gradient-26" x1="-16456.58" y1="1360.87" x2="-16468.59" y2="1266.97" gradientTransform="translate(16916.93)" xlink:href="#linear-gradient-9"/><linearGradient id="linear-gradient-27" x1="-16713.54" y1="1622.35" x2="-16711.36" y2="1853.84" gradientTransform="translate(16916.93)" xlink:href="#linear-gradient-3"/><linearGradient id="linear-gradient-28" x1="-16719.11" y1="1393.06" x2="-16730.81" y2="1301.55" gradientTransform="translate(16916.93)" xlink:href="#linear-gradient-9"/><linearGradient id="linear-gradient-29" x1="-16800.91" y1="1045.33" x2="-16440.63" y2="1045.33" gradientTransform="translate(16916.93)" xlink:href="#linear-gradient-3"/><linearGradient id="linear-gradient-30" x1="578.64" y1="559.88" x2="388.46" y2="633.95" gradientTransform="matrix(1, 0, 0, 1, 0, 0)" xlink:href="#linear-gradient-4"/><linearGradient id="linear-gradient-31" x1="-6010.48" y1="12743.6" x2="-5926.72" y2="12743.6" gradientTransform="translate(14419.18 -1625.87) rotate(55.64)" xlink:href="#linear-gradient-9"/><linearGradient id="linear-gradient-32" x1="316.83" y1="560.64" x2="114.18" y2="1162.71" gradientTransform="matrix(1, 0, 0, 1, 0, 0)" xlink:href="#linear-gradient-4"/><linearGradient id="linear-gradient-33" x1="-10129.64" y1="666.29" x2="-10025.77" y2="526.96" gradientTransform="translate(10581.46)" xlink:href="#linear-gradient-3"/><linearGradient id="linear-gradient-34" x1="449.52" y1="513.45" x2="800.5" y2="442.96" gradientTransform="matrix(1, 0, 0, 1, 0, 0)" xlink:href="#linear-gradient-5"/><linearGradient id="linear-gradient-35" x1="736.83" y1="470.16" x2="484.84" y2="560.16" gradientTransform="matrix(1, 0, 0, 1, 0, 0)" xlink:href="#linear-gradient-5"/><linearGradient id="linear-gradient-36" x1="843.33" y1="429.89" x2="588.34" y2="549.88" gradientUnits="userSpaceOnUse"><stop offset="0" stop-color="#e1473d"/><stop offset="1" stop-color="#e9605a"/></linearGradient><clipPath id="clip-path"><path class="cls-1" d="M823.77,572.6c-2.62-2.66-8.34-13-13.24-39.57-4.73-25.72-7.34-59.08-7.34-93.94s2.61-68.22,7.34-93.94c4.9-26.61,10.62-36.9,13.24-39.57,2.63,2.67,8.34,13,13.24,39.57,4.73,25.72,42.1,59.09,42.1,93.94S841.74,507.31,837,533C832.11,559.64,826.4,569.94,823.77,572.6Z"/></clipPath><linearGradient id="linear-gradient-37" x1="-9737.98" y1="436.8" x2="-9944.02" y2="448.63" gradientTransform="translate(10581.46)" xlink:href="#linear-gradient-3"/><linearGradient id="linear-gradient-38" x1="-10085.9" y1="507.58" x2="-10093.5" y2="316.32" gradientTransform="translate(10581.46)" xlink:href="#linear-gradient-3"/><linearGradient id="linear-gradient-39" x1="-10060.3" y1="557.41" x2="-10009.47" y2="557.41" gradientTransform="translate(10581.46)" xlink:href="#linear-gradient-9"/><linearGradient id="linear-gradient-40" x1="-16037.89" y1="5683.42" x2="-15746.76" y2="5683.42" gradientTransform="translate(11332.98 13636.8) rotate(69.56)" xlink:href="#linear-gradient-9"/><linearGradient id="linear-gradient-41" x1="539.87" y1="818.73" x2="287.88" y2="562.74" gradientTransform="matrix(1, 0, 0, 1, 0, 0)" xlink:href="#linear-gradient-4"/><linearGradient id="linear-gradient-42" x1="386.43" y1="337.55" x2="342.43" y2="517.55" gradientTransform="matrix(1, 0, 0, 1, 0, 0)" xlink:href="#linear-gradient-9"/><linearGradient id="linear-gradient-43" x1="-307.53" y1="4007.75" x2="-369.53" y2="3921.75" gradientTransform="matrix(0.75, -0.67, 0.67, 0.75, 3729.84, -1598.87)" xlink:href="#linear-gradient-9"/><linearGradient id="linear-gradient-44" x1="-3783.94" y1="-947.28" x2="-3754.77" y2="-780.94" gradientTransform="matrix(0.75, -0.67, 0.67, 0.75, 3729.84, -1598.87)" xlink:href="#linear-gradient-3"/><linearGradient id="linear-gradient-45" x1="-326.21" y1="4021.22" x2="-388.21" y2="3935.22" gradientTransform="matrix(0.75, -0.67, 0.67, 0.75, 3729.84, -1598.87)" xlink:href="#linear-gradient-9"/><linearGradient id="linear-gradient-46" x1="1859.48" y1="532.07" x2="1848.21" y2="606.47" gradientTransform="matrix(1, 0, 0, 1, 0, 0)" xlink:href="#linear-gradient-3"/><linearGradient id="linear-gradient-47" x1="1916.52" y1="390.61" x2="1658.71" y2="625.14" gradientTransform="matrix(1, 0, 0, 1, 0, 0)" xlink:href="#linear-gradient-5"/><linearGradient id="linear-gradient-48" x1="1929.13" y1="377.15" x2="1858.13" y2="516.15" xlink:href="#linear-gradient-36"/><linearGradient id="linear-gradient-49" x1="1906.95" y1="365.82" x2="1835.95" y2="504.82" xlink:href="#linear-gradient-36"/><linearGradient id="linear-gradient-50" x1="1688.16" y1="892.7" x2="1843.11" y2="892.7" xlink:href="#linear-gradient"/><linearGradient id="linear-gradient-51" x1="1597.44" y1="824.09" x2="1798.48" y2="824.09" xlink:href="#linear-gradient"/><linearGradient id="linear-gradient-52" x1="1787.27" y1="131.25" x2="1528.51" y2="340.49" gradientTransform="matrix(1, 0, 0, 1, 0, 0)" xlink:href="#linear-gradient-4"/><linearGradient id="linear-gradient-53" x1="1951.58" y1="2.96" x2="1660.27" y2="93.07" gradientTransform="matrix(1, 0, 0, 1, 0, 0)" xlink:href="#linear-gradient-4"/><linearGradient id="linear-gradient-54" x1="1953.04" y1="7.65" x2="1661.72" y2="97.76" gradientTransform="matrix(1, 0, 0, 1, 0, 0)" xlink:href="#linear-gradient-4"/><linearGradient id="linear-gradient-55" x1="1954.32" y1="11.79" x2="1663" y2="101.9" gradientTransform="matrix(1, 0, 0, 1, 0, 0)" xlink:href="#linear-gradient-4"/><linearGradient id="linear-gradient-56" x1="1955.77" y1="16.48" x2="1664.45" y2="106.59" gradientTransform="matrix(1, 0, 0, 1, 0, 0)" xlink:href="#linear-gradient-4"/><linearGradient id="linear-gradient-57" x1="1957.05" y1="20.62" x2="1665.74" y2="110.73" gradientTransform="matrix(1, 0, 0, 1, 0, 0)" xlink:href="#linear-gradient-4"/><linearGradient id="linear-gradient-58" x1="1958.5" y1="25.31" x2="1667.19" y2="115.42" gradientTransform="matrix(1, 0, 0, 1, 0, 0)" xlink:href="#linear-gradient-4"/><linearGradient id="linear-gradient-59" x1="1959.78" y1="29.45" x2="1668.47" y2="119.56" gradientTransform="matrix(1, 0, 0, 1, 0, 0)" xlink:href="#linear-gradient-4"/><linearGradient id="linear-gradient-60" x1="1961.23" y1="34.14" x2="1669.92" y2="124.25" gradientTransform="matrix(1, 0, 0, 1, 0, 0)" xlink:href="#linear-gradient-4"/><linearGradient id="linear-gradient-61" x1="1962.51" y1="38.28" x2="1671.2" y2="128.39" gradientTransform="matrix(1, 0, 0, 1, 0, 0)" xlink:href="#linear-gradient-4"/><linearGradient id="linear-gradient-62" x1="1963.96" y1="42.97" x2="1672.65" y2="133.08" gradientTransform="matrix(1, 0, 0, 1, 0, 0)" xlink:href="#linear-gradient-4"/><linearGradient id="linear-gradient-63" x1="1965.24" y1="47.12" x2="1673.93" y2="137.22" gradientTransform="matrix(1, 0, 0, 1, 0, 0)" xlink:href="#linear-gradient-4"/><linearGradient id="linear-gradient-64" x1="1966.69" y1="51.81" x2="1675.38" y2="141.91" gradientTransform="matrix(1, 0, 0, 1, 0, 0)" xlink:href="#linear-gradient-4"/><linearGradient id="linear-gradient-65" x1="1726.18" y1="121.15" x2="1748.46" y2="121.15" xlink:href="#linear-gradient"/><linearGradient id="linear-gradient-66" x1="1753.26" y1="121.15" x2="1775.54" y2="121.15" xlink:href="#linear-gradient"/><linearGradient id="linear-gradient-67" x1="1780.06" y1="121.15" x2="1802.35" y2="121.15" xlink:href="#linear-gradient"/><linearGradient id="linear-gradient-68" x1="1806.65" y1="121.15" x2="1828.93" y2="121.15" xlink:href="#linear-gradient"/><linearGradient id="linear-gradient-69" x1="1645.74" y1="149.17" x2="1668.02" y2="149.17" xlink:href="#linear-gradient"/><linearGradient id="linear-gradient-70" x1="1672.54" y1="149.17" x2="1694.82" y2="149.17" xlink:href="#linear-gradient"/><linearGradient id="linear-gradient-71" x1="1699.13" y1="149.17" x2="1721.41" y2="149.17" xlink:href="#linear-gradient"/><linearGradient id="linear-gradient-72" x1="1726.15" y1="149.17" x2="1748.43" y2="149.17" xlink:href="#linear-gradient"/><linearGradient id="linear-gradient-73" x1="1753.23" y1="149.17" x2="1775.51" y2="149.17" xlink:href="#linear-gradient"/><linearGradient id="linear-gradient-74" x1="1780.04" y1="149.17" x2="1802.32" y2="149.17" xlink:href="#linear-gradient"/><linearGradient id="linear-gradient-75" x1="1806.62" y1="149.17" x2="1828.9" y2="149.17" xlink:href="#linear-gradient"/><linearGradient id="linear-gradient-76" x1="1646.4" y1="175.86" x2="1668.68" y2="175.86" xlink:href="#linear-gradient"/><linearGradient id="linear-gradient-77" x1="1673.2" y1="175.86" x2="1695.49" y2="175.86" xlink:href="#linear-gradient"/><linearGradient id="linear-gradient-78" x1="1767.25" y1="108.06" x2="1612.76" y2="294.05" gradientTransform="matrix(1, 0, 0, 1, 0, 0)" xlink:href="#linear-gradient-5"/><linearGradient id="linear-gradient-79" x1="1726.81" y1="175.86" x2="1749.1" y2="175.86" xlink:href="#linear-gradient"/><linearGradient id="linear-gradient-80" x1="1753.89" y1="175.86" x2="1776.18" y2="175.86" xlink:href="#linear-gradient"/><linearGradient id="linear-gradient-81" x1="1780.7" y1="175.86" x2="1802.98" y2="175.86" xlink:href="#linear-gradient"/><linearGradient id="linear-gradient-82" x1="1807.28" y1="175.86" x2="1829.57" y2="175.86" xlink:href="#linear-gradient"/><linearGradient id="linear-gradient-83" x1="1647.06" y1="202.23" x2="1669.34" y2="202.23" xlink:href="#linear-gradient"/><linearGradient id="linear-gradient-84" x1="1673.87" y1="202.23" x2="1696.15" y2="202.23" xlink:href="#linear-gradient"/><linearGradient id="linear-gradient-85" x1="1700.45" y1="202.23" x2="1722.73" y2="202.23" xlink:href="#linear-gradient"/><linearGradient id="linear-gradient-86" x1="1727.48" y1="202.23" x2="1749.76" y2="202.23" xlink:href="#linear-gradient"/><linearGradient id="linear-gradient-87" x1="1754.56" y1="202.23" x2="1776.84" y2="202.23" xlink:href="#linear-gradient"/><linearGradient id="linear-gradient-88" x1="1781.36" y1="202.23" x2="1803.64" y2="202.23" xlink:href="#linear-gradient"/><linearGradient id="linear-gradient-89" x1="1807.95" y1="202.23" x2="1830.23" y2="202.23" xlink:href="#linear-gradient"/><linearGradient id="linear-gradient-90" x1="1647.06" y1="228.53" x2="1669.34" y2="228.53" xlink:href="#linear-gradient"/><linearGradient id="linear-gradient-91" x1="1673.87" y1="228.53" x2="1696.15" y2="228.53" xlink:href="#linear-gradient"/><linearGradient id="linear-gradient-92" x1="1700.45" y1="228.53" x2="1722.73" y2="228.53" xlink:href="#linear-gradient"/><linearGradient id="linear-gradient-93" x1="1871.92" y1="69.42" x2="1501.61" y2="99.04" gradientTransform="matrix(1, 0, 0, 1, 0, 0)" xlink:href="#linear-gradient-4"/><linearGradient id="linear-gradient-94" x1="1872.04" y1="70.88" x2="1501.73" y2="100.51" gradientTransform="matrix(1, 0, 0, 1, 0, 0)" xlink:href="#linear-gradient-4"/><linearGradient id="linear-gradient-95" x1="1872.14" y1="72.1" x2="1501.83" y2="101.72" gradientTransform="matrix(1, 0, 0, 1, 0, 0)" xlink:href="#linear-gradient-4"/><linearGradient id="linear-gradient-96" x1="1872.24" y1="73.35" x2="1501.93" y2="102.98" gradientTransform="matrix(1, 0, 0, 1, 0, 0)" xlink:href="#linear-gradient-4"/><linearGradient id="linear-gradient-97" x1="1872.33" y1="74.51" x2="1502.02" y2="104.14" gradientTransform="matrix(1, 0, 0, 1, 0, 0)" xlink:href="#linear-gradient-4"/><linearGradient id="linear-gradient-98" x1="1872.43" y1="75.76" x2="1502.12" y2="105.39" gradientTransform="matrix(1, 0, 0, 1, 0, 0)" xlink:href="#linear-gradient-4"/><linearGradient id="linear-gradient-99" x1="1872.53" y1="76.98" x2="1502.22" y2="106.61" gradientTransform="matrix(1, 0, 0, 1, 0, 0)" xlink:href="#linear-gradient-4"/><linearGradient id="linear-gradient-100" x1="1872.64" y1="78.34" x2="1502.33" y2="107.96" gradientTransform="matrix(1, 0, 0, 1, 0, 0)" xlink:href="#linear-gradient-4"/><linearGradient id="linear-gradient-101" x1="1872.72" y1="79.37" x2="1502.41" y2="109" gradientTransform="matrix(1, 0, 0, 1, 0, 0)" xlink:href="#linear-gradient-4"/><linearGradient id="linear-gradient-102" x1="1872.82" y1="80.59" x2="1502.51" y2="110.21" gradientTransform="matrix(1, 0, 0, 1, 0, 0)" xlink:href="#linear-gradient-4"/><linearGradient id="linear-gradient-103" x1="1873.04" y1="83.35" x2="1502.73" y2="112.98" gradientTransform="matrix(1, 0, 0, 1, 0, 0)" xlink:href="#linear-gradient-4"/><linearGradient id="linear-gradient-104" x1="1872.93" y1="81.95" x2="1502.62" y2="111.57" gradientTransform="matrix(1, 0, 0, 1, 0, 0)" xlink:href="#linear-gradient-4"/><linearGradient id="linear-gradient-105" x1="11847.7" y1="1914.68" x2="11593.35" y2="1984.39" gradientTransform="translate(-10473.96 -94.22) rotate(-2.83)" xlink:href="#linear-gradient-3"/><linearGradient id="linear-gradient-106" x1="665.98" y1="1446.79" x2="1029.98" y2="1158.79" gradientTransform="matrix(1, 0, 0, 1, 0, 0)" xlink:href="#linear-gradient-3"/><linearGradient id="linear-gradient-107" x1="280.31" y1="980.14" x2="508.47" y2="980.14" xlink:href="#linear-gradient"/><linearGradient id="linear-gradient-108" x1="633.77" y1="1055.14" x2="906.24" y2="1055.14" gradientTransform="matrix(1, 0, 0, 1, 0, 0)" xlink:href="#linear-gradient-4"/></defs><g id="Слой_2" data-name="Слой 2"><g id="Illustration"><path class="cls-2" d="M2137,791.81c-34.27-37.92-74.79-74.9-85.36-126.38C2033,574.53,2115.1,503.09,2124,415.56q2.46-24.1,4.91-48.2c6.87-67.37,8.46-133.27-24.61-195.42-28.06-52.73-76.77-95-132.39-122.16C1900.9,15,1819.17,3,1738.9,2.7c-70-.23-140.74,8.33-205.41,33.12-43.3,16.59-83,40.11-124.34,60.66a970.52,970.52,0,0,1-206.53,74.67c-64.68,15.45-144.89,35.08-210.73,20.51-51.39-11.38-100.68-29.89-149-49.49-107-43.4-219.64-91.83-332.45-71-125.58,23.12-230.87,140-247.67,275-16.64,133.73,123,241.07,4.12,401.64-37.13,50.18-61.83,120-45.42,181.56,16,59.77,83.83,97.57,84.33,159.72.38,49.06-42.92,88.1-46.41,137-3,42,25.28,80.81,60,100.72s75.06,24.76,114.26,29.27c0,0,384.53,28,582.72,23.76l937.62-20c32.12-.69,65-1.53,94.95-14s56.77-39.19,61.33-73.16c7.76-57.81-48.82-108-43.59-166.13,6.68-74.24,104.54-102.88,123.16-174.76C2203,880.9,2171.25,829.73,2137,791.81Z"/><path class="cls-3" d="M0,592.81C4.32,696.3,48.53,1295,494.85,1291.09c0,0,50.15-413.06-484.91-707.76C5.26,580.75-.27,586.05,0,592.81Z"/><path class="cls-4" d="M54.91,665.8s3.79,10.9,11,29.83c3.63,9.45,8.1,20.9,13.42,34s11.42,27.76,18.33,43.68,14.57,33.1,22.93,51.15,17.44,37,27.26,56.29,20.2,39.2,31.11,59.18c5.5,10,11.19,19.93,16.87,29.94,5.9,9.89,11.62,19.94,17.71,29.77s12,19.73,18.39,29.32l9.37,14.45c3.14,4.79,6.43,9.45,9.62,14.16s6.37,9.39,9.62,14l9.85,13.61c6.42,9.11,13.24,17.74,19.82,26.32,13.26,17.08,26.77,33,40,47.74,3.22,3.77,6.64,7.25,10,10.72l9.82,10.24c3.16,3.42,6.48,6.56,9.74,9.64l9.55,9.11,4.62,4.42c1.55,1.43,3.16,2.76,4.71,4.11l9.14,7.89c3,2.54,5.81,5.13,8.71,7.44l8.56,6.6,8,6.19,3.81,2.94,3.82,2.6,13.72,9.3c4.08,2.92,8,5.07,11.34,7l8.53,4.95,7.09,4.13.34.2a5.36,5.36,0,0,1-5.39,9.27l0,0-7.28-4.3-8.73-5.17c-3.44-2-7.44-4.3-11.6-7.32l-14-9.66-3.9-2.69-3.86-3-8.15-6.4-8.68-6.82c-2.94-2.39-5.8-5-8.83-7.65l-9.23-8.12c-1.57-1.39-3.2-2.76-4.76-4.22s-3.09-3-4.67-4.53l-9.62-9.34c-3.28-3.16-6.62-6.38-9.8-9.87l-9.87-10.47c-3.34-3.54-6.77-7.1-10-10.93-13.28-15-26.8-31.24-40-48.59-6.57-8.72-13.37-17.48-19.76-26.71q-4.89-6.85-9.82-13.8c-3.23-4.66-6.36-9.43-9.57-14.17s-6.44-9.49-9.56-14.33-6.2-9.73-9.31-14.61c-6.32-9.71-12.19-19.73-18.25-29.65s-11.7-20.07-17.54-30.06c-5.62-10.11-11.26-20.16-16.7-30.21-10.78-20.16-21.18-40.11-30.73-59.66s-18.56-38.57-26.87-56.7-15.81-35.43-22.57-51.47c-27.14-64.12-42-108.17-42-108.17a2.27,2.27,0,0,1,4.29-1.48Z"/><path class="cls-5" d="M311.82,6.15c3.72-10.32,13.25-6.28,20.38,2.06C722.53,465,769.06,1187.15,610.56,1360.61,610.56,1360.61-93,1131.35,311.82,6.15Z"/><path class="cls-3" d="M315.63,153.67v3.22c.08,2.1.13,5.13.34,9.27.31,8.22,1.07,20.27,2,35.61s2.35,33.95,4.22,55.28,4.23,45.37,6.86,71.58c2.83,26.2,6,54.57,9.91,84.5,3.76,29.95,8.43,61.44,13.32,94,5.12,32.52,10.57,66.11,16.94,100.08L374,632.79q2.56,12.8,5.14,25.66c3.32,17.17,7.17,34.3,10.85,51.46s7.92,34.21,11.75,51.27q6.18,25.47,12.54,50.64c4.53,16.67,8.74,33.29,13.42,49.56l7,24.24,3.47,12,3.68,11.83q3.69,11.77,7.3,23.35,1.83,5.78,3.63,11.5t3.83,11.3c5.21,14.95,9.73,29.78,15.07,43.88l7.62,21,3.72,10.25,3.93,10c5.27,13.17,10.12,26,15.22,38.13s10.2,23.66,14.94,34.68c4.9,10.94,9.83,21.19,14.31,30.9q3.41,7.28,6.58,14.06,3.42,6.66,6.58,12.85c4.21,8.24,8.08,15.81,11.58,22.64s7.05,12.7,9.89,17.95l7.38,13.23,6.16,11,0,.05a1.34,1.34,0,0,1-2.33,1.34s-2.24-3.79-6.45-10.88-10.54-17.43-18.05-30.88l-12-22.49q-3.3-6.13-6.85-12.78l-6.87-14c-4.67-9.66-9.87-19.84-14.93-30.76q-7.35-16.5-15.41-34.64C491.42,1069,486.41,1056.18,481,1043l-4.06-10Q475,1028,473,1022.8l-7.89-20.95c-10.58-28.36-20.75-58.64-30.56-90.16l-3.74-11.86-3.52-12-7.13-24.3c-4.76-16.31-9.05-33-13.66-49.67q-6.48-25.19-12.78-50.76-3-12.81-5.94-25.67c-2-8.57-4-17.14-5.75-25.76-3.63-17.23-7.43-34.42-10.7-51.64q-2.55-12.9-5.07-25.75l-4.69-25.66C355.34,574.53,350,540.85,345,508.24c-4.72-32.66-9-64.27-12.47-94.31s-6.5-58.47-9.08-84.74c-4.88-52.55-7.6-96.46-9.13-127.21-.71-15.38-1.13-27.47-1.28-35.72-.12-4.1-.1-7.39-.13-9.54s.08-3.24.08-3.24a1.34,1.34,0,0,1,2.67,0Z"/><path class="cls-5" d="M1373.94,439.39c-3.21,1.68,100.8,38.11,100.8,38.11l55.72-119.61,135.92,36,57.81-140.26-51,174.69L1551.94,395s-66.63,152.57-68.15,150.86S1373.94,439.39,1373.94,439.39Z"/><path class="cls-5" d="M524.15,39.17C529.21,43.13,741.46,87,741.46,87L680.28,222.12S929.87,329.7,918.94,330.45s-298.36-68.62-298.36-68.62l90.5-163.28Z"/><path class="cls-5" d="M1440.91,636.5c5.78-.69,170.44-107.84,170.44-107.84l46.79,126s229.32-90,222.76-82.53-235.85,146.19-235.85,146.19l-45.92-162.85Z"/><path class="cls-5" d="M1025.88,562.12c-8.43-5-155.44,6.09-155.44,6.09L885.78,671s-176,19.61-174.75,17.18,213.91,16.23,213.91,16.23L899.31,593.93Z"/><path class="cls-6" d="M892.69,296.38c0,108.08,90.93,195.7,203.11,195.7s208.12-91.45,208.12-199.53-96-191.88-208.12-191.88S892.69,188.29,892.69,296.38Z"/><path class="cls-3" d="M1288,248.79a1.47,1.47,0,0,0,.36,0,1.35,1.35,0,0,0,1-1.66,171.48,171.48,0,0,0-8.29-23.31,1.44,1.44,0,0,0-1.84-.72,1.33,1.33,0,0,0-.75,1.77,169.54,169.54,0,0,1,8.17,23A1.41,1.41,0,0,0,1288,248.79Z"/><path class="cls-3" d="M1256.94,187.63a1.45,1.45,0,0,0,.84-.27,1.32,1.32,0,0,0,.28-1.89c-37.63-48.08-98.25-76.79-162.14-76.79a199.67,199.67,0,0,0-78.45,15.85,1.33,1.33,0,0,0-.72,1.78,1.43,1.43,0,0,0,1.85.69,196.74,196.74,0,0,1,77.32-15.61c63,0,122.79,28.3,159.9,75.71A1.4,1.4,0,0,0,1256.94,187.63Z"/><path class="cls-7" d="M920.32,296.38c0,93.56,78.72,169.4,175.81,169.4s180.16-79.16,180.16-172.72S1193.23,127,1096.13,127,920.32,202.82,920.32,296.38Z"/><path class="cls-8" d="M1231.36,287.59a13.37,13.37,0,0,0,14.3,12.26,13.23,13.23,0,0,0,12.73-13.77,13.37,13.37,0,0,0-14.3-12.27A13.23,13.23,0,0,0,1231.36,287.59Z"/><path class="cls-8" d="M938.94,304a13.36,13.36,0,0,0,14.3,12.26A13.21,13.21,0,0,0,966,302.48a13.36,13.36,0,0,0-14.3-12.27A13.22,13.22,0,0,0,938.94,304Z"/><path class="cls-8" d="M1122.55,421a13.09,13.09,0,0,0-10.89,15.17,13.52,13.52,0,0,0,15.75,10.49,13.08,13.08,0,0,0,10.88-15.17A13.49,13.49,0,0,0,1122.55,421Z"/><path class="cls-8" d="M1069.91,143.38A13.09,13.09,0,0,0,1059,158.55,13.51,13.51,0,0,0,1074.78,169a13.09,13.09,0,0,0,10.88-15.18A13.5,13.5,0,0,0,1069.91,143.38Z"/><path class="cls-8" d="M1026.32,428.48c-1.38,3.35-1,6.48.77,7s4.37-1.78,5.74-5.12,1-6.47-.76-7S1027.69,425.14,1026.32,428.48Z"/><path class="cls-8" d="M1144,165.13c-1.38,3.35-1,6.48.77,7s4.37-1.77,5.75-5.11,1-6.48-.77-7S1145.33,161.79,1144,165.13Z"/><path class="cls-8" d="M964.89,378.42c-3,2.17-4.37,5-3.11,6.36s4.69.68,7.67-1.49,4.37-5,3.11-6.36S967.87,376.25,964.89,378.42Z"/><path class="cls-8" d="M1207.34,212.21c-3,2.17-4.37,5-3.11,6.36s4.69.67,7.67-1.5,4.37-5,3.11-6.36S1210.32,210,1207.34,212.21Z"/><path class="cls-8" d="M957.18,229.31c-3.37-1.55-6.64-1.43-7.29.27s1.54,4.32,4.91,5.87,6.63,1.42,7.29-.27S960.55,230.85,957.18,229.31Z"/><path class="cls-8" d="M1222,360.05c-3.37-1.55-6.64-1.43-7.3.27s1.55,4.32,4.92,5.87,6.63,1.42,7.29-.27S1225.37,361.59,1222,360.05Z"/><path class="cls-8" d="M1013.13,173.61c-2-3-4.9-4.54-6.38-3.42s-1,4.46,1,7.47,4.9,4.54,6.38,3.42S1015.18,176.61,1013.13,173.61Z"/><path class="cls-8" d="M1169,417.83c-2-3-4.91-4.54-6.38-3.42s-1,4.47,1,7.48,4.91,4.53,6.38,3.41S1171.05,420.84,1169,417.83Z"/><path class="cls-9" d="M1101.61,291.13l108.73,52.25a3.11,3.11,0,0,0,4.5-2.77l-.43-13.49a3.12,3.12,0,0,1,5.17-2.34l78.62,66.69a3,3,0,0,1-2.71,5.19l-101.25-20.83a3,3,0,0,1-1.54-5.07l11.86-11.27a2.93,2.93,0,0,0-.64-4.73l-105.25-58.35a2.93,2.93,0,0,1-1.18-4h0A3.17,3.17,0,0,1,1101.61,291.13Z"/><path class="cls-10" d="M1286,391.16a2.63,2.63,0,0,0,2.38-1.46,2.49,2.49,0,0,0-.7-3.12l-17.21-13.71a1.44,1.44,0,0,0-2,.19,1.32,1.32,0,0,0,.19,1.9l17.2,13.7c-22.92-5-76.61-16.31-77.72-16.42a1.39,1.39,0,0,0-1.54,1.2,1.36,1.36,0,0,0,1.22,1.48c1.61.25,42.75,8.87,77.55,16.18A3.05,3.05,0,0,0,1286,391.16Z"/><path class="cls-11" d="M1090.27,286l.21-102.44a3.1,3.1,0,0,0-4.62-2.57l-12.24,6.57a3.08,3.08,0,0,1-4.53-3.35l25.29-97.94a3.15,3.15,0,0,1,6-.07l27.38,96.21a3.07,3.07,0,0,1-4,3.65l-15.83-5a3.1,3.1,0,0,0-4.07,2.72l-7.43,102.27a3.06,3.06,0,0,1-3.18,2.86h0A3,3,0,0,1,1090.27,286Z"/><path class="cls-10" d="M1119.39,173a1.52,1.52,0,0,0,.51-.09,1.34,1.34,0,0,0,.8-1.73c-.51-1.48-11.49-40.65-20.76-73.79a2.71,2.71,0,0,0-5.22.13l-4.71,21a1.35,1.35,0,0,0,1.07,1.61,1.41,1.41,0,0,0,1.67-1l4.71-21c5.9,21.94,20.21,73,20.62,74A1.4,1.4,0,0,0,1119.39,173Z"/><ellipse class="cls-12" cx="1097.04" cy="291.47" rx="14.46" ry="13.93"/><path class="cls-3" d="M1001.28,103.36a2.7,2.7,0,0,0,1.2-.28c94.32-47.39,175.34-.57,176.15-.09a2.69,2.69,0,0,0,2.74-4.63c-.85-.51-21.25-12.48-53.93-18.57-30.12-5.63-76.68-7-127.37,18.48a2.69,2.69,0,0,0,1.21,5.09Z"/><path class="cls-3" d="M1003.07,80.05a2.75,2.75,0,0,0,1.21-.28c94.32-47.39,175.33-.57,176.14-.09a2.69,2.69,0,0,0,2.75-4.63c-.86-.51-21.26-12.48-53.93-18.58-30.13-5.62-76.69-7-127.38,18.49a2.69,2.69,0,0,0,1.21,5.09Z"/><path class="cls-3" d="M1322.61,271.52a2.71,2.71,0,0,0-.09,1.24c16.65,104.23-52.48,167.3-53.18,167.92a2.69,2.69,0,0,0,3.58,4c.74-.66,18.32-16.49,34-45.79,14.47-27,29.84-71,20.89-127a2.69,2.69,0,0,0-5.22-.39Z"/><path class="cls-3" d="M1344.29,280.28a2.67,2.67,0,0,0-.09,1.23c16.65,104.24-52.48,167.31-53.18,167.93a2.69,2.69,0,0,0,3.58,4c.74-.66,18.32-16.49,34-45.79,14.48-27,29.85-71,20.9-127a2.69,2.69,0,0,0-5.22-.39Z"/><path class="cls-13" d="M1081.57,834.84c14.42,184.19,102,381.34,86.27,465.24,105.23,53.31,262.92,16.32,262.92,16.32-25.2-8.32,72.29-282,86-474.17C1381.17,766.4,1254.9,752.25,1081.57,834.84Z"/><path class="cls-14" d="M1260.49,660.54l-20.08,145.6a3.65,3.65,0,0,1-.36,1c-2.65,5.7,71.18,50.5,122.76-9.89L1333.69,657Z"/><path class="cls-15" d="M1238.16,635.92s6.2-52-14.12-59.74-45,4.32-31.35,37.83C1209.72,655.7,1238.16,635.92,1238.16,635.92Z"/><path class="cls-16" d="M1348.05,635.92s-6.2-52,14.13-59.74,45,4.32,31.35,37.83C1376.5,655.7,1348.05,635.92,1348.05,635.92Z"/><path class="cls-17" d="M1204.61,542.49c60.16-53.53,117.53-60.38,170.87,0-3.41,109.07-9.06,213.85-78.83,206.52C1224.35,762.27,1215.39,647.93,1204.61,542.49Z"/><path class="cls-18" d="M1359.9,552.43c-.11-5.18-.09-10.37.2-15.6a5.22,5.22,0,0,1,.8-3c.95-1.21,16.56-1.39,22.7-1.12.85,30.38-22,191.43-27.57,205.68-2.6,6.71-9.92,10.14-16.69,12.56-11.37,4.08-23.58,5.56-35.58,5.64-20,.11-42.17-2.9-58.91-14.78C1223,726.36,1212.57,604.68,1209,589c-4.21-18.24-4.25-37.08-4.73-55.69a3,3,0,0,1,.3-1.72,2.89,2.89,0,0,1,1.81-1c12.06-3,17.83-1.92,17.2,9.51a272.6,272.6,0,0,0,.31,36,477.49,477.49,0,0,0,9.4,64.74c3.66,16.93,7.77,31,25.7,37.25,9.83,3.45,19-1.11,28.26-3.92,17-5.13,30.31,8.4,47.46,4.21,32.19-7.89,24.45-58.88,25.92-83.65C1361.43,580.48,1360.2,566.51,1359.9,552.43Z"/><path class="cls-19" d="M1329,420.43c19.67,4.81,28.75,17.41,35,35.12,5.56,15.62,22.75,26.72,25.9,43.21a24.82,24.82,0,0,1,.23,5.65c-.71,17.34-5.2,33.49-9.39,50.14-1.48,5.88-2,8.28-9.57,6.82-5.11-1-7.55-3.38-9.15-8.46-2.17-6.9-1.39-14.57-6.71-20.24a33.35,33.35,0,0,0-28.64-10.13c-3.86.58-7.59,1.85-11.41,2.69-21.7,4.79-45.38-4.41-66.13,3.54a43.12,43.12,0,0,0-25.69,28.82c-.58,2.29-6.37,30.83-14,16.56-10.07-19-14.54-45-17-66.13-2.11-18-.81-39,13.58-50,16.7-12.71,41.35-4.84,60.88-12.51,13.5-5.3,23.26-17.56,36.57-23.32A40.14,40.14,0,0,1,1329,420.43Z"/><path class="cls-20" d="M1264.1,447.31c3.3,6.17-11.84,22.78-25.19,30.5-5.55,3.2-11.29,15.28-14.2,21.86a73.31,73.31,0,0,0-6.18,26.18c-1.26,26.86,5,53.89-26,66.81-26.38,11-29.29-4.63-36.44-24.52,1.67-51.56,27.75-91.39,69.57-124.21Z"/><path class="cls-21" d="M1212.51,573.15,1176.37,595c-46,24.63-81.8,63.25-104.68,91.45-25.62-5.89-56.67-23.57-54.21-56.11a712.46,712.46,0,0,1,86.34-44.82C1197.72,537.69,1212.51,573.15,1212.51,573.15Z"/><path class="cls-22" d="M1022.65,626.69c2.17,19.58,24.92,35,58.92,48.27C1071.31,736.54,930.08,852.1,1109,825.72c55.91,36.53,27.32,117,8.57,199C779.69,926.74,846.65,750.07,1022.65,626.69Z"/><path class="cls-23" d="M1341.42,443.93a6,6,0,0,0-4.27,10.34c5.53,5.42,12.26,9.74,17.58,15.31s8.16,13.15,12.6,19.42c8.42,11.89,13.3,22,14,37,1.26,26.87-5,53.9,26,66.81,26.38,11,29.29-4.63,36.43-24.52-1.66-51.56-27.75-91.39-67.48-124.39Z"/><path class="cls-24" d="M1387.36,573.33l36.13,21.88c46.06,24.63,81.8,63.24,104.69,91.45,25.61-5.89,56.66-23.58,54.21-56.12A714.72,714.72,0,0,0,1496,585.72C1402.15,537.87,1387.36,573.33,1387.36,573.33Z"/><path class="cls-25" d="M1577.21,626.88c-2.16,19.58-24.91,35-58.92,48.26C1528.55,736.72,1662,851.29,1483,824.91c-55.92,36.53-19.49,118-.74,200C1820.17,926.93,1753.21,750.25,1577.21,626.88Z"/><path class="cls-26" d="M1992.51,1310.51a19.14,19.14,0,0,0-3.29-14.5,15.1,15.1,0,0,0-12.1-6.38H391.92c-6.15,0-11.88,3.51-15.2,9.32a22.32,22.32,0,0,0-1.18,19.35l17.18,41.62c3.94,9.54,12.46,15.64,21.84,15.64H1966.25c8.72,0,16.22-6.93,17.88-16.52Z"/><path class="cls-5" d="M2037,1249.63l-12.39,19.9-2.65,88.86h-19.44l17.69,23,.82,59.66a6.37,6.37,0,0,0-.5-.43l-179.82,9.74-41.22-19.58-4.75-159,39.79-33.16,197.34-14.35-7.79,6.84v8h-26.87l6.18,10.61Z"/><polygon class="cls-3" points="1841.08 1407.91 1841.08 1450.36 1711.14 1393.33 1710.85 1377.83 1692.23 1350.43 1705.48 1341.6 1704.59 1258.47 1692.2 1239.9 1702.81 1220.45 1701.65 1208.52 1835.77 1238.15 1835.77 1305.34 1801.99 1292.95 1803.69 1301.81 1835.48 1317.72 1840.05 1393.75 1801.29 1376.96 1801.29 1384.92 1841.08 1407.91"/><polygon class="cls-27" points="1705.46 1208.52 1863.95 1191.94 2031.73 1224.21 1835.43 1238.14 1705.46 1208.52"/><g class="cls-28"><polygon class="cls-29" points="1868.59 1300.03 2024.06 1289.45 2023.82 1297.4 1868.59 1300.03"/><path class="cls-30" d="M1893.79,1398.73c2.65-1.88,126.58-7.85,126.58-7.85l.18,13.28Z"/></g><path class="cls-31" d="M1692.19,1197.24l148.55,32.28s176-4.64,191-38.24c-25.65,8-169.77-17.69-169.77-17.69Z"/><path class="cls-3" d="M1677.16,1181.55s125.56,48.63,166.23,48.63,158.59-53,158.59-53-168.31-4.08-187.77-25.47C1770.89,1165.63,1677.16,1181.55,1677.16,1181.55Z"/><path class="cls-31" d="M1598,1117s-207.14-82-210.59-100.56c12.26,51.16,35.17,96.91,35.17,96.91s167.38,79.32,219.39,67.5C1624.83,1147,1598,1117,1598,1117Z"/><path class="cls-3" d="M1688,1064.53l54.29,58.85s-171,53.81-239.1,0c-52.38-41-55.24-82.39-55.24-82.39S1570.86,1133.8,1688,1064.53Z"/><path class="cls-32" d="M892,402.23l91.41-38.66a8.43,8.43,0,0,1,10.75,3.83h0a8.44,8.44,0,0,1-5.07,12l-95.19,28.09a2.81,2.81,0,0,1-3-1h0A2.81,2.81,0,0,1,892,402.23Z"/><path class="cls-32" d="M881.66,473.89l89.43,43.05A8.44,8.44,0,0,0,982,513.63h0a8.44,8.44,0,0,0-4.49-12.26L883.8,468.69a2.83,2.83,0,0,0-3.08.85h0A2.82,2.82,0,0,0,881.66,473.89Z"/><path class="cls-32" d="M902.36,439.06l111.17-7a8.81,8.81,0,0,1,9.36,8.36h0c.47,6.13-4.62,11.54-10.55,11.22L902,445.6a2.91,2.91,0,0,1-2.68-2.27h0A3.5,3.5,0,0,1,902.36,439.06Z"/><path class="cls-33" d="M445.91,1346.38a316.35,316.35,0,0,0-3.79,33,14.2,14.2,0,0,0,12.8,15c26.48,2.57,86.76,7.31,125.25,1.76a6.46,6.46,0,0,0,3.55-11.11c-15.87-14.79-54.2-43.55-117.28-49.84Z"/><path class="cls-34" d="M432.75,1312.39l13.39,32.82a10.92,10.92,0,0,0,11.22,6.78,59.91,59.91,0,0,0,10.94-2.11,14.38,14.38,0,0,0,9.56-17.87l-10.11-33.8Z"/><path class="cls-35" d="M203.85,1372.51s26.81,22.43,37.26,51.21A12.24,12.24,0,0,1,229.49,1440H174.32a13,13,0,0,1-12.86-15.22C165,1404.88,175.11,1372.6,203.85,1372.51Z"/><path class="cls-36" d="M170.64,1343.32s5.41,24,9.58,39.81a5.06,5.06,0,0,0,6.62,3.45c8.35-3,15.14-4.3,20.08-3.64a3.9,3.9,0,0,0,4.31-3.9l.52-39.81Z"/><path class="cls-37" d="M309.91,783.86l166.39,517.6s-31.28,20.48-46.18,19.63L236.42,921.27S202.53,1167.62,219,1344.49l-55.47,4.23S73.27,896.75,141.59,742Z"/><path class="cls-38" d="M383.4,601.79s100.87,122.85,138,93.25-66.55-200.8-66.55-200.8Z"/><path class="cls-39" d="M552.17,574.1s-54.08,56.23-66.58,76.63,1.41,57.54,29.8,48.92,61.44-106.19,61.44-106.19Z"/><path class="cls-40" d="M460.05,484.36l1-1.13-9.93-45s-7.65-36.23-104-37.78c0,0-132.12,10.49-113.43,94.71,0,0-70.8,120.36-101,267.8-2.22,10.83,181.35,47.79,183.59,35.9l104-181.63Z"/><path class="cls-41" d="M461.64,494.24s47.53,125.36,62.55,151.44c17.43,30.27,68.34,11,65.81-14.36s-62-130-62-130Z"/><polygon class="cls-42" points="525.86 402.93 821.29 300.5 818.19 577.69 517.79 510.66 525.86 402.93"/><ellipse class="cls-43" cx="821.57" cy="439.9" rx="29.02" ry="142.45"/><path class="cls-44" d="M823.77,572.6c-2.62-2.66-8.34-13-13.24-39.57-4.73-25.72-7.34-59.08-7.34-93.94s2.61-68.22,7.34-93.94c4.9-26.61,10.62-36.9,13.24-39.57,2.63,2.67,8.34,13,13.24,39.57,4.73,25.72,7.34,59.09,7.34,93.94S841.74,507.31,837,533C832.11,559.64,826.4,569.94,823.77,572.6Z"/><g class="cls-45"><path class="cls-46" d="M861,438c0,24.2-13,43.83-38.84,43.83S775.4,462.23,775.4,438s20.92-43.82,46.73-43.82S861,413.83,861,438Z"/></g><path class="cls-47" d="M478.21,397a165.25,165.25,0,0,1,55.38,2.74c-7.1,37.08-6,75.73,2.18,115.75H475a19.7,19.7,0,0,1-19.47-16.61c-3-19.19-6.73-51.43-2.78-77.33A29.14,29.14,0,0,1,478.21,397Z"/><path class="cls-5" d="M514.69,426.07H467.34a5,5,0,0,1-4.22-7.75,1.92,1.92,0,1,1,3.23,2.09,1.18,1.18,0,0,0,1,1.82h47.35a1.18,1.18,0,0,0,1.18-1.18v-3.37a1.18,1.18,0,0,0-1.18-1.18H467a1.92,1.92,0,1,1,0-3.84h47.7a5,5,0,0,1,5,5v3.37A5,5,0,0,1,514.69,426.07Z"/><path class="cls-5" d="M510.47,447H463.12a5,5,0,0,1-4.22-7.75,1.92,1.92,0,0,1,3.23,2.09,1.18,1.18,0,0,0,1,1.82h47.35a1.17,1.17,0,0,0,1.17-1.18v-3.37a1.17,1.17,0,0,0-1.17-1.18H462.76a1.92,1.92,0,1,1,0-3.84h47.71a5,5,0,0,1,5,5V442A5,5,0,0,1,510.47,447Z"/><path class="cls-48" d="M568.79,396.13a1.93,1.93,0,0,1-.58-3.76L792,321.17a1.93,1.93,0,1,1,1.17,3.67L569.37,396A2,2,0,0,1,568.79,396.13Z"/><path class="cls-48" d="M538.53,408.5a1.93,1.93,0,0,1-.73-3.71l11.52-4.7a1.92,1.92,0,0,1,1.46,3.56l-11.52,4.71A2.06,2.06,0,0,1,538.53,408.5Z"/><path class="cls-5" d="M514.69,471.61H467.34a5,5,0,0,1-4.22-7.76,1.92,1.92,0,1,1,3.23,2.09,1.18,1.18,0,0,0,1,1.82h47.35a1.18,1.18,0,0,0,1.18-1.18v-3.37a1.18,1.18,0,0,0-1.18-1.18H467a1.92,1.92,0,1,1,0-3.84h47.7a5,5,0,0,1,5,5v3.37A5,5,0,0,1,514.69,471.61Z"/><path class="cls-5" d="M519.12,498.87H471.77a5,5,0,0,1-4.22-7.76,1.92,1.92,0,0,1,3.23,2.09,1.15,1.15,0,0,0,0,1.2,1.14,1.14,0,0,0,1,.62h47.35a1.18,1.18,0,0,0,1.18-1.18v-3.37a1.17,1.17,0,0,0-1.18-1.17h-47.7a1.93,1.93,0,0,1,0-3.85h47.7a5,5,0,0,1,5,5v3.37A5,5,0,0,1,519.12,498.87Z"/><path class="cls-5" d="M561.41,647.08a31.75,31.75,0,0,1-6.74-.73,31.18,31.18,0,0,1-22-17.82l-37.83-84a1.92,1.92,0,0,1,3.51-1.58L536.19,627a27.34,27.34,0,0,0,19.3,15.63,26.83,26.83,0,0,0,23.58-6c.35-.31.71-.63,1.06-1a1.93,1.93,0,1,1,2.6,2.84c-.38.35-.76.68-1.13,1A30.5,30.5,0,0,1,561.41,647.08Z"/><path class="cls-5" d="M491,533.2a1.93,1.93,0,0,1-1.76-1.14L485,522.69a1.92,1.92,0,1,1,3.51-1.58l4.22,9.37a1.93,1.93,0,0,1-1,2.55A2,2,0,0,1,491,533.2Z"/><path class="cls-5" d="M854.05,437.47a1.91,1.91,0,0,1-1.91-1.78c-.83-11.64-4.84-20.31-11.92-25.76-12.28-9.44-30-6.21-30.13-6.17a1.92,1.92,0,0,1-.73-3.78c.79-.15,19.51-3.61,33.18,6.89,8,6.14,12.53,15.75,13.43,28.54a1.93,1.93,0,0,1-1.78,2.06Z"/><path class="cls-49" d="M531.69,541.78s15.41-13.08,27.46,0,14.42,35.91,12,37S494.21,561.43,531.69,541.78Z"/><path class="cls-50" d="M542.68,854.1l10.07-7.64A23.91,23.91,0,0,0,562.21,828L564,757s7.57-3.88,18.16,8.09,25,2.87,25,2.87-15.83-15.85-40.07-38.66c-13.86-13-31.15-16.81-43.43-17.66l-220.33-79-7.55,23.32c-6.79,27.13,42.53,63,70.26,66.65l142.64,12.74C511.5,777.64,523.66,817,542.68,854.1Z"/><path class="cls-51" d="M228,501.19c20.06,120.25,55.4,215.94,144.76,223.45-9.21-23.41-.67-45.7,17.24-61.43C351.12,637.68,317.47,574,321.37,518,302.72,411.79,226.39,422,228,501.19Z"/><path class="cls-52" d="M357.34,343.3,330.1,422.07a2.85,2.85,0,0,0,1.29,3.42c7.43,4.11,34.18,16,66.42-4.47a13.38,13.38,0,0,0,6.15-9.54l8.82-68.18Z"/><path class="cls-53" d="M415.23,269.59s33.69,63.41,29.37,89-46.07,23.77-82.52,3L336.6,293.12Z"/><path class="cls-54" d="M363.69,328a2.61,2.61,0,0,0,1.14-3.82c-2.7-4.13-7.76-12.54-9.37-19.9,0,0-6.06-3.88,15.41-9s53.48-13.11,60.21-31.39c6.57-17.82-10.67-62.62-38.18-26.92a2.61,2.61,0,0,1-4.14,0c-4.51-5.87-16.36-18.05-32.82-10.67-15.4,6.91-17.13,18.2-16.92,23.89a2.6,2.6,0,0,1-3.08,2.66c-7.79-1.49-26.47-2.76-35.19,16.4-7.19,15.79-2.52,24.73,1.73,29.1a2.61,2.61,0,0,1-1.11,4.33c-5.12,1.56-11.73,5.9-11.06,17.89.91,16.58,19.44,15.12,24.72,14.36a2.63,2.63,0,0,1,2.32.82c4.52,5,24.91,26.27,47,28.83a2.64,2.64,0,0,0,2.76-3.49l-9.55-27.75a2.63,2.63,0,0,1,1.42-3.25Z"/><path class="cls-55" d="M367.52,331.9s-24-16.46-25.73-2.6,21.6,20.08,33.16,14.91Z"/><path class="cls-32" d="M2027.38,470.68c-2,84.09-97.38,134.52-166,140.42-12.63,1.09-90.73,7.82-129.45-46-28.11-39.09-18.36-86.32-16.69-94.4,16.94-82,118.55-164.38,211.35-133.82C1980.56,354.63,2028.82,409.7,2027.38,470.68Z"/><path class="cls-56" d="M1885,537.73c-.1-1.22-1.32-2.27-3.38-3.11,2.24-1.27,3.48-2.62,3.38-3.94-.32-4-12.75-6.26-27.78-5s-26.94,5.49-26.62,9.5c.09,1.21,1.31,2.27,3.37,3.11-2.24,1.26-3.48,2.61-3.37,3.94s1.31,2.27,3.37,3.11c-2.24,1.26-3.48,2.62-3.37,3.94s1.31,2.27,3.37,3.11c-2.24,1.27-3.48,2.62-3.37,3.94.14,1.78,2.65,3.2,6.71,4.14a34,34,0,0,0,.1,4.33c.59,7.39,8.72,13.19,19.49,13.19s20.08-7.9,20.19-15.32a37.45,37.45,0,0,0-.22-4.83c5.15-1.76,8.29-3.91,8.13-6-.1-1.21-1.32-2.27-3.38-3.11,2.24-1.26,3.48-2.61,3.38-3.94s-1.32-2.27-3.38-3.11C1883.81,540.41,1885.05,539.05,1885,537.73Z"/><path class="cls-57" d="M1896.73,398.22v33.61l-14.18-26.36-23.82,22.47,10-33.62-31.71,8.77,28-32q-2.34-.33-4.68-.54c-33.47-2.81-70.15,17.9-67.78,59.25,1.64,28.43,14.9,49.27,23,59.51a46.1,46.1,0,0,1,8.27,16.14c3.45,12.22,12.45,32.42,34.12,31.37,16.75-.81,23.79-14.13,26.75-24.82a54.86,54.86,0,0,1,13.15-23.3c9.87-10.31,23.12-28.27,25.34-51.94a59.33,59.33,0,0,0,.08-10.48Z"/><path class="cls-58" d="M1864.1,533.67,1877,448.06c.27-1.77,1.12-2.95,1.91-2.65s1.2,2,.94,3.75l0,.15-14.68,84.81c-.11.64-.42,1-.71.9S1864,534.29,1864.1,533.67Z"/><path class="cls-59" d="M1850.72,534.35l-12.88-85.61c-.27-1.77-1.12-2.95-1.91-2.65s-1.2,2-.94,3.75l0,.15,14.68,84.81c.11.64.42,1,.7.9S1850.81,535,1850.72,534.35Z"/><path class="cls-60" d="M1876.89,440.71a1.33,1.33,0,0,0-1.69-.45l-7.18,3.43-2.49-7.25a1.54,1.54,0,0,0-.87-.9,1.75,1.75,0,0,0-2.2.7l0,0-5.9,11-5.47-15.64v0a1.83,1.83,0,0,0-.83-1,2.13,2.13,0,0,0-2.71.55l-8.25,11.6a1,1,0,0,0,.29,1.46,1.37,1.37,0,0,0,1.76-.19l7.26-8.28,6.54,14.88v0a1.23,1.23,0,0,0,.58.57,1.34,1.34,0,0,0,1.71-.45l6.31-10.34,2.38,5.23,0,.05s0,.07.06.11a1.33,1.33,0,0,0,1.69.44l8.51-4.06A1,1,0,0,0,1876.89,440.71Z"/><path class="cls-60" d="M1902.2,477.58a1.48,1.48,0,0,1-.85-.27,1.45,1.45,0,0,1-.32-2,96.39,96.39,0,0,0,6-9.3,1.44,1.44,0,0,1,2.51,1.42,100.15,100.15,0,0,1-6.17,9.57A1.42,1.42,0,0,1,1902.2,477.58Z"/><path class="cls-32" d="M1884.85,875.33c3.28,43.75-19.53,88.81-54.15,111.67-91.36,60.3-271.53-29.67-274.17-111.67-2-62.22,97.47-142.16,193.62-127.1C1810.43,757.67,1879.67,806.06,1884.85,875.33Z"/><path class="cls-31" d="M1830.83,953.55l-139.38-12.37a11,11,0,0,1-10-10.89l-.52-94a11,11,0,0,1,11.76-11l148.42,10.33a11,11,0,0,1,10.18,11.94l-8.52,96A11,11,0,0,1,1830.83,953.55Z"/><path class="cls-61" d="M1689.09,845.41l-.93,81.14a6.8,6.8,0,0,0,6.13,6.85l133.65,13.27a6.79,6.79,0,0,0,7.44-6.16l7.7-86.76a6.79,6.79,0,0,0-6.4-7.39l-140.42-7.66A6.79,6.79,0,0,0,1689.09,845.41Z"/><path class="cls-31" d="M1752.44,916.31l75.64,4.43a1.39,1.39,0,0,1,1.29,1.5l-.11,1.22a1.37,1.37,0,0,1-1.47,1.25l-75.53-5.66a1.37,1.37,0,0,1-1.27-1.49h0A1.37,1.37,0,0,1,1752.44,916.31Z"/><rect class="cls-31" x="1787.86" y="888.37" width="3.27" height="78.49" rx="1.38" transform="translate(707.46 2628.19) rotate(-84.93)"/><path class="cls-31" d="M1772.73,932.68l0,.23a1.38,1.38,0,0,0,1.25,1.49l52.54,4.66a1.38,1.38,0,0,0,1.49-1.25l.09-1.07a1.37,1.37,0,0,0-1.27-1.49l-52.61-3.82A1.37,1.37,0,0,0,1772.73,932.68Z"/><path class="cls-5" d="M1819.14,920l-164.48-3.35a12.92,12.92,0,0,1-12.63-12l-8.13-110.19a12.93,12.93,0,0,1,12.91-13.88l174.92.23A12.92,12.92,0,0,1,1834.64,794l-2.31,113.31A12.92,12.92,0,0,1,1819.14,920Z"/><path class="cls-3" d="M1644.21,804.48l5.42,95.26a8,8,0,0,0,7.74,7.53l157.83,4.87a8,8,0,0,0,8.24-7.83l2.09-102.39a8,8,0,0,0-8.11-8.15L1652.09,796A8,8,0,0,0,1644.21,804.48Z"/><path class="cls-5" d="M1724.21,882.57l89.08-.85a1.62,1.62,0,0,1,1.64,1.65l0,1.43a1.63,1.63,0,0,1-1.63,1.59l-89-.59a1.61,1.61,0,0,1-1.61-1.65h0A1.62,1.62,0,0,1,1724.21,882.57Z"/><rect class="cls-5" x="1766.66" y="846.72" width="3.85" height="92.28" rx="1.62" transform="translate(839.73 2642.81) rotate(-88.83)"/><path class="cls-5" d="M1749.32,900.15v.27a1.62,1.62,0,0,0,1.59,1.65l62,1.26a1.62,1.62,0,0,0,1.65-1.59l0-1.26a1.62,1.62,0,0,0-1.61-1.65l-62-.27A1.61,1.61,0,0,0,1749.32,900.15Z"/><path class="cls-31" d="M1794.06,898.36H1611.58a14.33,14.33,0,0,1-14.27-13l-11.5-122a14.34,14.34,0,0,1,14-15.69l194-3.69a14.34,14.34,0,0,1,14.61,14.34V884A14.34,14.34,0,0,1,1794.06,898.36Z"/><path class="cls-62" d="M1597.47,774.23l8.16,105.51a8.86,8.86,0,0,0,8.75,8.18l175.14,1.84a8.88,8.88,0,0,0,9-8.87V767.3a8.87,8.87,0,0,0-9.17-8.86L1606,764.68A8.88,8.88,0,0,0,1597.47,774.23Z"/><path class="cls-31" d="M1691,773.27l98.77-3a1.8,1.8,0,0,1,1.85,1.8v1.59a1.79,1.79,0,0,1-1.77,1.79l-98.77,1.37a1.8,1.8,0,0,1-1.82-1.8h0A1.78,1.78,0,0,1,1691,773.27Z"/><rect class="cls-31" x="1689.23" y="781.54" width="102.36" height="4.27" rx="1.8"/><path class="cls-31" d="M1732.62,872.16a.82.82,0,0,1-.81-.81v-2.42a.8.8,0,0,1,.8-.8h0a.8.8,0,0,1,.8.8v2.42a.8.8,0,0,1-.8.81Zm0-8.06a.81.81,0,0,1-.81-.81v-2.42a.8.8,0,0,1,.8-.8h0a.8.8,0,0,1,.8.81v2.41a.8.8,0,0,1-.8.81Zm0-8.06a.81.81,0,0,1-.81-.81v-2.42a.8.8,0,0,1,.81-.8h0a.8.8,0,0,1,.8.81v2.42a.8.8,0,0,1-.8.8Zm0-8.06a.81.81,0,0,1-.81-.81v-2.41a.81.81,0,0,1,.81-.81h0a.81.81,0,0,1,.8.81v2.42a.82.82,0,0,1-.81.8Z"/><path class="cls-31" d="M1691.34,869.05v-2.41a.81.81,0,1,1,1.61,0v2.41a.81.81,0,1,1-1.61,0Zm0-8v-2.42a.81.81,0,1,1,1.61,0V861a.81.81,0,0,1-1.61,0Zm0-8.06v-2.42a.81.81,0,1,1,1.61,0v2.42a.81.81,0,0,1-1.61,0Zm0-8.06v-2.42a.81.81,0,0,1,1.61,0v2.42a.81.81,0,1,1-1.61,0Zm0-8.06V834.4a.81.81,0,0,1,1.61,0v2.42a.81.81,0,1,1-1.61,0Z"/><path class="cls-31" d="M1661.25,876.52a.82.82,0,0,1-.78-.83l0-1.45a.79.79,0,0,1,.83-.78.82.82,0,0,1,.78.83l-.05,1.45a.81.81,0,0,1-.8.78Zm.22-7.08a.82.82,0,0,1-.78-.83l.08-2.42a.81.81,0,0,1,1.61,0l-.08,2.42a.81.81,0,0,1-.8.78Zm.25-8.06a.81.81,0,0,1-.78-.83l.08-2.41a.82.82,0,0,1,.83-.78.81.81,0,0,1,.78.83l-.08,2.41a.8.8,0,0,1-.8.78Zm.25-8a.81.81,0,0,1-.78-.83l.08-2.42a.81.81,0,0,1,1.61,0l-.08,2.42a.81.81,0,0,1-.8.78Zm.25-8.05a.82.82,0,0,1-.78-.84l.08-2.41a.81.81,0,0,1,1.61.05l-.08,2.41a.81.81,0,0,1-.8.79Zm.25-8.06a.81.81,0,0,1-.78-.83l.08-2.42a.8.8,0,0,1,.83-.78.82.82,0,0,1,.78.83l-.08,2.42a.8.8,0,0,1-.8.78Zm.25-8.05a.82.82,0,0,1-.78-.83l.08-2.42a.79.79,0,0,1,.83-.78.81.81,0,0,1,.78.83l-.08,2.42a.81.81,0,0,1-.8.78Z"/><path class="cls-31" d="M1631.13,871.2v-2.42a.81.81,0,0,1,1.61,0v2.42a.81.81,0,1,1-1.61,0Zm0-8.06v-2.41a.81.81,0,1,1,1.61,0v2.41a.81.81,0,1,1-1.61,0Zm0-8v-2.42a.81.81,0,1,1,1.61,0v2.42a.81.81,0,0,1-1.61,0Zm0-8.06v-2.42a.81.81,0,1,1,1.61,0V847a.81.81,0,0,1-1.61,0Zm0-8.06v-2.42a.81.81,0,0,1,1.61,0V839a.81.81,0,1,1-1.61,0Zm0-8.06v-2.42a.81.81,0,0,1,1.61,0v2.42a.81.81,0,1,1-1.61,0Zm0-8.06v-2.41a.81.81,0,1,1,1.61,0v2.41a.81.81,0,1,1-1.61,0Zm0-8.05v-2.42a.81.81,0,1,1,1.61,0v2.42a.81.81,0,0,1-1.61,0Zm0-8.06v-2.42a.81.81,0,1,1,1.61,0v2.42a.81.81,0,0,1-1.61,0Z"/><path class="cls-31" d="M1621.79,881.52a1.22,1.22,0,0,1-1.21-1.11l-8.26-97.55a1.21,1.21,0,0,1,2.41-.21l8.26,97.56a1.21,1.21,0,0,1-1.1,1.31Z"/><polygon class="cls-31" points="1609.85 787.9 1613.59 783.47 1618.02 787.21 1617.72 783.74 1613.3 780 1609.56 784.43 1609.85 787.9"/><path class="cls-31" d="M1785.5,876.92h-170a1.21,1.21,0,0,1,0-2.42h170a1.21,1.21,0,0,1,0,2.42Z"/><polygon class="cls-31" points="1780.68 879.81 1784.78 875.71 1780.68 871.61 1784.16 871.61 1788.26 875.71 1784.16 879.81 1780.68 879.81"/><path class="cls-31" d="M1768.87,848.89a1.21,1.21,0,0,0,.16-2.41c-.9-.12-89.89-12.3-138.61-48.22a1.21,1.21,0,1,0-1.43,1.94c49.22,36.29,138.82,48.56,139.72,48.68Z"/><path class="cls-31" d="M1768.65,842.06l-.08.06a1.21,1.21,0,0,0-.15,1.7l3,3.66-5.24,4.19a1.21,1.21,0,1,0,1.51,1.89l6.2-5a1.19,1.19,0,0,0,.45-.82,1.24,1.24,0,0,0-.27-.89l-3.83-4.61A1.21,1.21,0,0,0,1768.65,842.06Z"/><path class="cls-32" d="M1896.32,171c6.91,55.28-59,122.91-133.07,136.29-78.86,14.25-168.65-32.71-186.69-107.58-9.87-41,1.33-92,34.27-120.65C1690.93,9.26,1885.42,83.73,1896.32,171Z"/><path class="cls-63" d="M1630.74,84.45h214.43a0,0,0,0,1,0,0V249.8a16.76,16.76,0,0,1-16.76,16.76H1647.5a16.76,16.76,0,0,1-16.76-16.76V84.45A0,0,0,0,1,1630.74,84.45Z"/><path class="cls-31" d="M1828.42,244H1647.5a16.76,16.76,0,0,1-16.76-16.75V84h214.43V227.29A16.75,16.75,0,0,1,1828.42,244Z"/><rect class="cls-64" x="1643.09" y="90.97" width="7.38" height="12.55"/><rect class="cls-65" x="1659.7" y="90.97" width="7.38" height="12.55"/><rect class="cls-66" x="1674.37" y="90.97" width="7.38" height="12.55"/><rect class="cls-67" x="1690.98" y="90.97" width="7.38" height="12.55"/><rect class="cls-68" x="1705.66" y="90.97" width="7.38" height="12.55"/><rect class="cls-69" x="1722.27" y="90.97" width="7.38" height="12.55"/><rect class="cls-70" x="1736.94" y="90.97" width="7.38" height="12.55"/><rect class="cls-71" x="1753.55" y="90.97" width="7.38" height="12.55"/><rect class="cls-72" x="1768.22" y="90.97" width="7.38" height="12.55"/><rect class="cls-73" x="1784.83" y="90.97" width="7.38" height="12.55"/><rect class="cls-74" x="1799.51" y="90.97" width="7.38" height="12.55"/><rect class="cls-75" x="1816.12" y="90.97" width="7.38" height="12.55"/><rect class="cls-76" x="1726.18" y="110.01" width="22.28" height="22.28"/><rect class="cls-77" x="1753.26" y="110.01" width="22.28" height="22.28"/><rect class="cls-78" x="1780.06" y="110.01" width="22.28" height="22.28"/><rect class="cls-79" x="1806.65" y="110.01" width="22.28" height="22.28"/><rect class="cls-80" x="1645.74" y="138.03" width="22.28" height="22.28"/><rect class="cls-81" x="1672.54" y="138.03" width="22.28" height="22.28"/><rect class="cls-82" x="1699.13" y="138.03" width="22.28" height="22.28"/><rect class="cls-83" x="1726.15" y="138.03" width="22.28" height="22.28"/><rect class="cls-84" x="1753.23" y="138.03" width="22.28" height="22.28"/><rect class="cls-85" x="1780.04" y="138.03" width="22.28" height="22.28"/><rect class="cls-86" x="1806.62" y="138.03" width="22.28" height="22.28"/><rect class="cls-87" x="1646.4" y="164.72" width="22.28" height="22.28"/><rect class="cls-88" x="1673.2" y="164.72" width="22.28" height="22.28"/><rect class="cls-89" x="1699.79" y="164.72" width="22.28" height="22.28"/><rect class="cls-90" x="1726.81" y="164.72" width="22.28" height="22.28"/><rect class="cls-91" x="1753.89" y="164.72" width="22.28" height="22.28"/><rect class="cls-92" x="1780.7" y="164.72" width="22.28" height="22.28"/><rect class="cls-93" x="1807.28" y="164.72" width="22.28" height="22.28"/><rect class="cls-94" x="1647.06" y="191.09" width="22.28" height="22.28"/><rect class="cls-95" x="1673.87" y="191.09" width="22.28" height="22.28"/><rect class="cls-96" x="1700.45" y="191.09" width="22.28" height="22.28"/><rect class="cls-97" x="1727.48" y="191.09" width="22.28" height="22.28"/><rect class="cls-98" x="1754.56" y="191.09" width="22.28" height="22.28"/><rect class="cls-99" x="1781.36" y="191.09" width="22.28" height="22.28"/><rect class="cls-100" x="1807.95" y="191.09" width="22.28" height="22.28"/><rect class="cls-101" x="1647.06" y="217.39" width="22.28" height="22.28"/><rect class="cls-102" x="1673.87" y="217.39" width="22.28" height="22.28"/><rect class="cls-103" x="1700.45" y="217.39" width="22.28" height="22.28"/><path class="cls-104" d="M1657.67,81h-9.48a4,4,0,0,0-4,4v8.82h2.86V88a4,4,0,0,1,4-4h9.48a3.88,3.88,0,0,1,1,.14A4,4,0,0,0,1657.67,81Z"/><path class="cls-105" d="M1676.08,81h-9.48a4,4,0,0,0-4,4v8.82h2.87V88a4,4,0,0,1,4-4H1679a3.94,3.94,0,0,1,1,.14A4,4,0,0,0,1676.08,81Z"/><path class="cls-106" d="M1691.38,81h-9.47a4,4,0,0,0-4,4v8.82h2.86V88a4,4,0,0,1,4-4h9.48a3.88,3.88,0,0,1,1,.14A4,4,0,0,0,1691.38,81Z"/><path class="cls-107" d="M1707.15,81h-9.48a4,4,0,0,0-4,4v8.82h2.86V88a4,4,0,0,1,4-4H1710a3.94,3.94,0,0,1,1,.14A4,4,0,0,0,1707.15,81Z"/><path class="cls-108" d="M1721.73,81h-9.48a4,4,0,0,0-4,4v8.82h2.87V88a4,4,0,0,1,4-4h9.48a3.88,3.88,0,0,1,1,.14A4,4,0,0,0,1721.73,81Z"/><path class="cls-109" d="M1737.5,81H1728a4,4,0,0,0-4,4v8.82h2.86V88a4,4,0,0,1,4-4h9.48a3.88,3.88,0,0,1,1,.14A4,4,0,0,0,1737.5,81Z"/><path class="cls-110" d="M1752.8,81h-9.48a4,4,0,0,0-4,4v8.82h2.87V88a4,4,0,0,1,4-4h9.48a3.94,3.94,0,0,1,1,.14A4,4,0,0,0,1752.8,81Z"/><path class="cls-111" d="M1769.89,81h-9.48a4,4,0,0,0-4,4v8.82h2.87V88a4,4,0,0,1,4-4h9.48a3.94,3.94,0,0,1,1,.14A4,4,0,0,0,1769.89,81Z"/><path class="cls-112" d="M1784.63,80.83h-9.48a4,4,0,0,0-4,4v8.82h2.87V87.89a4,4,0,0,1,4-4h9.47a3.88,3.88,0,0,1,1,.14A4,4,0,0,0,1784.63,80.83Z"/><path class="cls-113" d="M1799.93,80.83h-9.47a4,4,0,0,0-4,4v8.82h2.86V87.89a4,4,0,0,1,4-4h9.48a3.88,3.88,0,0,1,1,.14A4,4,0,0,0,1799.93,80.83Z"/><path class="cls-114" d="M1830.25,81.19h-9.48a4,4,0,0,0-4,4V94h2.86V88.25a4,4,0,0,1,4-4h9.48a3.88,3.88,0,0,1,1,.14A4,4,0,0,0,1830.25,81.19Z"/><path class="cls-115" d="M1817,80.83h-9.47a4,4,0,0,0-4,4v8.82h2.86V87.89a4,4,0,0,1,4-4h9.48a3.88,3.88,0,0,1,1,.14A4,4,0,0,0,1817,80.83Z"/><path class="cls-116" d="M1400.54,1316.75c-.24,0-.48,0-.72,0l-315.68-.34a14.13,14.13,0,1,1,0-28.26l315.68.34a14.13,14.13,0,0,1,.69,28.24Z"/><path class="cls-117" d="M800.35,1030.14h262.9a50.1,50.1,0,0,1,45.32,28.73l121.54,257.72H903.4a30.47,30.47,0,0,1-28.33-19.26l-94.24-238.48A21,21,0,0,1,800.35,1030.14Z"/><path class="cls-5" d="M585.64,965.5s-168.36,38.42-178.7,28.08c30.27,27.32,65,46.52,65,46.52S613.69,1017.4,641.75,987C615.9,972.9,585.64,965.5,585.64,965.5Z"/><path class="cls-118" d="M466.38,957.19l42.09,45.61s-132.55,41.71-185.34,0c-40.61-31.74-42.82-63.86-42.82-63.86S375.56,1010.88,466.38,957.19Z"/><polygon class="cls-31" points="741.58 1074.8 906.38 1062.8 899.88 1068.52 899.88 1075.17 877.44 1075.17 882.61 1084.03 910.67 1084.03 900.33 1100.64 898.12 1174.85 881.87 1174.85 896.64 1194.05 898.12 1298.9 910.67 1301.85 899.59 1306.28 900.33 1327.69 746.75 1354.28 712.78 1250.9 708.35 1102.49 741.58 1074.8"/><polygon class="cls-5" points="630.59 1049.69 742.6 1074.43 742.6 1130.55 714.4 1120.21 715.8 1127.59 742.35 1140.88 746.17 1204.38 713.8 1190.36 713.8 1197 747.03 1216.2 747.03 1263.46 716.61 1247.21 718.16 1256.81 747.03 1272.32 747.03 1354.28 647.95 1298.9 644.92 1264.93 622.73 1253.12 638.96 1241.3 638.21 1191.09 622.7 1168.2 633.78 1160.82 633.04 1091.41 622.7 1075.91 631.63 1059.66 630.59 1049.69"/><polygon class="cls-119" points="633.77 1049.69 766.13 1035.85 906.24 1062.8 742.32 1074.43 633.77 1049.69"/><g class="cls-28"><polygon class="cls-3" points="770.01 1126.12 899.83 1117.28 899.64 1123.92 770.01 1126.12"/><path class="cls-3" d="M791.05,1208.54c2.21-1.57,105.7-6.55,105.7-6.55l.16,11.09Z"/></g><path class="cls-31" d="M622.7,1035.85l124,27s146.94-3.88,159.49-31.94c-21.42,6.65-141.77-14.76-141.77-14.76Z"/><path class="cls-3" d="M625.65,1005s104.85,40.61,138.82,40.61,132.44-44.3,132.44-44.3-140.56-3.4-156.81-21.27C703.92,991.73,625.65,1005,625.65,1005Z"/><path class="cls-5" d="M641.16,994s110.29,32.48,120.12,33.22c15,.74,132.41-58.33,132.41-58.33l-129.22-17S676.6,1000.59,641.16,994Z"/><path class="cls-60" d="M636.54,1111.16c-1.7-5,78.64,30.46,78.64,30.46l-12.18,5S640,1121.12,636.54,1111.16Z"/><path class="cls-60" d="M730.13,1224.69c2.22.09-84.17-30.46-84.17-30.46S688.6,1223,730.13,1224.69Z"/><path class="cls-32" d="M918.41,1069.91l7.51-.38a2.6,2.6,0,1,1,.26,5.19H926l-7.39.15h-.06a2.49,2.49,0,0,1-.18-5Z"/><path class="cls-32" d="M943.46,1069.35l7.52.22a3,3,0,0,1-.18,6h-.17l-7.36-.45h-.07a2.87,2.87,0,0,1,.26-5.73Z"/><path class="cls-32" d="M968.49,1070.84l7.48.84a3.3,3.3,0,0,1-.74,6.55h-.15l-7.31-1h-.07a3.21,3.21,0,0,1,.79-6.37Z"/><path class="cls-32" d="M993.33,1074.28l7.39,1.39a3.58,3.58,0,1,1-1.31,7h-.07l-.09,0-7.21-1.52H992a3.5,3.5,0,0,1,1.36-6.87Z"/><path class="cls-32" d="M1017.87,1079.47l7.28,1.87a3.87,3.87,0,1,1-1.92,7.5l-.07,0-.09,0-7.1-2-.07,0a3.79,3.79,0,0,1,2-7.31Z"/><path class="cls-32" d="M1042,1086.21l7.16,2.28a4.16,4.16,0,0,1-2.53,7.93l-.08,0-.08,0-7-2.4-.07,0a4.07,4.07,0,0,1,2.57-7.72Z"/><path class="cls-32" d="M1065.73,1094.28l7,2.65a4.44,4.44,0,0,1-3.14,8.3l-.07,0-.08,0-6.85-2.76-.06,0a4.36,4.36,0,0,1,3.17-8.12Z"/><path class="cls-32" d="M1089,1103.55l6.89,3a4.61,4.61,0,0,1-3.66,8.47l0,0-.07,0-6.75-3,0,0a4.56,4.56,0,0,1,3.68-8.34Z"/><path class="cls-32" d="M1111.79,1113.78l6.77,3.23a4.79,4.79,0,0,1-4.12,8.64l0,0-.06,0-6.64-3.28,0,0a4.73,4.73,0,0,1,4.13-8.52Z"/><path class="cls-32" d="M1134.23,1124.77l6.67,3.42a5,5,0,1,1-4.53,8.83l0,0-.06,0-6.55-3.48h0a4.91,4.91,0,0,1,4.54-8.71Z"/><path class="cls-32" d="M1156.34,1136.35l6.58,3.56a5.14,5.14,0,1,1-4.9,9l0,0,0,0-6.47-3.63h0a5.09,5.09,0,0,1,4.91-8.91Z"/><path class="cls-32" d="M1178.19,1148.37l6.51,3.68a5.31,5.31,0,1,1-5.22,9.25l0,0,0,0-6.43-3.74h0a5.26,5.26,0,0,1,5.24-9.13Z"/><path class="cls-32" d="M1199.83,1160.7l6.46,3.74a5.49,5.49,0,1,1-5.49,9.5l0,0,0,0-6.39-3.82a5.44,5.44,0,0,1,5.5-9.38Z"/><path class="cls-32" d="M1221.34,1173.22l6.43,3.77a5.66,5.66,0,1,1-5.73,9.77l-.07,0-6.37-3.86a5.61,5.61,0,0,1,5.74-9.64Z"/><path class="cls-32" d="M1242.76,1185.8l6.41,3.8a5.79,5.79,0,1,1-5.89,10l0,0-6.4-3.83a5.77,5.77,0,0,1,5.91-9.92Z"/><path class="cls-32" d="M1264.14,1198.43l6.41,3.75a5.85,5.85,0,1,1-5.89,10.1h0l-6.42-3.81a5.83,5.83,0,0,1,5.93-10Z"/><path class="cls-32" d="M1285.57,1210.87l6.45,3.67,0,0a5.91,5.91,0,0,1-5.85,10.26l0,0-6.48-3.73a5.89,5.89,0,1,1,5.89-10.2Z"/><path class="cls-32" d="M1307.12,1223l6.51,3.57h0a6,6,0,0,1-5.73,10.46h0l-6.55-3.63a5.95,5.95,0,0,1,5.77-10.4Z"/><path class="cls-32" d="M1328.88,1234.73l6.58,3.41,0,0a6,6,0,1,1-5.55,10.68h0l-6.64-3.49a6,6,0,1,1,5.58-10.63Z"/><path class="cls-32" d="M1350.9,1245.89l6.66,3.21.06,0a6.08,6.08,0,0,1-5.28,10.95h0l-6.76-3.3a6.06,6.06,0,1,1,5.32-10.9Z"/><path class="cls-32" d="M1373.21,1256.29l6.77,3,.06,0a6.14,6.14,0,0,1-4.91,11.25l0,0-6.88-3a6.12,6.12,0,1,1,5-11.19Z"/><path class="cls-32" d="M1395.89,1265.86l6.87,2.7.07,0a6.2,6.2,0,1,1-4.54,11.53h0l-7-2.79a6.18,6.18,0,0,1,4.57-11.48Z"/><path class="cls-32" d="M1418.91,1274.56l7,2.44.06,0a6.26,6.26,0,1,1-4.13,11.81h0l-7.1-2.52a6.24,6.24,0,0,1,4.18-11.75Z"/><path class="cls-32" d="M1442.24,1282.37l7,2.17.07,0a6.31,6.31,0,1,1-3.7,12.06h0l-7.19-2.25a6.29,6.29,0,1,1,3.75-12Z"/><path class="cls-32" d="M1465.84,1289.26l7.14,1.88.07,0a6.37,6.37,0,0,1-3.25,12.32h0l-7.27-2a6.35,6.35,0,0,1,3.3-12.27Z"/><path class="cls-32" d="M1489.69,1295.25l7.19,1.61.08,0a6.34,6.34,0,0,1-2.76,12.37l-7.35-1.62a6.35,6.35,0,1,1,2.74-12.4h0Z"/><path class="cls-32" d="M1513.74,1300.28l7.26,1.31h.08a6.3,6.3,0,0,1-2.22,12.4l-7.42-1.31a6.31,6.31,0,0,1,2.2-12.43h0Z"/><path class="cls-32" d="M1538,1304.27l7.31,1h.08a6.26,6.26,0,0,1-1.66,12.41l-7.47-1a6.27,6.27,0,1,1,1.64-12.43h.1Z"/><path class="cls-32" d="M1562.37,1307.18l7.34.65h.08a6.22,6.22,0,0,1-1.08,12.4l-7.52-.65a6.23,6.23,0,0,1,1.07-12.42h.11Z"/><path class="cls-32" d="M1586.85,1309l7.36.31h.09a6.19,6.19,0,0,1-.49,12.37l-7.54-.29a6.2,6.2,0,1,1,.48-12.39h.1Z"/><path class="cls-32" d="M1611.39,1309.55l7.36,0h.09a6.15,6.15,0,0,1,.12,12.29l-7.55.08a6.16,6.16,0,1,1-.14-12.31h.12Z"/><path class="cls-32" d="M1635.9,1308.93l7.34-.43h.1a6.11,6.11,0,0,1,.74,12.2l-7.53.47a6.12,6.12,0,1,1-.76-12.22h.11Z"/><path class="cls-32" d="M1660.34,1307l7.31-.82h.1a6.07,6.07,0,0,1,1.38,12.06l-7.5.87a6.09,6.09,0,1,1-1.4-12.09h.11Z"/><path class="cls-32" d="M1684.64,1303.82l7.25-1.22.1,0a6,6,0,0,1,2,11.89l-7.45,1.29a6,6,0,0,1-2-11.92h0Z"/><path class="cls-32" d="M1708.71,1299.26l7.16-1.64.11,0a6,6,0,0,1,2.68,11.69l-7.36,1.7a6,6,0,1,1-2.71-11.7h0Z"/><path class="cls-32" d="M1732.47,1293.32l7-2,.1,0a6,6,0,0,1,3.35,11.44l-7.25,2.13a6,6,0,0,1-3.37-11.45h0Z"/><path class="cls-32" d="M1755.81,1286l6.9-2.49.11,0a5.92,5.92,0,0,1,4,11.13l-7.12,2.59a5.93,5.93,0,0,1-4.06-11.14h0Z"/><path class="cls-32" d="M1778.6,1277.15l6.71-3,.11,0a5.89,5.89,0,0,1,4.75,10.77l-6.93,3.06a5.89,5.89,0,0,1-4.77-10.78h0Z"/><path class="cls-32" d="M1800.75,1266.8l6.51-3.39.1-.05a5.84,5.84,0,0,1,5.41,10.36l-6.7,3.52a5.86,5.86,0,1,1-5.44-10.38h0Z"/><path class="cls-32" d="M1822.19,1255l6.28-3.8.1-.06a5.81,5.81,0,0,1,6,9.93l-6.46,3.94a5.82,5.82,0,0,1-6.06-9.94h0Z"/><path class="cls-32" d="M1842.83,1241.88l6-4.19.09-.07a5.77,5.77,0,0,1,6.61,9.46l-6.2,4.34a5.78,5.78,0,1,1-6.63-9.46Z"/><path class="cls-32" d="M1862.62,1227.48l5.76-4.56.08-.06a5.66,5.66,0,0,1,7.07,8.84l-5.88,4.75a5.7,5.7,0,0,1-7.16-8.87l0,0Z"/><path class="cls-32" d="M1881.47,1211.86l5.45-4.92.08-.07a5.55,5.55,0,0,1,7.47,8.2l-5.57,5.12a5.58,5.58,0,0,1-7.55-8.22l0,0Z"/><path class="cls-32" d="M1899.26,1195.05l5.13-5.26.07-.08a5.43,5.43,0,0,1,7.82,7.54l-5.22,5.47a5.47,5.47,0,0,1-7.91-7.55l0,0Z"/><path class="cls-32" d="M1915.92,1177.11l4.75-5.6.07-.08a5.32,5.32,0,0,1,8.14,6.85l-4.84,5.81a5.36,5.36,0,0,1-8.23-6.86l0,0Z"/><path class="cls-32" d="M1931.32,1158.08l4.36-5.91.06-.08a5.2,5.2,0,0,1,8.4,6.13l-4.43,6.13a5.23,5.23,0,0,1-8.48-6.14l0,0Z"/><path class="cls-32" d="M1945.36,1138l3.92-6.21.06-.09a5.09,5.09,0,0,1,8.63,5.4l-4,6.43a5.12,5.12,0,0,1-8.71-5.4l0,0Z"/><path class="cls-32" d="M1957.91,1117l3.46-6.47.05-.1a5,5,0,0,1,8.8,4.64l-3.51,6.71a5,5,0,1,1-8.87-4.64l0,0Z"/><path class="cls-32" d="M1968.85,1095.15l3-6.72,0-.1a4.86,4.86,0,0,1,8.91,3.86l-3,7a4.89,4.89,0,0,1-9-3.85l0,0Z"/><path class="cls-32" d="M1978.05,1072.5l2.4-6.94,0-.11a4.74,4.74,0,0,1,9,3.06l-2.41,7.18a4.78,4.78,0,0,1-9.06-3v0Z"/><path class="cls-32" d="M1985.37,1049.17l1.82-7.11,0-.11a4.63,4.63,0,0,1,9,2.25l-1.81,7.35a4.66,4.66,0,0,1-9.06-2.22v0Z"/><path class="cls-32" d="M1990.7,1025.32l1.2-7.24,0-.12a4.51,4.51,0,0,1,8.91,1.43l-1.16,7.48a4.55,4.55,0,1,1-9-1.4v0Z"/><path class="cls-32" d="M1993.94,1001.09l.57-7.31v-.12a4.38,4.38,0,0,1,8.74.62l-.48,7.55a4.43,4.43,0,1,1-8.85-.56v-.18Z"/><path class="cls-32" d="M1995,976.73l-.2-7.32v-.13a4.2,4.2,0,0,1,8.39-.3l.32,7.59a4.25,4.25,0,1,1-8.5.36v-.2Z"/><path class="cls-32" d="M1993.4,952.39l-1-7.26,0-.12a4,4,0,0,1,7.93-1.14l1.14,7.49a4.07,4.07,0,0,1-8,1.22v0Z"/><path class="cls-32" d="M1989.2,928.35l-1.77-7.11,0-.13a3.82,3.82,0,0,1,7.4-1.89l1.94,7.32a3.88,3.88,0,0,1-7.5,2v0Z"/><path class="cls-32" d="M1982.39,904.9l-2.56-6.86,0-.12a3.63,3.63,0,0,1,6.78-2.59l2.77,7.06a3.69,3.69,0,0,1-6.88,2.69v0Z"/><path class="cls-32" d="M1972.88,882.44l-3.39-6.48-.07-.13a3.44,3.44,0,0,1,6.08-3.24l3.62,6.67a3.5,3.5,0,1,1-6.15,3.34l0,0Z"/><path class="cls-32" d="M1960.55,861.43l-4.27-5.93-.08-.12a3.25,3.25,0,0,1,5.25-3.84l4.54,6.1a3.31,3.31,0,0,1-5.32,4l0,0Z"/><path class="cls-32" d="M1945.28,842.52l-5.16-5.15-.11-.12a3.05,3.05,0,0,1,4.28-4.36l5.48,5.28a3.13,3.13,0,1,1-4.34,4.5l0,0Z"/><path class="cls-32" d="M1927.08,826.46l-6-4.13-.14-.1a2.81,2.81,0,0,1,3.14-4.65l6.36,4.18a2.88,2.88,0,1,1-3.17,4.82l0,0Z"/><path class="cls-32" d="M1906.19,814.12l-6.71-2.86-.14-.06a2.55,2.55,0,0,1,2-4.72l7.07,2.84a2.64,2.64,0,1,1-2,4.89l0,0Z"/><path class="cls-32" d="M844,829.39l.93,5.63v.06a1.94,1.94,0,1,1-3.83.64v0l-.91-5.75a1.93,1.93,0,0,1,3.8-.62Z"/><path class="cls-32" d="M847.75,848l1.5,5.52,0,.05a2,2,0,1,1-3.89,1.06h0L843.88,849a2,2,0,0,1,3.86-1Z"/><path class="cls-32" d="M853.37,866.24l2,5.35,0,0a2.09,2.09,0,1,1-3.91,1.47h0l-2-5.47a2.06,2.06,0,0,1,3.87-1.44Z"/><path class="cls-32" d="M860.65,883.84l2.49,5.15,0,0a2.16,2.16,0,0,1-3.89,1.88v0l-2.49-5.26a2.14,2.14,0,0,1,3.85-1.85Z"/><path class="cls-32" d="M869.45,900.75l2.91,4.92,0,.05a2.23,2.23,0,0,1-3.84,2.26h0l-2.93-5a2.21,2.21,0,0,1,3.81-2.23Z"/><path class="cls-32" d="M879.6,916.88l3.28,4.69,0,0a2.3,2.3,0,1,1-3.77,2.64h0l-3.31-4.8a2.28,2.28,0,0,1,3.75-2.6Z"/><path class="cls-32" d="M890.94,932.21l3.62,4.43,0,0a2.37,2.37,0,0,1-3.68,3h0l-3.65-4.54a2.35,2.35,0,0,1,3.65-3Z"/><path class="cls-32" d="M903.33,946.71l3.9,4.19,0,0a2.4,2.4,0,0,1-3.51,3.27l-4-4.28a2.39,2.39,0,0,1,3.5-3.25Z"/><path class="cls-32" d="M916.67,960.36l4.17,3.92,0,0a2.42,2.42,0,1,1-3.31,3.53l-4.24-4a2.41,2.41,0,1,1,3.32-3.5Z"/><path class="cls-32" d="M930.87,973.12l4.41,3.65,0,0a2.45,2.45,0,0,1-3.12,3.77l-4.48-3.72a2.44,2.44,0,1,1,3.12-3.75Z"/><path class="cls-32" d="M945.83,985l4.62,3.39,0,0a2.47,2.47,0,1,1-2.93,4l-4.68-3.47A2.46,2.46,0,1,1,945.8,985Z"/><path class="cls-32" d="M961.43,996.05l4.78,3.16,0,0a2.49,2.49,0,0,1-2.75,4.16l-4.85-3.22A2.49,2.49,0,1,1,961.4,996Z"/><path class="cls-32" d="M977.56,1006.32l4.93,2.94h0a2.52,2.52,0,0,1-2.58,4.33l-5-3a2.51,2.51,0,0,1,2.59-4.31Z"/><path class="cls-32" d="M994.14,1015.87l5.05,2.73,0,0a2.54,2.54,0,1,1-2.42,4.47l-5.1-2.78a2.53,2.53,0,1,1,2.42-4.45Z"/><path class="cls-32" d="M1011.1,1024.77l5.14,2.54h0a2.57,2.57,0,0,1-2.28,4.61l-5.19-2.59a2.56,2.56,0,0,1,2.28-4.58Z"/><path class="cls-32" d="M1028.35,1033.07l5.23,2.39h0a2.59,2.59,0,0,1-2.15,4.72l-5.27-2.43a2.59,2.59,0,1,1,2.16-4.7Z"/><path class="cls-32" d="M1045.87,1040.87l5.3,2.26h0a2.62,2.62,0,1,1-2,4.82l-5.33-2.28a2.61,2.61,0,0,1,2-4.8Z"/><path class="cls-32" d="M1063.59,1048.23l5.36,2.15h0a2.64,2.64,0,0,1-2,4.91l-5.38-2.17a2.64,2.64,0,0,1,2-4.89Z"/><path class="cls-32" d="M1081.47,1055.24l5.39,2h0a2.67,2.67,0,0,1-1.89,5l-5.41-2.07a2.66,2.66,0,0,1,1.9-5Z"/><path class="cls-32" d="M1099.47,1062l5.43,2h0a2.69,2.69,0,1,1-1.83,5.06l-5.45-2a2.68,2.68,0,1,1,1.84-5Z"/><path class="cls-32" d="M1117.57,1068.39l5.45,1.87h0a2.71,2.71,0,0,1-1.76,5.13l-5.48-1.89a2.71,2.71,0,1,1,1.77-5.12Z"/><path class="cls-32" d="M1135.76,1074.5l5.49,1.77h0a2.74,2.74,0,0,1-1.68,5.22l-5.52-1.8a2.73,2.73,0,1,1,1.69-5.19Z"/><path class="cls-32" d="M1154.07,1080.24l5.52,1.66h0a2.77,2.77,0,0,1-1.58,5.3l-5.56-1.68a2.76,2.76,0,0,1,1.6-5.28Z"/><path class="cls-32" d="M1172.5,1085.59l5.55,1.52h0a2.79,2.79,0,1,1-1.48,5.37L1171,1091a2.78,2.78,0,0,1,1.48-5.36Z"/><path class="cls-32" d="M1191,1090.49l5.59,1.38h0a2.81,2.81,0,1,1-1.35,5.46l-5.63-1.4a2.8,2.8,0,1,1,1.36-5.44Z"/><path class="cls-32" d="M1209.68,1094.91l5.63,1.23h0a2.81,2.81,0,0,1-1.2,5.5l-5.67-1.24a2.82,2.82,0,1,1,1.2-5.51Z"/><path class="cls-32" d="M1228.45,1098.83l5.65,1.06h0a2.8,2.8,0,0,1-1,5.5l-5.71-1.06a2.8,2.8,0,1,1,1-5.51Z"/><path class="cls-32" d="M1247.32,1102.16l5.67.88h0a2.78,2.78,0,0,1-.85,5.5l-5.73-.88a2.79,2.79,0,0,1,.84-5.51Z"/><path class="cls-32" d="M1266.26,1104.86l5.7.68h0a2.76,2.76,0,0,1-.65,5.49l-5.76-.68a2.77,2.77,0,1,1,.65-5.5Z"/><path class="cls-32" d="M1285.29,1106.89l5.72.47h0a2.75,2.75,0,1,1-.44,5.48l-5.78-.47a2.75,2.75,0,1,1,.44-5.49Z"/><path class="cls-32" d="M1304.37,1108.2l5.74.25h0a2.74,2.74,0,0,1-.23,5.47l-5.8-.24a2.74,2.74,0,1,1,.23-5.48Z"/><path class="cls-32" d="M1323.49,1108.75h5.78a2.72,2.72,0,1,1,0,5.44h-5.81a2.73,2.73,0,1,1,0-5.45Z"/><path class="cls-32" d="M1342.61,1108.46l5.73-.25h0a2.7,2.7,0,0,1,.25,5.4l-5.81.27a2.71,2.71,0,0,1-.25-5.42Z"/><path class="cls-32" d="M1361.7,1107.31l5.71-.52h0a2.69,2.69,0,0,1,.49,5.36l-5.79.53a2.69,2.69,0,0,1-.5-5.36Z"/><path class="cls-32" d="M1380.7,1105.26l5.68-.79h0a2.67,2.67,0,1,1,.74,5.29l-5.75.81a2.68,2.68,0,1,1-.75-5.3Z"/><path class="cls-32" d="M1399.58,1102.31l5.64-1.07h0a2.66,2.66,0,0,1,1,5.22l-5.71,1.1a2.66,2.66,0,0,1-1-5.23Z"/><path class="cls-32" d="M1418.29,1098.42l5.57-1.36h0a2.64,2.64,0,0,1,1.25,5.14l-5.64,1.38a2.65,2.65,0,0,1-1.26-5.14Z"/><path class="cls-32" d="M1436.77,1093.56l5.49-1.65h0a2.63,2.63,0,1,1,1.51,5l-5.57,1.68a2.63,2.63,0,1,1-1.52-5Z"/><path class="cls-32" d="M1455,1087.72l5.38-2h0a2.61,2.61,0,0,1,1.79,4.91l-5.47,2a2.62,2.62,0,0,1-1.79-4.92Z"/><path class="cls-32" d="M1472.76,1080.85l5.26-2.26,0,0a2.59,2.59,0,0,1,2.06,4.76l-5.34,2.31a2.6,2.6,0,0,1-2.07-4.77Z"/><path class="cls-32" d="M1490.12,1072.94l5.11-2.58,0,0a2.58,2.58,0,1,1,2.33,4.61l-5.19,2.62a2.58,2.58,0,1,1-2.33-4.61Z"/><path class="cls-32" d="M1507,1064l4.94-2.9,0,0a2.56,2.56,0,1,1,2.6,4.41l-5,3a2.57,2.57,0,1,1-2.61-4.42Z"/><path class="cls-32" d="M1523.17,1053.93l4.72-3.22,0,0a2.55,2.55,0,1,1,2.87,4.21l-4.8,3.28a2.55,2.55,0,1,1-2.88-4.21Z"/><path class="cls-32" d="M1538.65,1042.82l4.49-3.54,0,0a2.53,2.53,0,0,1,3.13,4l-4.57,3.62a2.54,2.54,0,1,1-3.15-4Z"/><path class="cls-32" d="M1553.26,1030.62l4.16-3.9,0,0a2.52,2.52,0,1,1,3.44,3.67l-4.25,4a2.53,2.53,0,0,1-3.46-3.68Z"/><path class="cls-32" d="M1566.69,1017.19l3.76-4.28,0-.06a2.5,2.5,0,0,1,3.76,3.3l-3.85,4.4a2.51,2.51,0,1,1-3.77-3.3Z"/><path class="cls-32" d="M1578.63,1002.47l3.23-4.68.06-.07a2.48,2.48,0,1,1,4.09,2.82l-3.33,4.83a2.49,2.49,0,0,1-4.1-2.82Z"/><path class="cls-32" d="M1588.63,986.43l2.54-5.06,0-.1a2.47,2.47,0,0,1,4.42,2.21l-2.63,5.27a2.48,2.48,0,1,1-4.43-2.21Z"/><path class="cls-32" d="M1596.11,969.16l1.67-5.39,0-.13a2.46,2.46,0,0,1,4.7,1.44l-1.73,5.65a2.46,2.46,0,0,1-4.7-1.44Z"/><path class="cls-32" d="M1600.46,950.91c.2-1.87.46-3.73.62-5.6h0a2.44,2.44,0,0,1,4.86.4c-.16,2-.42,3.92-.63,5.88a2.44,2.44,0,1,1-4.86-.52Z"/><path class="cls-32" d="M1601.22,932.18l-.48-5.62v-.13a2.42,2.42,0,0,1,4.83-.41l.51,5.88a2.43,2.43,0,0,1-4.84.42Z"/><path class="cls-32" d="M1598.47,913.59l-1.44-5.47,0-.12a2.41,2.41,0,1,1,4.66-1.22l1.51,5.69a2.41,2.41,0,1,1-4.67,1.23Z"/><path class="cls-32" d="M1592.69,895.64l-2.25-5.2,0-.1a2.39,2.39,0,0,1,4.39-1.9l2.34,5.38a2.4,2.4,0,0,1-4.4,1.92Z"/><path class="cls-32" d="M1584.34,878.68l-2.95-4.86-.05-.08a2.38,2.38,0,1,1,4.06-2.47l3.06,5a2.38,2.38,0,0,1-4.07,2.47Z"/><path class="cls-32" d="M1573.8,863l-3.55-4.43-.06-.08a2.34,2.34,0,0,1,3.65-2.93l3.69,4.56a2.35,2.35,0,0,1-3.66,3Z"/><path class="cls-32" d="M1561.3,848.74l-4.1-3.94-.06-.06a2.3,2.3,0,0,1,3.17-3.32l4.25,4a2.31,2.31,0,0,1-3.19,3.35Z"/><path class="cls-32" d="M1547.08,836.22l-4.56-3.41-.07,0a2.25,2.25,0,0,1,2.69-3.61l4.71,3.48a2.27,2.27,0,1,1-2.7,3.64Z"/><path class="cls-32" d="M1531.42,825.51l-4.94-2.84-.06,0a2.21,2.21,0,1,1,2.19-3.83l5.08,2.9a2.22,2.22,0,1,1-2.19,3.86Z"/><path class="cls-32" d="M1514.59,816.74l-5.24-2.23-.07,0a2.16,2.16,0,0,1,1.69-4l5.39,2.27a2.18,2.18,0,1,1-1.69,4Z"/><path class="cls-32" d="M1496.84,810l-5.47-1.59-.08,0a2.11,2.11,0,1,1,1.18-4.06l5.62,1.61a2.13,2.13,0,0,1-1.17,4.09Z"/><path class="cls-32" d="M1478.4,805.52l-5.63-.91h-.08a2.07,2.07,0,0,1,.65-4.09l5.8.9a2.09,2.09,0,0,1-.65,4.12Z"/><path class="cls-32" d="M1459.55,803.34l-5.68-.18h-.08a2,2,0,0,1,.11-4l5.85.15a2,2,0,0,1-.11,4.08Z"/><path class="cls-120" d="M540.42,432.23,535.93,418l4-1.25L546,423l1.38-8.61,4-1.25,4.49,14.25-3.46,1.09-2.71-8.59-1.11,7.47-2.14.67-5.22-5.47,2.71,8.59Z"/><path class="cls-120" d="M555,419.75a7.77,7.77,0,1,1,14.82-4.67,7.67,7.67,0,0,1-.44,6.09,7.9,7.9,0,0,1-10.52,3.32A7.66,7.66,0,0,1,555,419.75Zm3.46-1.09a4.23,4.23,0,0,0,2.07,2.58,4.19,4.19,0,0,0,5.62-1.77,4.17,4.17,0,0,0,.21-3.3,4.14,4.14,0,1,0-7.9,2.49Z"/><path class="cls-120" d="M573.21,418.25a8.35,8.35,0,0,1-2.41-7.64,7.54,7.54,0,0,1,1.84-3.55,7.8,7.8,0,0,1,3.47-2.18,7.64,7.64,0,0,1,4.61-.05,8.37,8.37,0,0,1,3.95,2.57l-3.11,2.32a4.33,4.33,0,0,0-2-1.39,3.85,3.85,0,0,0-2.35,0,4,4,0,0,0-2.46,2.06,4.41,4.41,0,0,0,1.82,5.76,4,4,0,0,0,3.18.29,3.87,3.87,0,0,0,2-1.42,4.49,4.49,0,0,0,.84-2.43l3.9.09a8.29,8.29,0,0,1-1.72,4.51,8.06,8.06,0,0,1-8,2.9A7.49,7.49,0,0,1,573.21,418.25Z"/><path class="cls-120" d="M589.53,416.77,585,402.52l3.46-1.09,1.7,5.39.55-.17,2.55-6.74,4.42-1.39-3.48,8.93,8,5.32-4.42,1.39-5.93-4-.55.17,1.68,5.34Z"/><path class="cls-120" d="M601.07,405.23a7.77,7.77,0,1,1,14.82-4.66,7.68,7.68,0,0,1-.44,6.09,7.56,7.56,0,0,1-4.59,3.79,7.48,7.48,0,0,1-5.94-.48A7.62,7.62,0,0,1,601.07,405.23Zm3.46-1.09a4.18,4.18,0,0,0,2.06,2.59,4,4,0,0,0,3.18.26,4,4,0,0,0,2.44-2,4.22,4.22,0,0,0,.22-3.3,4.14,4.14,0,1,0-7.9,2.48Z"/><path class="cls-120" d="M627.29,404.87l-7.51,2.37L615.29,393l7.31-2.3a4.63,4.63,0,0,1,3.39.11,3.71,3.71,0,0,1,2.07,2.38,4.15,4.15,0,0,1,.13,2,3.44,3.44,0,0,1-.81,1.73,3.84,3.84,0,0,1,1.82.94,4,4,0,0,1,1.12,1.79,3.81,3.81,0,0,1-.33,3.16A4.56,4.56,0,0,1,627.29,404.87Zm-3.86-10.69-3.6,1.14.64,2,3.61-1.14a1,1,0,0,0,.63-.55,1.07,1.07,0,0,0,.06-.86.94.94,0,0,0-.5-.6A1.2,1.2,0,0,0,623.43,394.18Zm1.68,5.34-3.6,1.13.65,2.08,3.81-1.2a1,1,0,0,0,.65-.52,1.05,1.05,0,0,0-.53-1.47A1.43,1.43,0,0,0,625.11,399.52Z"/><path class="cls-120" d="M632.7,399.51a8.34,8.34,0,0,1-2.41-7.63,7.49,7.49,0,0,1,1.84-3.55,8,8,0,0,1,8.08-2.24,8.44,8.44,0,0,1,3.95,2.57L641.05,391a4.25,4.25,0,0,0-2-1.39,3.85,3.85,0,0,0-2.35,0,4,4,0,0,0-2.46,2.06,4.43,4.43,0,0,0,1.82,5.77,4,4,0,0,0,3.18.28,3.86,3.86,0,0,0,2-1.41,4.49,4.49,0,0,0,.84-2.44l3.9.1a8.25,8.25,0,0,1-1.72,4.51,7.77,7.77,0,0,1-3.88,2.69,7.87,7.87,0,0,1-4.1.21A7.42,7.42,0,0,1,632.7,399.51Z"/><path class="cls-120" d="M649,398l-4.49-14.25,3.46-1.09,1.7,5.4.55-.18,2.55-6.73,4.42-1.39-3.48,8.93,8,5.32-4.42,1.39-5.93-4-.55.17,1.68,5.33Z"/><path class="cls-120" d="M675.44,389.71,672,390.8l-2.74-8.69-2.08,10.21-3.93,1.24-4.49-14.25,3.46-1.09,2.74,8.69L667,376.7l3.93-1.24Z"/><path class="cls-120" d="M689.69,385.22l-3.46,1.09-2.73-8.69-2.09,10.21-3.93,1.24L673,374.82l3.46-1.09,2.74,8.69,2.09-10.21,3.93-1.24Zm-11-13.94a4.53,4.53,0,0,1-3.38-.19,3.74,3.74,0,0,1-2.13-2.37l2.59-.81a1.52,1.52,0,0,0,.84,1,1.77,1.77,0,0,0,1.36.06,2,2,0,0,0,1.15-.86,1.48,1.48,0,0,0,.19-1.28l2.59-.81a3.74,3.74,0,0,1-.46,3.15A4.77,4.77,0,0,1,678.68,371.28Z"/><path class="cls-120" d="M705.36,364.63l4.49,14.25L706.39,380l-3.48-11-5.7,1.8,3.48,11-3.46,1.09-4.49-14.25Z"/><path class="cls-120" d="M709.21,371.18A7.78,7.78,0,1,1,724,366.51a7.63,7.63,0,0,1-.45,6.09,7.9,7.9,0,0,1-10.52,3.32A7.72,7.72,0,0,1,709.21,371.18Zm3.47-1.09a4.19,4.19,0,0,0,2.06,2.58,4.19,4.19,0,0,0,5.62-1.77,4.21,4.21,0,0,0,.22-3.3,4.14,4.14,0,1,0-7.9,2.49Z"/><path class="cls-120" d="M728.91,368.41A3.34,3.34,0,0,0,729,366l-2.54-8,10.18-3.21L741.1,369l-3.46,1.09-3.47-11-3.26,1,1.73,5.51a5.52,5.52,0,0,1-.41,4.4,6,6,0,0,1-3.71,3l-1,.31-1-3.21.59-.19A2.72,2.72,0,0,0,728.91,368.41Z"/><path class="cls-120" d="M755.35,364.55l-3.46,1.09L749.15,357l-2.08,10.21-3.93,1.24-4.49-14.26,3.46-1.09,2.74,8.7,2.09-10.22,3.92-1.23Z"/><path class="cls-120" d="M764,346.17l1.07,3.42L761,350.88l3.41,10.83-3.46,1.09L757.5,352l-4.07,1.28-1.08-3.42Z"/><path class="cls-120" d="M770.6,350l6.44-2,1.07,3.42-6.43,2,.63,2,6.93-2.18,1.07,3.42L769.93,360l-4.49-14.25,10.39-3.27,1.07,3.42L770,348Z"/><path class="cls-120" d="M795.28,352l-4.16,1.3-4.38-4.46-1,6.18-4.18,1.31,1.71-8.37L777,342.06l4.17-1.32,4.4,4.46,1-6.17,4.15-1.31-1.67,8.36Z"/></g></g></svg>