<svg width="120" height="121" viewBox="0 0 120 121" fill="none" xmlns="http://www.w3.org/2000/svg">
<path fill-rule="evenodd" clip-rule="evenodd" d="M59.6763 68.8093C59.5621 79.373 56.3489 85.8222 52.2871 89.3185C48.2255 92.8145 42.9974 93.6405 38.2042 92.3524C33.3922 91.0592 29.1526 87.6661 27.137 82.8957C25.1474 78.187 25.2052 71.8397 29.5505 64.3761C35.069 54.8974 46.0219 49.5804 57.845 49.0159C58.9559 54.7969 59.7587 61.1894 59.6763 68.8093ZM25.7794 62.1807C32.0954 51.3322 44.1343 45.4912 56.9462 44.7092C56.8898 44.4569 56.8332 44.2057 56.7763 43.9553C56.3831 42.2266 55.9714 40.523 55.5626 38.8317C54.3058 33.6314 53.0774 28.5486 52.5051 23.222C51.798 16.6402 52.0703 9.61533 54.3645 1.14575L58.5763 2.28664C56.4324 10.2014 56.191 16.6794 56.8438 22.7559C57.383 27.7745 58.518 32.4738 59.7555 37.5973C60.1753 39.3354 60.6071 41.1226 61.0312 42.9875C61.1553 43.5332 61.2783 44.084 61.3996 44.6405C67.3989 44.8192 73.4417 46.0892 79.0332 48.4558C88.6565 52.5289 97.1241 59.8888 101.981 70.6918C106.428 80.582 107.773 93.1862 104.428 108.516C104.77 108.316 105.119 108.133 105.473 107.968C108.854 106.384 112.461 106.436 114.804 106.965L113.843 111.221C112.228 110.857 109.645 110.832 107.323 111.92C105.127 112.948 102.947 115.066 102.068 119.466L97.7892 118.612C98.6683 114.207 97.4879 111.287 95.8336 109.352C94.1 107.323 91.7069 106.226 90.095 105.862L91.0556 101.606C93.4016 102.135 96.6933 103.641 99.1509 106.516C99.4936 106.917 99.8177 107.342 100.119 107.792C103.363 93.0978 102.012 81.4015 98.0012 72.4811C93.6423 62.786 86.0522 56.165 77.3324 52.4743C72.4952 50.427 67.3643 49.2929 62.2879 49.027C63.3566 54.7991 64.122 61.2413 64.0396 68.8565C63.9164 80.2584 60.4215 88.0742 55.1338 92.6257C49.8456 97.1775 43.0825 98.1819 37.0717 96.5665C31.0797 94.9562 25.7025 90.7119 23.1175 84.5941C20.5065 78.4147 20.8642 70.6232 25.7794 62.1807Z" fill="#2C2C2F"/>
</svg>
