<svg width="172" height="32" viewBox="0 0 172 32" fill="none" xmlns="http://www.w3.org/2000/svg">
<path d="M168.073 25.2397C166.367 25.2397 164.989 26.5413 164.989 28.1504C164.989 29.7595 166.369 31.061 168.073 31.061C169.777 31.061 171.158 29.7595 171.158 28.1504C171.158 26.5413 169.779 25.2397 168.073 25.2397Z" fill="#FF4D00"/>
<path d="M12.7832 7.70898H17.6279V23.5H14.5879V10.2979H14.5449L11.5479 23.5H8.33594L5.45703 10.2979H5.41406V23.5H2.37402V7.70898H7.19727L9.96875 19.998H10.0117L12.7832 7.70898ZM31.8828 16.6572H24.1377V20.6426H32.9355V23.5H20.9688V7.70898H32.5596V10.4268H24.1377V13.9287H31.8828V16.6572ZM44.8809 23.5V16.4424H38.6826V23.5H35.374V7.70898H38.6826V13.7139H44.8809V7.70898H48.1787V23.5H44.8809ZM62.4551 16.6572H54.71V20.6426H63.5078V23.5H51.541V7.70898H63.1318V10.4268H54.71V13.9287H62.4551V16.6572ZM77.4941 23.5H67.5361V26.8838H64.6787V20.7715H66.0645C66.2292 20.3275 66.3903 19.8727 66.5479 19.4072C66.7126 18.9417 66.8665 18.4368 67.0098 17.8926C67.153 17.3483 67.2819 16.7503 67.3965 16.0986C67.5182 15.4469 67.6257 14.7129 67.7188 13.8965C67.8118 13.0729 67.887 12.1562 67.9443 11.1465C68.0016 10.1296 68.041 8.98372 68.0625 7.70898H78.8154V20.7715H80.3516V26.8838H77.4941V23.5ZM70.0068 18.7627C69.8278 19.4502 69.613 20.1198 69.3623 20.7715H75.5176V10.4268H70.9629C70.9557 10.7132 70.945 11.0785 70.9307 11.5225C70.9235 11.9665 70.902 12.4642 70.8662 13.0156C70.8304 13.5599 70.7767 14.1507 70.7051 14.7881C70.6406 15.4183 70.5511 16.07 70.4365 16.7432C70.3219 17.4092 70.1787 18.0824 70.0068 18.7627ZM98.6025 7.70898H102.362L96.6689 14.917L102.362 23.5H98.4307L93.8975 16.6787H93.2637V23.5H90.0732V16.6787H89.4072L84.8311 23.5H80.8994L86.6787 14.917L81.0283 7.70898H84.7021L89.4072 14.0361H90.0732V7.70898H93.2637V14.0361H93.8975L98.6025 7.70898ZM114.576 7.70898H119.421V23.5H116.381V10.2979H116.338L113.341 23.5H110.129L107.25 10.2979H107.207V23.5H104.167V7.70898H108.99L111.762 19.998H111.805L114.576 7.70898ZM133.676 16.6572H125.931V20.6426H134.729V23.5H122.762V7.70898H134.353V10.4268H125.931V13.9287H133.676V16.6572ZM146.674 23.5V16.4424H140.476V23.5H137.167V7.70898H140.476V13.7139H146.674V7.70898H149.972V23.5H146.674ZM151.798 7.70898H164.731V10.4268H159.908V23.5H156.61V10.4268H151.798V7.70898Z" fill="black"/>
</svg>
