<svg xmlns="http://www.w3.org/2000/svg" xmlns:xlink="http://www.w3.org/1999/xlink" viewBox="0 0 2805.01 2800"><defs><style>.cls-1,.cls-10,.cls-22,.cls-23,.cls-26,.cls-27,.cls-5,.cls-8{fill:#fff;}.cls-1{opacity:0.57;}.cls-2{isolation:isolate;}.cls-3{fill:url(#linear-gradient);}.cls-4{fill:#91b3fa;}.cls-5{mix-blend-mode:soft-light;}.cls-6{fill:#bdd0fb;}.cls-7{fill:url(#linear-gradient-2);}.cls-8{opacity:0.37;}.cls-9{opacity:0.53;}.cls-11{fill:url(#linear-gradient-3);}.cls-12{fill:url(#linear-gradient-4);}.cls-13{fill:url(#linear-gradient-5);}.cls-14{fill:url(#linear-gradient-6);}.cls-15{fill:url(#linear-gradient-7);}.cls-16{fill:url(#linear-gradient-8);}.cls-17{fill:url(#linear-gradient-9);}.cls-18{clip-path:url(#clip-path);}.cls-19{fill:#7d97f4;}.cls-20{clip-path:url(#clip-path-2);}.cls-21{clip-path:url(#clip-path-3);}.cls-22{opacity:0.24;}.cls-23{opacity:0.54;}.cls-24{fill:url(#linear-gradient-10);}.cls-25{opacity:0.48;}.cls-26{opacity:0.91;}.cls-27{opacity:0.5;}.cls-28{font-size:87.97px;fill:#2e2e93;font-family:Cygre-Black, Cygre Black;font-weight:800;}.cls-29{fill:url(#linear-gradient-11);}.cls-30{fill:url(#linear-gradient-12);}.cls-31{fill:url(#linear-gradient-13);}.cls-32{fill:url(#linear-gradient-14);}.cls-33{fill:url(#linear-gradient-15);}.cls-34{fill:url(#linear-gradient-16);}.cls-35{fill:url(#linear-gradient-17);}.cls-36{fill:url(#linear-gradient-18);}.cls-37{fill:url(#linear-gradient-19);}.cls-38{fill:url(#linear-gradient-20);}.cls-39{fill:url(#linear-gradient-21);}.cls-40{fill:url(#linear-gradient-22);}.cls-41{fill:url(#linear-gradient-23);}.cls-42{fill:url(#linear-gradient-24);}.cls-43{fill:url(#linear-gradient-25);}.cls-44{fill:url(#linear-gradient-26);}.cls-45{fill:url(#linear-gradient-27);}.cls-46{fill:url(#linear-gradient-28);}.cls-47{fill:url(#linear-gradient-29);}.cls-48{fill:url(#linear-gradient-30);}.cls-49{fill:url(#linear-gradient-31);}.cls-50{fill:url(#linear-gradient-32);}.cls-51{fill:url(#linear-gradient-33);}.cls-52{fill:url(#linear-gradient-34);}.cls-53{fill:url(#linear-gradient-35);}.cls-54{fill:url(#linear-gradient-36);}.cls-55{fill:url(#linear-gradient-37);}.cls-56{fill:url(#linear-gradient-38);}.cls-57{fill:url(#linear-gradient-39);}.cls-58{fill:url(#linear-gradient-40);}.cls-59{fill:url(#linear-gradient-41);}.cls-60{fill:url(#linear-gradient-42);}.cls-61{fill:url(#linear-gradient-43);}.cls-62{fill:url(#linear-gradient-44);}.cls-63{fill:url(#linear-gradient-45);}.cls-64{fill:url(#linear-gradient-46);}.cls-65{fill:url(#linear-gradient-47);}.cls-66{fill:url(#linear-gradient-48);}.cls-67{fill:url(#linear-gradient-49);}.cls-68{fill:url(#linear-gradient-50);}.cls-69{fill:url(#linear-gradient-51);}.cls-70{fill:url(#linear-gradient-52);}.cls-71{fill:url(#linear-gradient-53);}.cls-72{fill:url(#linear-gradient-54);}.cls-73{fill:url(#linear-gradient-55);}.cls-74{fill:url(#linear-gradient-56);}.cls-75{fill:url(#linear-gradient-57);}.cls-76{fill:url(#linear-gradient-58);}.cls-77{fill:url(#linear-gradient-59);}.cls-78{fill:url(#linear-gradient-60);}.cls-79{fill:url(#linear-gradient-61);}.cls-80{fill:url(#linear-gradient-62);}</style><linearGradient id="linear-gradient" x1="14.26" y1="1431.56" x2="2788.68" y2="1431.56" gradientUnits="userSpaceOnUse"><stop offset="0" stop-color="#dae3fe"/><stop offset="1" stop-color="#e9effd"/></linearGradient><linearGradient id="linear-gradient-2" x1="1988.49" y1="262.97" x2="747.65" y2="2800.6" gradientUnits="userSpaceOnUse"><stop offset="0" stop-color="#09005d"/><stop offset="1" stop-color="#1a0f91"/></linearGradient><linearGradient id="linear-gradient-3" x1="3357.85" y1="-969.94" x2="2845.39" y2="-261.93" gradientUnits="userSpaceOnUse"><stop offset="0" stop-color="#4042e2"/><stop offset="1" stop-color="#4f52ff"/></linearGradient><linearGradient id="linear-gradient-4" x1="3483.19" y1="-879.21" x2="2970.73" y2="-171.21" xlink:href="#linear-gradient-3"/><linearGradient id="linear-gradient-5" x1="3431.32" y1="-916.76" x2="2918.86" y2="-208.75" xlink:href="#linear-gradient-3"/><linearGradient id="linear-gradient-6" x1="3675.53" y1="-740" x2="3163.07" y2="-32" xlink:href="#linear-gradient-3"/><linearGradient id="linear-gradient-7" x1="3609.8" y1="-787.57" x2="3097.34" y2="-79.57" xlink:href="#linear-gradient-3"/><linearGradient id="linear-gradient-8" x1="3717.64" y1="-709.52" x2="3205.18" y2="-1.51" xlink:href="#linear-gradient-3"/><linearGradient id="linear-gradient-9" x1="3828.4" y1="-629.35" x2="3315.94" y2="78.65" xlink:href="#linear-gradient-3"/><clipPath id="clip-path"><path class="cls-1" d="M422.29,656.94A159.53,159.53,0,1,0,581.81,816.47,159.52,159.52,0,0,0,422.29,656.94Zm0,250.41a90.89,90.89,0,1,1,90.88-90.88A90.88,90.88,0,0,1,422.29,907.35Z"/></clipPath><clipPath id="clip-path-2"><path class="cls-1" d="M811.16,656.94A159.53,159.53,0,1,0,970.68,816.47,159.52,159.52,0,0,0,811.16,656.94Zm0,250.41A90.89,90.89,0,1,1,902,816.47,90.88,90.88,0,0,1,811.16,907.35Z"/></clipPath><clipPath id="clip-path-3"><path class="cls-1" d="M1200,656.94a159.53,159.53,0,1,0,159.52,159.53A159.52,159.52,0,0,0,1200,656.94Zm0,250.41a90.89,90.89,0,1,1,90.88-90.88A90.89,90.89,0,0,1,1200,907.35Z"/></clipPath><linearGradient id="linear-gradient-10" x1="1198.27" y1="1521.07" x2="1103.01" y2="1809.04" gradientTransform="translate(2655.11 273.02) rotate(85.27)" gradientUnits="userSpaceOnUse"><stop offset="0" stop-color="#cb236d"/><stop offset="1" stop-color="#4c246d"/></linearGradient><linearGradient id="linear-gradient-11" x1="-4616.71" y1="1488.53" x2="-4649.08" y2="1555.06" gradientTransform="matrix(-1, -0.02, -0.02, 1, -2803.98, -257.91)" xlink:href="#linear-gradient-10"/><linearGradient id="linear-gradient-12" x1="-4645.42" y1="1496.88" x2="-4671.52" y2="1469.9" gradientTransform="matrix(-1, -0.02, -0.02, 1, -2803.98, -257.91)" xlink:href="#linear-gradient-10"/><linearGradient id="linear-gradient-13" x1="-4651.71" y1="1474.09" x2="-4651.72" y2="1474.1" gradientTransform="matrix(-1, -0.02, -0.02, 1, -2803.98, -257.91)" gradientUnits="userSpaceOnUse"><stop offset="0" stop-color="#e38ddd"/><stop offset="1" stop-color="#9571f6"/></linearGradient><linearGradient id="linear-gradient-14" x1="-4663.32" y1="1467.29" x2="-4673.26" y2="1487.72" gradientTransform="matrix(-1, -0.02, -0.02, 1, -2803.98, -257.91)" xlink:href="#linear-gradient-2"/><linearGradient id="linear-gradient-15" x1="-4637.2" y1="1483.62" x2="-4643.64" y2="1496.85" gradientTransform="matrix(-1, -0.02, -0.02, 1, -2803.98, -257.91)" xlink:href="#linear-gradient-2"/><linearGradient id="linear-gradient-16" x1="-4647.01" y1="1488.5" x2="-4655.14" y2="1505.21" gradientTransform="matrix(-1, -0.02, -0.02, 1, -2803.98, -257.91)" xlink:href="#linear-gradient-2"/><linearGradient id="linear-gradient-17" x1="-130.2" y1="1358.9" x2="-188.84" y2="1550.56" gradientTransform="matrix(-1, 0, 0, 1, 1451.28, 0)" gradientUnits="userSpaceOnUse"><stop offset="0" stop-color="#febbba"/><stop offset="1" stop-color="#ff928e"/></linearGradient><linearGradient id="linear-gradient-18" x1="2238.05" y1="1306.5" x2="2169.19" y2="1531.55" gradientTransform="translate(-425.78)" xlink:href="#linear-gradient-17"/><linearGradient id="linear-gradient-19" x1="-62.66" y1="1281.75" x2="278.3" y2="1752.21" gradientTransform="matrix(-1, 0, 0, 1, 1451.28, 0)" xlink:href="#linear-gradient-2"/><linearGradient id="linear-gradient-20" x1="361.18" y1="2566.27" x2="319.92" y2="2382.08" gradientTransform="matrix(-1, 0, 0, 1, 1451.28, 0)" gradientUnits="userSpaceOnUse"><stop offset="0" stop-color="#4f52ff"/><stop offset="1" stop-color="#4042e2"/></linearGradient><linearGradient id="linear-gradient-21" x1="-4009.36" y1="2924.96" x2="-3898.42" y2="1628.43" gradientTransform="matrix(-1, 0, 0, 1, -2568.93, 0)" xlink:href="#linear-gradient-17"/><linearGradient id="linear-gradient-22" x1="29.01" y1="2579.42" x2="87.95" y2="2762.13" xlink:href="#linear-gradient-20"/><linearGradient id="linear-gradient-23" x1="-3786.21" y1="2944.25" x2="-3675.24" y2="1647.38" gradientTransform="matrix(-1, 0, 0, 1, -2568.93, 0)" xlink:href="#linear-gradient-17"/><linearGradient id="linear-gradient-24" x1="-856.89" y1="-7532.8" x2="-991.74" y2="-7141.71" gradientTransform="matrix(-1, 0, 0, 1, -2568.93, 0)" gradientUnits="userSpaceOnUse"><stop offset="0" stop-color="#ff928e"/><stop offset="1" stop-color="#fe7062"/></linearGradient><linearGradient id="linear-gradient-25" x1="2609.39" y1="791.17" x2="2211.56" y2="1189" gradientTransform="matrix(1, 0, 0, 1, 0, 0)" xlink:href="#linear-gradient-20"/><linearGradient id="linear-gradient-26" x1="-4021.52" y1="1646.96" x2="-4000.68" y2="1494.52" gradientTransform="matrix(-1, 0, 0, 1, -2568.93, 0)" xlink:href="#linear-gradient-17"/><linearGradient id="linear-gradient-27" x1="-4157.36" y1="868.03" x2="-3975.54" y2="544.44" gradientTransform="matrix(-0.98, -0.19, -0.19, 0.98, -2419.61, -195.85)" xlink:href="#linear-gradient-17"/><linearGradient id="linear-gradient-28" x1="-29.99" y1="1224.12" x2="326.15" y2="1715.52" gradientTransform="matrix(-1, 0, 0, 1, 1451.28, 0)" xlink:href="#linear-gradient-2"/><linearGradient id="linear-gradient-29" x1="-4127.79" y1="895.09" x2="-3945.97" y2="571.51" gradientTransform="matrix(-0.98, -0.19, -0.19, 0.98, -2419.61, -195.85)" xlink:href="#linear-gradient-17"/><linearGradient id="linear-gradient-30" x1="58.69" y1="1684.53" x2="201.01" y2="1684.53" xlink:href="#linear-gradient-17"/><linearGradient id="linear-gradient-31" x1="1943.81" y1="1577.77" x2="2101.36" y2="2234.22" gradientTransform="translate(-455.03)" xlink:href="#linear-gradient-2"/><linearGradient id="linear-gradient-32" x1="1835.86" y1="1751.44" x2="1925.12" y2="1751.44" gradientTransform="translate(-455.03)" xlink:href="#linear-gradient-17"/><linearGradient id="linear-gradient-33" x1="-3945.39" y1="-4172.95" x2="-3812.78" y2="-4716.88" gradientTransform="matrix(-1, 0, 0, 1, -3427.62, 0)" xlink:href="#linear-gradient-2"/><linearGradient id="linear-gradient-34" x1="-5586.61" y1="2404.89" x2="-5639.53" y2="2770.51" gradientTransform="matrix(-1, 0, 0, 1, -3427.62, 0)" xlink:href="#linear-gradient-20"/><linearGradient id="linear-gradient-35" x1="2242.16" y1="2738.32" x2="2750.13" y2="2425.9" gradientUnits="userSpaceOnUse"><stop offset="0" stop-color="#a22b25"/><stop offset="1" stop-color="#c0423c"/></linearGradient><linearGradient id="linear-gradient-36" x1="-3683.83" y1="-4109.17" x2="-3551.22" y2="-4653.1" gradientTransform="matrix(-1, 0, 0, 1, -3427.62, 0)" xlink:href="#linear-gradient-2"/><linearGradient id="linear-gradient-37" x1="-5324.49" y1="2442.82" x2="-5377.41" y2="2808.45" gradientTransform="matrix(-1, 0, 0, 1, -3427.62, 0)" xlink:href="#linear-gradient-20"/><linearGradient id="linear-gradient-38" x1="3425.55" y1="3152.12" x2="3178.31" y2="2992.54" gradientTransform="matrix(1, 0, 0, 1, 0, 0)" xlink:href="#linear-gradient-20"/><linearGradient id="linear-gradient-39" x1="2007.5" y1="2598.39" x2="2056.95" y2="3117.59" xlink:href="#linear-gradient-35"/><linearGradient id="linear-gradient-40" x1="-5765.06" y1="2452.44" x2="-6220.49" y2="2968.81" gradientTransform="matrix(-1, 0, 0, 1, -3427.62, 0)" xlink:href="#linear-gradient-20"/><linearGradient id="linear-gradient-41" x1="2360.32" y1="1746.94" x2="2417.64" y2="1891.92" xlink:href="#linear-gradient-35"/><linearGradient id="linear-gradient-42" x1="-2099.45" y1="-8663.45" x2="-2234.31" y2="-8272.36" gradientTransform="matrix(-1, 0, 0, 1, -3427.62, 0)" xlink:href="#linear-gradient-24"/><linearGradient id="linear-gradient-43" x1="2873.54" y1="600.79" x2="2738.68" y2="991.88" gradientTransform="matrix(1, 0, 0, 1, 0, 0)" xlink:href="#linear-gradient-24"/><linearGradient id="linear-gradient-44" x1="2070.63" y1="2104.63" x2="2012.19" y2="2439.53" xlink:href="#linear-gradient-35"/><linearGradient id="linear-gradient-45" x1="-1714.21" y1="-4866.5" x2="-1810.29" y2="-4584.98" gradientTransform="matrix(-0.99, -0.13, -0.13, 0.99, -1284.15, -124.39)" xlink:href="#linear-gradient-35"/><linearGradient id="linear-gradient-46" x1="-3902.16" y1="1230.37" x2="-3761.92" y2="1410.93" gradientTransform="matrix(-0.99, -0.13, -0.13, 0.99, -1284.15, -124.39)" xlink:href="#linear-gradient-2"/><linearGradient id="linear-gradient-47" x1="-1758.55" y1="-4881.63" x2="-1854.63" y2="-4600.12" gradientTransform="matrix(-0.99, -0.13, -0.13, 0.99, -1284.15, -124.39)" xlink:href="#linear-gradient-35"/><linearGradient id="linear-gradient-48" x1="23168.6" y1="-20858.92" x2="22782.1" y2="-20485.26" gradientTransform="matrix(1.39, -0.07, 0.07, 1.39, 2374.28, -426.26)" xlink:href="#linear-gradient-20"/><linearGradient id="linear-gradient-49" x1="1155.35" y1="2270.56" x2="303.5" y2="2573.99" gradientTransform="matrix(1, 0, 0, 1, 0, 0)" xlink:href="#linear-gradient-17"/><linearGradient id="linear-gradient-50" x1="-4229.88" y1="2626.58" x2="-4260.8" y2="3100.66" gradientTransform="matrix(-1, 0, 0, 1, -3728.71, 0)" xlink:href="#linear-gradient-20"/><linearGradient id="linear-gradient-51" x1="817.88" y1="2357.88" x2="1128.05" y2="2029.72" gradientTransform="matrix(1, 0, 0, 1, 0, 0)" xlink:href="#linear-gradient-17"/><linearGradient id="linear-gradient-52" x1="344.07" y1="2376.77" x2="422.45" y2="1645.22" xlink:href="#linear-gradient-2"/><linearGradient id="linear-gradient-53" x1="-4528.24" y1="2607.12" x2="-4559.16" y2="3081.2" gradientTransform="matrix(-1, 0, 0, 1, -3728.71, 0)" xlink:href="#linear-gradient-20"/><linearGradient id="linear-gradient-54" x1="-4011.47" y1="1707.51" x2="-3575.6" y2="2091.55" gradientTransform="matrix(-1.08, 0.04, -0.04, 1.14, -3768.77, -290.6)" gradientUnits="userSpaceOnUse"><stop offset="0" stop-color="#e1473d"/><stop offset="1" stop-color="#e9605a"/></linearGradient><linearGradient id="linear-gradient-55" x1="-455.01" y1="-8342.62" x2="-589.87" y2="-7951.53" gradientTransform="matrix(-1, 0, 0, 1, -3728.71, 0)" xlink:href="#linear-gradient-20"/><linearGradient id="linear-gradient-56" x1="-4107.09" y1="1895.16" x2="-4129.27" y2="1752.79" gradientTransform="matrix(-1, 0, 0, 1, -3728.71, 0)" xlink:href="#linear-gradient-17"/><linearGradient id="linear-gradient-57" x1="-4596.45" y1="-457.43" x2="-4400.45" y2="-324.3" gradientTransform="matrix(-0.74, -0.67, -0.67, 0.74, -3201.03, -1020.12)" xlink:href="#linear-gradient-17"/><linearGradient id="linear-gradient-58" x1="-4266.21" y1="1552.42" x2="-3830.33" y2="1936.47" gradientTransform="matrix(-1, 0, 0, 1, -3728.71, 0)" xlink:href="#linear-gradient-54"/><linearGradient id="linear-gradient-59" x1="-4596.46" y1="-464.22" x2="-4400.47" y2="-331.09" gradientTransform="matrix(-0.74, -0.67, -0.67, 0.74, -3201.03, -1020.12)" xlink:href="#linear-gradient-17"/><linearGradient id="linear-gradient-60" x1="-3979.71" y1="2141.67" x2="-3563.02" y2="2141.67" gradientTransform="matrix(-1, 0, 0, 1, -3728.71, 0)" xlink:href="#linear-gradient-17"/><linearGradient id="linear-gradient-61" x1="-760.01" y1="-7129.41" x2="-948.82" y2="-6637.18" gradientTransform="matrix(-1, -0.05, -0.05, 1, -3709.17, -77.93)" xlink:href="#linear-gradient-24"/><linearGradient id="linear-gradient-62" x1="853.32" y1="1667.5" x2="664.52" y2="2159.74" gradientTransform="matrix(1, 0, 0, 1, 0, 0)" xlink:href="#linear-gradient-24"/></defs><g class="cls-2"><g id="Слой_2" data-name="Слой 2"><g id="Illustration"><path class="cls-3" d="M2454.88,2405.89c-72.22,73.08-136.84,116-186.31,148.46-482.49,316.27-1034,225.11-1204.56,194-275.12-50.27-507.36-85.73-706.9-262.71-453.4-402.13-431.35-1241-84.89-1760.67,41.08-61.61,387-565,939.75-635.94,13.52-1.73,23.6-2.72,32.44-3.64,85.51-8.89,615.38-55.8,1047.44,299.56,61.85,50.87,161.37,142.62,253.67,282.55C2883,1179.13,2884.07,1971.59,2454.88,2405.89Z"/><path class="cls-4" d="M2210.86,483c5.83-69.94,217.5-134.89,200.74-282.9l-122.49-86.92s-33,184.82-96.7,238.42-81.92,2.91-61-43.31S2260,162.88,2245.54,102c0,0-11.83-48.13-70.16-20.87S2024.47,43.85,2002,0c0,0-6.47,28.21-51.17,85.07S1857,196,1905.06,240.23,2036,316,2024.29,354.49,1849.7,367.07,1832.93,238.2c0,0-78,85-76.7,121s51,86.86,149.7,90.62,142.79,35,134,63.9-293.36-24.91-300.27-131.19c0,0-71.34,202.82-66.47,229.67s126.87,58.83,207.28,49.61,146.46,37.64,155.56,67.49-84.93-13.47-134.45-9.62-241.47-66.08-241.47-66.08,19.29,21.49,5.41,93.52,5.37,198.76,51.21,200.1,263.64-35.17,331.79-21.9,120,38.4,83.1,55.06-125.2.85-191.79,8.18S1704.45,1036,1675.5,999.88c0,0,13.22,196.53,187.68,257.94,0,0,95.49-25.81,159.4-93.54s93.76-93.32,123.38-80.11-15,59.56-55.88,100.72-134.08,138.8-177.91,135c0,0,268,77.09,351-94,77.87-160.48,65.68-186,63.86-188.53,7.43,9,234.53,279.1,433.18-63.13,0,0-67.17,65.41-125.9,43.23s-167.3,2.16-157.11-41.29,223.34,37.6,285.79-35.06,50.73-218.48-36.61-278c0,0-20.31,85.54-111.16,118.55S2393,834.45,2436,771.38,2729.46,666.3,2754.77,607s-131.14-223.45-131.14-223.45-11,31.93-84.47,119-175,171-180.62,139.78,64.57-81.34,125.57-128.49,108.72-135.12,85.36-168.76-119.85-118-119.85-118-71.9,130.2-98.71,192.3S2205,552.93,2210.86,483Zm145.23,414.81c-78.2,49.61-57.87-26-33.14-74C2341.73,787.27,2434.29,848.18,2356.09,897.79Zm-62-164.67c-51,34-79.45,20-67.67-12C2253.52,647.75,2345.11,699.12,2294.13,733.12ZM2208.4,567c-26.46,20.22-41.81,21-45.39-16.6S2234.85,546.8,2208.4,567Z"/><path class="cls-4" d="M279,27.83c-2.33-12.39,12.79-20.4,21.87-11.64,92.14,89,312.79,354.66,250.49,812.7-78.18,574.69,38.81,786.42,186.28,916.63,0,0-204.15-63.12-330.14-278.06C98.19,939.72,320.55,248.24,279,27.83Z"/><path class="cls-5" d="M347.58,208.63C358.37,272.88,367.88,337.3,375,402q11.22,96.95,16.49,194.37c3.24,64.92,5.27,129.89,4.53,194.84-.45,65-3.69,129.83-7.17,194.94-3.11,65.1-6.62,130.66-3.42,196.78s14.18,132.66,37.09,195.33c5.73,15.62,11.76,31.2,18.66,46.26,6.61,15.21,13.9,30.12,21.46,44.89a709.87,709.87,0,0,0,51.78,85.11c38.7,54.13,85.62,102.32,137.48,143.27a12.59,12.59,0,0,0,15.9-19.53l0,0c-12.33-10.31-24.53-20.76-36.22-31.72-5.93-5.38-11.61-11-17.4-16.54-5.57-5.74-11.36-11.27-16.75-17.18a663.81,663.81,0,0,1-60.56-74.15c-36.91-52.05-66.23-109.88-88.22-169.71a634.54,634.54,0,0,1-25.12-92.17,719.32,719.32,0,0,1-11.41-95.25c-3.59-64.18-.66-129.1,2-194.22s4.68-130.6,4.11-196.06q-.3-49.08-2.35-98.12c-.59-16.35-1.5-32.68-2.38-49q-1.55-24.5-3.42-48.94-7.73-97.81-21.47-194.92c-9.49-64.65-20.7-129-34.36-192.87a3.38,3.38,0,0,0-6.64,1.27Z"/><path class="cls-6" d="M452.77,1676.41c-10.13,21.57-44.18,27.26-65,11C273,1597.87-24.22,1321.14,13.92,880,46.13,507.42,20.12,302.2.41,209.58-3.76,190,25.05,178,42.62,191.92,236.45,346.05,819.68,894.77,452.77,1676.41Z"/><path class="cls-5" d="M414.16,1675.48a12.09,12.09,0,0,1-1.91.77c-5.72,1.75-12.19-.63-14.46-5.33-2.56-5.33-256.67-538.46-240.62-1058.58.15-5,5.26-8.88,11.41-8.66s11,4.47,10.85,9.48c-15.93,516.33,236.51,1046.11,239.06,1051.4C420.49,1668.7,418.56,1673.25,414.16,1675.48Z"/><path class="cls-7" d="M98.18,641.94V2004.09c0,112.06,78.7,203.69,177.43,206.58,438.5,12.83,1972.16,43.94,2389.58,37,71.74-1.2,129.86-66.34,131.93-147.72,8.05-316.45,21.12-1077.4-27.25-1430.68-10.19-74.39-65.54-130-131.86-132.43-367.41-13.34-1993.19-55.68-2410.42-45C155.64,493.58,98.18,560.27,98.18,641.94Z"/><path class="cls-4" d="M173.51,635.3V1929.45c0,65.42,46.29,118.73,103.94,119.71l2327.69,32.63c57.16,1,104-51.21,104.23-116.07l3.89-1282.58c.15-46.38-32.41-84.38-73.28-85.51L256.87,543C211.16,541.74,173.51,583.43,173.51,635.3Z"/><path class="cls-8" d="M226.49,687.36V1875.68c0,60.07,43.75,109,98.25,109.92l2200.22,30c54,.89,98.32-47,98.52-106.58l3.68-1177.7c.15-42.59-30.63-77.48-69.26-78.52L305.28,602.6C262.08,601.45,226.49,639.73,226.49,687.36Z"/><g class="cls-9"><rect class="cls-10" x="1465.34" y="715.54" width="67.76" height="1195.09"/><rect class="cls-10" x="1578.55" y="715.54" width="67.76" height="1195.09"/><rect class="cls-10" x="1691.77" y="715.54" width="67.76" height="1195.09"/><rect class="cls-10" x="1804.98" y="715.54" width="67.76" height="1195.09"/><rect class="cls-10" x="1918.19" y="715.54" width="67.76" height="1195.09"/><rect class="cls-10" x="2031.41" y="715.54" width="67.76" height="1195.09"/><rect class="cls-10" x="2144.62" y="715.54" width="67.76" height="1195.09"/></g><rect class="cls-11" x="1465.34" y="1285.19" width="67.76" height="625.44"/><rect class="cls-12" x="1578.55" y="1500.14" width="67.76" height="410.48"/><rect class="cls-13" x="1691.77" y="968.9" width="67.76" height="941.72"/><rect class="cls-14" x="1804.98" y="1684.39" width="67.76" height="226.24"/><rect class="cls-15" x="1918.19" y="1094.8" width="67.76" height="815.82"/><rect class="cls-16" x="2031.41" y="1236.06" width="67.76" height="674.57"/><rect class="cls-17" x="2144.62" y="1389.59" width="67.76" height="521.03"/><path class="cls-1" d="M422.29,656.94A159.53,159.53,0,1,0,581.81,816.47,159.52,159.52,0,0,0,422.29,656.94Zm0,250.41a90.89,90.89,0,1,1,90.88-90.88A90.88,90.88,0,0,1,422.29,907.35Z"/><g class="cls-18"><rect class="cls-19" x="199.52" y="781.38" width="473.86" height="200.53"/></g><path class="cls-1" d="M811.16,656.94A159.53,159.53,0,1,0,970.68,816.47,159.52,159.52,0,0,0,811.16,656.94Zm0,250.41A90.89,90.89,0,1,1,902,816.47,90.88,90.88,0,0,1,811.16,907.35Z"/><g class="cls-20"><rect class="cls-19" x="588.39" y="703.87" width="473.86" height="278.05"/></g><path class="cls-1" d="M1200,656.94a159.53,159.53,0,1,0,159.52,159.53A159.52,159.52,0,0,0,1200,656.94Zm0,250.41a90.89,90.89,0,1,1,90.88-90.88A90.89,90.89,0,0,1,1200,907.35Z"/><g class="cls-21"><rect class="cls-19" x="977.26" y="881.65" width="473.86" height="100.27"/></g><path class="cls-22" d="M1323.77,1939.3,347.42,1932a35.06,35.06,0,0,1-34.8-35.06V1395.27a35.06,35.06,0,0,1,35.07-35.06H1324a35.06,35.06,0,0,1,35.06,35.06v509A35.07,35.07,0,0,1,1323.77,1939.3Z"/><path class="cls-23" d="M1172.33,1586.69,1046.78,1454l-180,195.8-127-137.06L620.61,1647.36l-91.35-111-180,187.45v135.55A32.62,32.62,0,0,0,381.58,1892l908.07,6.82a32.61,32.61,0,0,0,32.86-32.61V1497.44Z"/><rect class="cls-10" x="1173.1" y="1583" width="3.3" height="315.8"/><rect class="cls-19" x="1045.13" y="1453.95" width="3.3" height="443.02"/><rect class="cls-19" x="865.11" y="1647.36" width="3.3" height="248.26"/><rect class="cls-19" x="741.47" y="1517.55" width="3.3" height="378.08"/><rect class="cls-19" x="618.96" y="1643.34" width="3.3" height="252.29"/><rect class="cls-19" x="529.54" y="1526.96" width="3.3" height="366.24"/><path class="cls-19" d="M566.19,1522.43A35.43,35.43,0,1,1,530.76,1487,35.43,35.43,0,0,1,566.19,1522.43Z"/><path class="cls-19" d="M649,1636.56a25,25,0,1,1-24.95-25A24.95,24.95,0,0,1,649,1636.56Z"/><path class="cls-19" d="M771.22,1515.89a26.45,26.45,0,1,1-26.45-26.45A26.45,26.45,0,0,1,771.22,1515.89Z"/><path class="cls-19" d="M897.33,1641.17A24.37,24.37,0,1,1,873,1616.8,24.38,24.38,0,0,1,897.33,1641.17Z"/><path class="cls-19" d="M1069.53,1450a22.12,22.12,0,1,1-22.12-22.11A22.12,22.12,0,0,1,1069.53,1450Z"/><circle class="cls-24" cx="1179.28" cy="1578.47" r="22.7" transform="translate(-491.08 2623.54) rotate(-85.27)"/><g class="cls-25"><path class="cls-10" d="M587.23,1209.65H314.52c-11.41,0-20.65,6.44-20.65,14.38s9.24,14.39,20.65,14.39H587.23c11.41,0,20.66-6.44,20.66-14.39S598.64,1209.65,587.23,1209.65Z"/><path class="cls-10" d="M587.23,1146H314.52c-11.41,0-20.65,6.44-20.65,14.39s9.24,14.38,20.65,14.38H587.23c11.41,0,20.66-6.44,20.66-14.38S598.64,1146,587.23,1146Z"/><path class="cls-10" d="M587.23,1082.26H314.52c-11.41,0-20.65,6.44-20.65,14.38s9.24,14.39,20.65,14.39H587.23c11.41,0,20.66-6.44,20.66-14.39S598.64,1082.26,587.23,1082.26Z"/></g><g class="cls-25"><path class="cls-10" d="M966.32,1209.65H693.61c-11.41,0-20.66,6.44-20.66,14.38s9.25,14.39,20.66,14.39H966.32c11.4,0,20.65-6.44,20.65-14.39S977.72,1209.65,966.32,1209.65Z"/><path class="cls-10" d="M966.32,1146H693.61c-11.41,0-20.66,6.44-20.66,14.39s9.25,14.38,20.66,14.38H966.32c11.4,0,20.65-6.44,20.65-14.38S977.72,1146,966.32,1146Z"/><path class="cls-10" d="M966.32,1082.26H693.61c-11.41,0-20.66,6.44-20.66,14.38S682.2,1111,693.61,1111H966.32c11.4,0,20.65-6.44,20.65-14.39S977.72,1082.26,966.32,1082.26Z"/></g><g class="cls-25"><path class="cls-10" d="M1345.4,1209.65H1072.69c-11.41,0-20.65,6.44-20.65,14.38s9.24,14.39,20.65,14.39H1345.4c11.41,0,20.66-6.44,20.66-14.39S1356.81,1209.65,1345.4,1209.65Z"/><path class="cls-10" d="M1345.4,1146H1072.69c-11.41,0-20.65,6.44-20.65,14.39s9.24,14.38,20.65,14.38H1345.4c11.41,0,20.66-6.44,20.66-14.38S1356.81,1146,1345.4,1146Z"/><path class="cls-10" d="M1345.4,1082.26H1072.69c-11.41,0-20.65,6.44-20.65,14.38s9.24,14.39,20.65,14.39H1345.4c11.41,0,20.66-6.44,20.66-14.39S1356.81,1082.26,1345.4,1082.26Z"/></g><circle class="cls-26" cx="2411.3" cy="1245.14" r="132.39" transform="translate(-174.19 2069.74) rotate(-45)"/><path class="cls-19" d="M2490,1217.16a85,85,0,1,1-78.66-52.72c1.44,0,2.87,0,4.29.11V1143q-2.13-.09-4.29-.09a106.51,106.51,0,1,0,98.44,65.67Z"/><path class="cls-27" d="M2520.11,1433.6H2304.38a24.52,24.52,0,1,0,0,49h215.73a24.52,24.52,0,0,0,0-49Z"/><circle class="cls-26" cx="2410.73" cy="819.64" r="132.39"/><path class="cls-19" d="M2455.73,895.92a85,85,0,1,1-45.3-157c1.43,0,2.86,0,4.29.11V717.49c-1.43,0-2.86-.09-4.29-.09a106.58,106.58,0,1,0,56,197.26Z"/><path class="cls-27" d="M2520.68,1008.1H2305a24.52,24.52,0,1,0,0,49h215.73a24.52,24.52,0,0,0,0-49Z"/><circle class="cls-26" cx="2411.77" cy="1672.8" r="132.39"/><path class="cls-19" d="M2483.87,1720.61a85,85,0,1,1-70.32-132.84c1.44,0,2.87,0,4.29.11v-21.56c-1.43,0-2.86-.09-4.29-.09a106.58,106.58,0,1,0,87.78,167Z"/><path class="cls-27" d="M2303.91,1906h215.73a24.52,24.52,0,0,0,0-49H2303.91a24.52,24.52,0,0,0,0,49Z"/><text class="cls-28" transform="translate(889.19 2169.08) rotate(0.94)">МОСКОВСКИЙ ПОЛИТЕХ</text><path class="cls-29" d="M1765.1,1406.3c15.16,1.13,28.55-14.49,51.77-42.29,16.51-19.76,21.22-31.44,25.19-35.66,3.57-3.8,17.64-21.36,10.56-26.66,0,0-7.6-3.78-11.08-5.13a11.62,11.62,0,0,0-9.37.14c-2.42,1.25-25,15.55-25,15.55s-25.89,14.6-38,24.31-30.31,24.1-34.51,31.94c-3.51,6.54-1.74,13.6,2.38,19.94a41.41,41.41,0,0,0,15.38,14.29A40.36,40.36,0,0,0,1765.1,1406.3Z"/><path class="cls-30" d="M1807.83,1313c5.66,1.39,10.73,1.78,14.61,3.62a1,1,0,0,0,.15.07,52.82,52.82,0,0,1,12.12,7.77c1.69-1.66,3.42-3.4,5.09-5.11-15.75-14-24.38-10.87-24.38-10.87C1812.07,1310.45,1811.12,1311.05,1807.83,1313Z"/><path class="cls-31" d="M1818.34,1305.67h0Z"/><path class="cls-32" d="M1815.25,1308.58A42.92,42.92,0,0,1,1839,1320c1.24-1.15,9.83-9.14,12.14-13.15a3.93,3.93,0,0,0,.6-2.09c0-1.33-1.65-2.76-6.68-5.24a47.9,47.9,0,0,0-6.73-2.61,5.41,5.41,0,0,0-3.87.16C1833.55,1297.45,1826.49,1302,1815.25,1308.58Z"/><path class="cls-33" d="M1790.8,1326c.85,1.81,3.68,3.49,9.38,6.74l22.26-16.11a61.48,61.48,0,0,0-10.57-4.06,5.48,5.48,0,0,0-4.26.55c-7.94,4.7-14.92,8.79-14.92,8.79S1789.74,1323.76,1790.8,1326Z"/><path class="cls-34" d="M1800,1332.6c1.37.78,5.76,3.26,7,3.91,6.42,3.3,11.78,2.56,15.92-1.07.91-.8,6.18-5.4,11.84-11a52.82,52.82,0,0,0-12.12-7.77l-1.07-.48Z"/><path class="cls-27" d="M1822.22,1330.33h-.09l-9.79-1a.83.83,0,0,1,.18-1.66l8.67.89-1-5.69a.85.85,0,0,1,.68-1,.84.84,0,0,1,1,.68l1.22,6.79a.87.87,0,0,1-.21.72A.83.83,0,0,1,1822.22,1330.33Z"/><path class="cls-27" d="M1804.81,1324.22h0a.82.82,0,0,1-.79-.88l.26-4.61a.83.83,0,0,1,.75-.78l5.54-.58a.82.82,0,0,1,.92.75.85.85,0,0,1-.75.92l-4.83.5-.22,3.89A.83.83,0,0,1,1804.81,1324.22Z"/><path class="cls-35" d="M1478.28,1487.66s136,49.24,199.79,25.91a65,65,0,0,0,8.13-3.57c59.48-31.41,66.76-116.37,66.76-116.37l26.7,5.29s8.72,136.64-84.91,195.35c-46.08,28.89-116.94,38.92-225.83,4.49Z"/><path class="cls-36" d="M1754.31,1401l-1.35-7.4s-5.57-18.09,9.16-35.9c21.3-25.74,36.89-16.28,36.89-16.28a57,57,0,0,0-1,10.39,4.58,4.58,0,0,0,7.68,3.27l34.76-31.94s9.73,50.72-64.81,85.59Z"/><path class="cls-37" d="M1366,1310.86s5.66,11.34-31.25,29.05c-20.58,9.88-60.61,24.48-65.9,67.13-2.72,22-19,39.66-40.95,43-54.62,8.37-138.8,36.73-152.27,131.57-10.28,72.39,26.62,99.84,65.35,109.34,28.45,7,47.35,34.64,41.59,63.36-5.51,27.54,2.71,59.39,50.43,84.57,106.94,56.42,213.73-133.68,213.73-133.68l21.88-331.93Z"/><path class="cls-38" d="M1114.6,2602.49l-4.39,36a14.89,14.89,0,0,1-13.06,13c-11.55,1.32-30.09,2.67-48.24.75a12.74,12.74,0,0,1-10.7-16.53c4.42-13.92,12.51-34.81,24.18-47.1h40A12.33,12.33,0,0,1,1114.6,2602.49Z"/><path class="cls-39" d="M1427.78,2180.24l6.75,39.7s-22.6,228.93-26.62,320.5a71.8,71.8,0,0,0,10.61,40.78l39.3,63.81L1358,2586.1l-2-12.19,16.35-22.48L1350.89,2295a78.64,78.64,0,0,1,9-43.52l20.66-38.81Z"/><path class="cls-40" d="M1464.4,2654.28h-31.87a19.18,19.18,0,0,1-15.23-7.47c-9.94-12.91-30.53-38.1-40.37-38.76-13.25-.88-11.56,46.23-11.56,46.23H1358l-9.41-58.54a34.64,34.64,0,0,1,18.18-36.22h0s3,22.4,19.46,32.31,66.83,45.4,66.83,45.4a45.27,45.27,0,0,1,13,.34C1476,2639.39,1474.62,2654.28,1464.4,2654.28Z"/><path class="cls-41" d="M1291,2199.09s-132.4,251.16-153.45,308.5-28.42,105.18-28.7,109.71c-.44,7.08-9.25,13.87-33.52,13.87-12.52,0-18.65-5-21.66-9.88a14.17,14.17,0,0,1-.53-13.71c7.66-15.5,32-65,41-87.5,10.75-26.82,33.87-148.38,46.55-190.64s27-88.12,82.22-130.35C1222.85,2199.09,1260.75,2162,1291,2199.09Z"/><path class="cls-42" d="M1374.62,1787.57c34.15-144.73-52.37-226.58-52.37-226.58,43.87-42.11,116.71-65.78,143.64-73.45a21,21,0,0,1,19,3.88c23.1,18.66,84.23,72.83,75.07,117-6.6,31.83-66.72,190.67-66.72,190.67S1437.66,1825.43,1374.62,1787.57Z"/><path class="cls-43" d="M1298.89,1859.21c13.91-41.87,75.73-71.64,75.73-71.64,63,37.86,118.63,11.55,118.63,11.55s12.47,47.65,3.86,91.94-62.58,328.88-62.58,328.88c-85.06,17.23-215.89-17.34-215.89-17.34C1272.83,2106.41,1285,1901.09,1298.89,1859.21Z"/><path class="cls-44" d="M1414.26,1389.1l-27.77,124.73c-2.65,11,7.36,9.19,18.47,7.09,18.19-3.43,41.63-10.49,49.47-24.64a13.28,13.28,0,0,0,1.42-4.7l11.93-86.49a15.54,15.54,0,0,0-9.09-16.33l-23-10.21A15.55,15.55,0,0,0,1414.26,1389.1Z"/><path class="cls-45" d="M1467.45,1275.4s29.56,20,42.26,71-7.94,69.24-29.1,68.12-51.84-7.66-78.42-44.22S1428.71,1251,1467.45,1275.4Z"/><path class="cls-46" d="M1429,1349.71s-10.83-73,49.8-61.85l12.26,12.76s29.67-33.41-3.17-58.68-78.41-18.79-103.62,27.2S1349.9,1347.45,1371,1376s37,4.06,37,4.06-9.69-24.73-1.65-35.35,18.42,6.18,18.42,6.18Z"/><path class="cls-47" d="M1428.63,1363s-5.35-37.57-24.53-26.83,6.91,35.09,17.38,43.38Z"/><path class="cls-48" d="M1321.86,1563.12s-58.94,94.3-70.73,165,100.2,100.2,141.45,58.94l-5.89-29.47s-64.83,11.79-70.73-23.58S1369,1628,1369,1628,1351.33,1574.9,1321.86,1563.12Z"/><path class="cls-49" d="M1371.1,1847.64l67-234a6.83,6.83,0,0,1,5.77-4.92c12.14-1.41,47.32-5.39,87.93-8.83,48.92-4.13,105.73-7.49,139.68-4.63a6.85,6.85,0,0,1,5.6,9.85c-19.31,39-98.72,197.93-138.48,250a6.83,6.83,0,0,1-5.53,2.71l-155.45-1.44A6.84,6.84,0,0,1,1371.1,1847.64Z"/><path class="cls-4" d="M1538.75,1579.63l48.58-8.1a3.49,3.49,0,0,1,3.88,4.54l-4.81,14.57a3.48,3.48,0,0,1-2.85,2.36l-46.74,6.24A3.49,3.49,0,0,1,1533,1595l3-12.72A3.47,3.47,0,0,1,1538.75,1579.63Z"/><path class="cls-19" d="M1502.38,1620.75l4-20.84a4.83,4.83,0,0,1,4.24-3.89l98.12-10a4.81,4.81,0,0,1,5.17,5.92l-6.24,26a4.82,4.82,0,0,1-4.44,3.69l-95.88,4.82A4.81,4.81,0,0,1,1502.38,1620.75Z"/><path class="cls-50" d="M1387.29,1791.11s-9.34-38.38-5.57-52,11.06-31.12,35.37-27.23,53,14.13,53,14.13-1.45,17.74-19.93,12l11.46,8.86s-1.64,14.21-17.25,6.62l10.66,11.76s-6.7,11.66-18.19,4.18S1419.85,1795.73,1387.29,1791.11Z"/><path class="cls-4" d="M1154.26,1648.51a10,10,0,0,1-5.06-1.78c-25-16.28-38.32-49.88-32.42-81.71,3.55-19.06,13-35.51,26.63-46.31,9.67-7.66,21.15-12.33,32.08-16.46,18.44-7,37.43-13.11,56.44-18.25l4.71-1.26c11.11-3,22.61-6,33-11.22,13.33-6.68,23-16.38,27.36-27.33,2.68-6.8,3.45-14.35,4.2-21.64.91-9,1.86-18.19,6.34-26.11a.46.46,0,0,1,.64-.18.47.47,0,0,1,.17.64c-4.38,7.74-5.32,16.9-6.23,25.74-.75,7.36-1.53,15-4.25,21.89-4.4,11.17-14.28,21-27.82,27.82-10.48,5.25-22,8.32-33.18,11.29l-4.71,1.26c-19,5.13-37.94,11.26-56.35,18.22-10.86,4.11-22.26,8.75-31.83,16.32-13.45,10.66-22.79,26.91-26.29,45.75-5.84,31.47,7.32,64.68,32,80.76,1.83,1.2,5.33,2.66,6.83.56a.48.48,0,0,1,.65-.11.47.47,0,0,1,.11.65A3.54,3.54,0,0,1,1154.26,1648.51Z"/><path class="cls-4" d="M1147.84,1618.53a.47.47,0,0,1-.39-.2c-9.64-14.41-14.65-29.54-14.51-43.75.17-16.65,7.9-32.12,20.17-40.4a.47.47,0,0,1,.52.78c-12,8.1-19.59,23.28-19.76,39.63-.14,14,4.82,29,14.36,43.22a.47.47,0,0,1-.13.64A.42.42,0,0,1,1147.84,1618.53Z"/><path class="cls-4" d="M2702.17,2411.35c7.95,11.76,39.55,278.09,44.49,376.45a11.66,11.66,0,0,1-23.16,2.34l-57.79-370.32Z"/><path class="cls-4" d="M2448.16,2411.35c-7.95,11.76-39.54,278.09-44.49,376.45a11.66,11.66,0,0,0,23.16,2.34l57.79-370.32Z"/><path class="cls-4" d="M2750,2390.57l0,2.9c.19,20.89-17.81,38-40.35,38.42l-267.1,4.54c-22.21.38-40.73-15.68-41.81-36.25l-.14-2.65c-1.12-21.46,17.1-39.53,40.26-39.94l267.22-4.79C2730.94,2352.39,2749.77,2369.36,2750,2390.57Z"/><path class="cls-51" d="M2230.34,2778.13c47.48,0,68.49-4.08,77.88-7.79a18,18,0,0,1-17.55,13.95h-168a8.17,8.17,0,0,1-7.88-10.31C2134,2775.52,2174.64,2778.13,2230.34,2778.13Z"/><path class="cls-52" d="M2114.82,2774a7.88,7.88,0,0,1,1.38-2.86c12.79-16.34,38.5-42,73.46-41.5,51.22.72,69.08,6.28,108.89.31l9.39,31.13a17.9,17.9,0,0,1,.28,9.28c-9.39,3.71-30.4,7.79-77.88,7.79C2174.64,2778.13,2134,2775.52,2114.82,2774Z"/><path class="cls-53" d="M2287,2696.39l11.53,39.2s-25.54,11.63-48,2.29l-4.41-34Z"/><path class="cls-54" d="M1938.87,2753.44c37,29.74,55.93,39.74,65.57,42.74a18,18,0,0,1-22.38-.16L1851.12,2690.8a8.13,8.13,0,0,1,.29-12.93C1865.38,2691.05,1895.45,2718.55,1938.87,2753.44Z"/><path class="cls-55" d="M1851.41,2677.87a7.93,7.93,0,0,1,2.85-1.36c20.16-4.66,56.19-8.47,83.14,13.82,39.48,32.64,49.94,48.14,84.69,68.44l-12.09,30a17.67,17.67,0,0,1-5.56,7.38c-9.64-3-28.56-13-65.57-42.74C1895.45,2718.55,1865.38,2691.05,1851.41,2677.87Z"/><path class="cls-56" d="M2533.59,2249.75S2249.32,2273,2191,2300.42s47.59,412.21,47.59,412.21,15.88,7.64,51.2-3.34c0,0-36.22-283.94-9.27-345.51l307.8-50.34Z"/><path class="cls-57" d="M2050.33,2704.72c-2.64,2.41-28.24,54.05-28.24,54.05s-28.51-6.17-34.32-24.21l25.65-46.61Z"/><path class="cls-58" d="M2704.81,2247.38a144,144,0,0,1,8.88,51.91c-.52,41-33.46,74.21-74.37,76.25l-336.06,15.33a16.11,16.11,0,0,0-14.88,12.11c-7.9,30.54-46.5,124.35-235.18,311.52a15.21,15.21,0,0,1-18.82,2.05l-26.86-17a6.18,6.18,0,0,1-2-8.35l195.67-334.14a75.73,75.73,0,0,1,46-34.12l286.43-73.22Z"/><path class="cls-59" d="M2373.62,1725.43s36,63.65,72.71,94.48l-75.87,42.33s-17.09-67.38-56.15-87.11Z"/><path class="cls-60" d="M2710.91,2249.75s-90.72,22.11-177.32,0c0,0-121.17-162.89-168.05-207.22,0,0-74.78,118-241.21,134.71L2115,2156.5s132.51-61.08,173.3-154.93,57.17-133.88,94.28-158.37c23.11-15.25,37-25.66,44.1-31.35a11.88,11.88,0,0,1,13.6-.87C2479.7,1835,2665,1961.91,2710.91,2249.75Z"/><path class="cls-61" d="M2371.78,2035.43l-2.77-1.84,44.84-79.48,3,1.41C2416.69,1956,2400.31,1998.23,2371.78,2035.43Z"/><path class="cls-62" d="M2134.33,2145.67l-18.73-5-56.88-13.18a26.39,26.39,0,0,0-20,3.37l-48.91,30.78,135.06-.23Z"/><path class="cls-63" d="M2316.46,1630s-35,58.16-41.05,90.3-15.82,52.24,20.76,63.7,70.59-3,91.93-33c0,0,33.32-46.18,30-67.33S2316.46,1630,2316.46,1630Z"/><path class="cls-64" d="M2378.36,1726.05l-4.74-.62s24.78-37.44,8.57-46.72-82.27-32.08-93.74-58.09c-11.06-25.08,5.48-53.42,25.43-59.33a2.54,2.54,0,0,1,3,1.61l1.17,3.16a2.56,2.56,0,0,0,4.75.13,2.55,2.55,0,0,1,4.65-.09c3.54,7.79,14.13,21.1,45.9,31.4,45.08,14.61,73.16,37.34,69.7,69.36a2.57,2.57,0,0,0,3.66,2.61c3.69-1.63,9.27-1.89,15.76,5.21,11.28,12.33,2.44,39.32-28.36,58.42a2.54,2.54,0,0,0-.42,4.09c4.61,4,11.09,12.74-9.75,20.59-21.32,8-33,5.31-37.26,3.58a2.57,2.57,0,0,1-1.58-2.88l5.48-28.07a2.56,2.56,0,0,0-2.18-3Z"/><path class="cls-65" d="M2374.17,1729.57s15.43-38.06,31.65-24.68-15,42.95-29.39,42.55Z"/><path class="cls-66" d="M2186.51,2188.14l-.66,0-288.54-.29a12.89,12.89,0,1,1,0-25.78l288.54.28a12.89,12.89,0,0,1,.63,25.77Z"/><path class="cls-19" d="M2058,2202.62c1.26,5.22,121.65,456.76,152.18,571.23a20.53,20.53,0,1,1-39.71,10.42l-133.65-541.86Z"/><path class="cls-19" d="M1992.11,2202.62c-1.26,5.22-121.65,456.76-152.18,571.23a20.53,20.53,0,1,0,39.71,10.42l133.65-541.86Z"/><path class="cls-19" d="M1987.09,2187.86h75v60.21a15.57,15.57,0,0,1-15.48,15.67h-10.28V2399a11.73,11.73,0,1,1-23.45,0V2263.74h-5.22a20.67,20.67,0,0,1-20.55-20.79Z"/><path class="cls-19" d="M2246.44,2173.39H1827.76a12.86,12.86,0,0,0-12.42,9.75l-5.85,22.92a13,13,0,0,0,12.5,16.23l429.61-2.5a13,13,0,0,0,12.37-16.16l-5.09-20.42A12.86,12.86,0,0,0,2246.44,2173.39Z"/><rect class="cls-4" x="292.38" y="2440.49" width="29.56" height="319.71" transform="translate(614.32 5200.7) rotate(180)"/><path class="cls-4" d="M177.69,2766.37H436.63V2765a17.86,17.86,0,0,0-17.86-17.86H196.94A19.25,19.25,0,0,0,177.69,2766.37Z"/><rect class="cls-4" x="139.26" y="2368.85" width="325.56" height="92.33" rx="31.79"/><path class="cls-67" d="M525.41,2227.32s43.93,6.81,93.33,39.82a24.63,24.63,0,0,1,10.86,23.53c-5.91,46.85-30.23,198.48-110.42,346.58a37.32,37.32,0,0,0-3.57,25.59l13.93,64.83,25.83,24.22H488.83L444.52,2632l19-6a35.86,35.86,0,0,0,25-33.56l2.22-128.63c-1.89-57.3,35.14-96.84,35.14-96.84l-106.27-5.17Z"/><path class="cls-68" d="M581.36,2763.59c6.06,7.93-65.23,18.4-101.25,1,0,0-49.92-86.87-49.92-131.59,0,0,4-9.12,33.28-7.05,0,0,16.76,102.85,34.46,114.37s49.52,1.17,49.52,1.17S572.42,2751.89,581.36,2763.59Z"/><path class="cls-69" d="M433,2368.85c.57-1,114.42-13.69,114.42-13.69s-3.72,34.62,7.92,82.28,178.81,254.12,178.81,254.12l-17.52,55.56c54.19,18.88,107.5,21.9,160,9.63L768,2691.56s-101.66-346.44-163.93-408.25l-114.13-39.48Z"/><path class="cls-70" d="M177.69,2167.27s-65.59,97.57-71,142.08,18,62.59,86.8,65.57,252.57,2.93,252.57,2.93l156.83-134s-114.29-40.78-144-52.31S177.69,2167.27,177.69,2167.27Z"/><path class="cls-71" d="M723.28,2728.41s-18.87,18.28-6.12,38.62c0,0,149.48,26.49,190.07,14.47,0,0-8.43-19.24-54.13-41.13l3.37,2.59a5.46,5.46,0,0,1-3.61,9.79C822.75,2751,760.43,2745.52,723.28,2728.41Z"/><path class="cls-72" d="M395.42,1592.66c-11.05-1.54-51.74-5.36-59.39,20.73-1,3.46-5.1,4.76-7.53,2.48-12.47-11.69-42.07-33.43-76-16.1-29.92,15.3-28.22,44.84-23.76,62.83,1.07,4.34-3.6,8.16-7.11,5.73-25-17.28-83.08-47.67-122.83,7.35-37.07,51.31-9.45,85,9.41,100.06,3.18,2.55,1.44,8.09-2.71,8.67-14.19,2-34,10.9-44.05,43.12-15.79,50.5,69.78,88.86,79.86,93.19a4.26,4.26,0,0,0,2,.31l176.07-15.9a5,5,0,0,0,3.52-2.08l113.11-157a5.25,5.25,0,0,0,.85-4.34l-38-145.84A4.22,4.22,0,0,0,395.42,1592.66Z"/><path class="cls-73" d="M355.1,2154.36s76.38-72.74,114-120.92a102.24,102.24,0,0,0,17.3-92c-17.16-57.83-47.67-117.74-50.45-127.06-4.27-14.29-89.92-13.7-89.92-13.7s-168.55,109.39-234.77,294.69l74.37,23.15s44-73.83,87.49-120.77c0,0-75.24,99.39-77.89,140.08Z"/><path class="cls-74" d="M446.29,1734.51c-.89,3-23.25,77.09-25,78.62s-49,4.09-71.28-11.12l37.75-79Z"/><path class="cls-75" d="M509.47,1630s18.66,39.64.14,101.37-51.76,68.09-73.39,53.65-49.9-40.57-55.05-95.8S483.92,1579.91,509.47,1630Z"/><path class="cls-76" d="M422.34,1684.3s34.32-83.84,91.29-34.07l4.94,21.15s52.26-16.67,33.43-63.9-81.09-84.62-136.51-51.88-75.2,76.76-70.8,120.15,36.52,27.5,36.52,27.5,5.27-32.18,20.41-38.34,15.56,18,15.56,18Z"/><path class="cls-77" d="M411.42,1701.39s17.89-43-9.08-43.68-14.69,41.36-8.84,56.66Z"/><path class="cls-78" d="M510.72,2159.76l-56.13-54.1L377,2138.46s-77.28,12-121.51,0l-44.23-12-100-31.12-15.7,44.36a26.72,26.72,0,0,0,9.76,30.69c8.65,6.15,18.79,12.9,25.25,15.73,13.16,5.76,324.48-4,324.48-4Z"/><path class="cls-79" d="M298.32,2185.26l.75,0,325.57-.36a14.57,14.57,0,1,0,0-29.14l-325.57.35a14.57,14.57,0,0,0-.72,29.13Z"/><path class="cls-80" d="M917.31,1889.66H646.18a51.67,51.67,0,0,0-46.74,29.64L474.09,2185.09H811a31.41,31.41,0,0,0,29.21-19.87l97.2-245.94A21.66,21.66,0,0,0,917.31,1889.66Z"/><path class="cls-22" d="M726.29,2025.94c-5.87,18.26-1.53,36,9.7,39.6s25.09-8.25,31-26.51,1.54-36-9.69-39.6S732.17,2007.69,726.29,2025.94Z"/><path class="cls-19" d="M943.38,2798.35a12.06,12.06,0,0,0,4.71-1,11.63,11.63,0,0,0,6.24-15.38l-250-570.87a12,12,0,0,0-15.67-6.13,11.64,11.64,0,0,0-6.24,15.39l250,570.86A11.93,11.93,0,0,0,943.38,2798.35Z"/><path class="cls-19" d="M661.7,2798.35a11.94,11.94,0,0,0,11-7.09l250-570.86a11.64,11.64,0,0,0-6.24-15.39,12,12,0,0,0-15.66,6.13L650.75,2782a11.63,11.63,0,0,0,6.24,15.38A12.1,12.1,0,0,0,661.7,2798.35Z"/><path class="cls-19" d="M321.48,2798.35a12.1,12.1,0,0,0,4.71-1,11.63,11.63,0,0,0,6.24-15.38l-250-570.87A12,12,0,0,0,66.72,2205a11.64,11.64,0,0,0-6.24,15.39l250,570.86A11.94,11.94,0,0,0,321.48,2798.35Z"/><path class="cls-19" d="M39.8,2798.35a11.93,11.93,0,0,0,11-7.09L300.8,2220.4a11.64,11.64,0,0,0-6.24-15.39,12,12,0,0,0-15.66,6.13L28.85,2782a11.63,11.63,0,0,0,6.24,15.38A12.06,12.06,0,0,0,39.8,2798.35Z"/><path class="cls-19" d="M16.47,2197.15a16,16,0,0,1,2-10.41c1.77-2.9,4.41-4.58,7.19-4.58H967.56c3.65,0,7.06,2.52,9,6.69a19,19,0,0,1,.7,13.89l-10.21,29.87c-2.33,6.84-7.4,11.22-13,11.22h-922c-5.18,0-9.64-5-10.62-11.86Z"/></g></g></g></svg>