<svg xmlns="http://www.w3.org/2000/svg" xmlns:xlink="http://www.w3.org/1999/xlink" viewBox="0 0 2109.78 1342.66"><defs><style>.cls-1{isolation:isolate;}.cls-2{fill:url(#linear-gradient);}.cls-3{fill:#bdd0fb;}.cls-4{fill:url(#linear-gradient-2);}.cls-5,.cls-53,.cls-8{fill:#fff;}.cls-5{opacity:0.62;}.cls-6{fill:url(#linear-gradient-3);}.cls-7{opacity:0.68;}.cls-8{mix-blend-mode:soft-light;}.cls-9{fill:url(#linear-gradient-4);}.cls-10{fill:url(#linear-gradient-5);}.cls-11{fill:url(#linear-gradient-6);}.cls-12{fill:url(#linear-gradient-7);}.cls-13{fill:url(#linear-gradient-8);}.cls-14{fill:url(#linear-gradient-9);}.cls-15{fill:url(#linear-gradient-10);}.cls-16{fill:url(#linear-gradient-11);}.cls-17{fill:url(#linear-gradient-12);}.cls-18{fill:url(#linear-gradient-13);}.cls-19{fill:url(#linear-gradient-14);}.cls-20{fill:url(#linear-gradient-15);}.cls-21{fill:url(#linear-gradient-16);}.cls-22{fill:#7d97f4;}.cls-23{fill:url(#linear-gradient-17);}.cls-24{fill:url(#linear-gradient-18);}.cls-25{fill:url(#linear-gradient-19);}.cls-26{fill:url(#linear-gradient-20);}.cls-27{fill:url(#linear-gradient-21);}.cls-28{fill:url(#linear-gradient-22);}.cls-29{fill:url(#linear-gradient-23);}.cls-30{fill:url(#linear-gradient-24);}.cls-31{fill:url(#linear-gradient-25);}.cls-32{fill:url(#linear-gradient-26);}.cls-33{fill:#91b3fa;}.cls-34{fill:url(#linear-gradient-27);}.cls-35{fill:url(#linear-gradient-28);}.cls-36{fill:url(#linear-gradient-29);}.cls-37{fill:url(#linear-gradient-30);}.cls-38{fill:url(#linear-gradient-31);}.cls-39{fill:url(#linear-gradient-32);}.cls-40{fill:url(#linear-gradient-33);}.cls-41{fill:url(#linear-gradient-34);}.cls-42{fill:url(#linear-gradient-35);}.cls-43{fill:url(#linear-gradient-36);}.cls-44{fill:url(#linear-gradient-37);}.cls-45{fill:url(#linear-gradient-38);}.cls-46{fill:url(#linear-gradient-39);}.cls-47{fill:url(#linear-gradient-40);}.cls-48{fill:url(#linear-gradient-41);}.cls-49{fill:url(#linear-gradient-42);}.cls-50{fill:url(#linear-gradient-43);}.cls-51{fill:url(#linear-gradient-44);}.cls-52{fill:url(#linear-gradient-45);}.cls-54{fill:url(#linear-gradient-46);}.cls-55{fill:url(#linear-gradient-47);}.cls-56{fill:url(#linear-gradient-48);}.cls-57{fill:url(#linear-gradient-49);}.cls-58{fill:url(#linear-gradient-50);}.cls-59{fill:url(#linear-gradient-51);}.cls-60{fill:url(#linear-gradient-52);}.cls-61{fill:url(#linear-gradient-53);}.cls-62{fill:url(#linear-gradient-54);}.cls-63{fill:url(#linear-gradient-55);}.cls-64{fill:url(#linear-gradient-56);}.cls-65{fill:url(#linear-gradient-57);}.cls-66{fill:url(#linear-gradient-58);}.cls-67{fill:url(#linear-gradient-59);}.cls-68{fill:url(#linear-gradient-60);}.cls-69{fill:url(#linear-gradient-61);}.cls-70{fill:url(#linear-gradient-62);}.cls-71{fill:url(#linear-gradient-63);}.cls-72{fill-rule:evenodd;fill:url(#linear-gradient-64);}.cls-73{fill:url(#linear-gradient-65);}.cls-74{fill:url(#linear-gradient-66);}.cls-75{fill:url(#linear-gradient-67);}.cls-76{fill:url(#linear-gradient-68);}.cls-77{fill:url(#linear-gradient-69);}.cls-78{fill:url(#linear-gradient-70);}.cls-79{fill:url(#linear-gradient-71);}.cls-80{fill:url(#linear-gradient-72);}.cls-81{fill:url(#linear-gradient-73);}.cls-82{fill:url(#linear-gradient-74);}.cls-83{fill:url(#linear-gradient-75);}.cls-84{fill:url(#linear-gradient-76);}.cls-85{fill:url(#linear-gradient-77);}.cls-86{fill:url(#linear-gradient-78);}.cls-87{fill:url(#linear-gradient-79);}.cls-88{fill:url(#linear-gradient-80);}.cls-89{fill:url(#linear-gradient-81);}.cls-90{fill:url(#linear-gradient-82);}.cls-91{fill:url(#linear-gradient-83);}.cls-92{fill:url(#linear-gradient-84);}</style><linearGradient id="linear-gradient" x1="14.41" y1="666.2" x2="2109.78" y2="666.2" gradientUnits="userSpaceOnUse"><stop offset="0" stop-color="#dae3fe"/><stop offset="1" stop-color="#e9effd"/></linearGradient><linearGradient id="linear-gradient-2" x1="1324.72" y1="681.88" x2="1445.9" y2="681.88" xlink:href="#linear-gradient"/><linearGradient id="linear-gradient-3" x1="1015.57" y1="689.28" x2="775.07" y2="140.08" gradientTransform="translate(1737.14 -327.19) rotate(87.49)" gradientUnits="userSpaceOnUse"><stop offset="0" stop-color="#fe7062"/><stop offset="1" stop-color="#ff928e"/></linearGradient><linearGradient id="linear-gradient-4" x1="1419.86" y1="358.71" x2="1470.71" y2="411.82" gradientUnits="userSpaceOnUse"><stop offset="0" stop-color="#09005d"/><stop offset="1" stop-color="#1a0f91"/></linearGradient><linearGradient id="linear-gradient-5" x1="1341.37" y1="306.02" x2="1394.32" y2="106.58" xlink:href="#linear-gradient-4"/><linearGradient id="linear-gradient-6" x1="1502.73" y1="479.49" x2="1490.73" y2="544.82" xlink:href="#linear-gradient-4"/><linearGradient id="linear-gradient-7" x1="1442.88" y1="400.43" x2="1494.22" y2="504.43" gradientUnits="userSpaceOnUse"><stop offset="0" stop-color="#4042e2"/><stop offset="1" stop-color="#4f52ff"/></linearGradient><linearGradient id="linear-gradient-8" x1="1523.1" y1="527.03" x2="1633.77" y2="681.69" xlink:href="#linear-gradient-7"/><linearGradient id="linear-gradient-9" x1="1426.96" y1="249.73" x2="1402.96" y2="293.06" xlink:href="#linear-gradient-4"/><linearGradient id="linear-gradient-10" x1="1312.35" y1="246.59" x2="1247.01" y2="370.59" gradientUnits="userSpaceOnUse"><stop offset="0" stop-color="#ff928e"/><stop offset="1" stop-color="#feb3b1"/></linearGradient><linearGradient id="linear-gradient-11" x1="1257.08" y1="147.32" x2="925.87" y2="580.43" xlink:href="#linear-gradient-7"/><linearGradient id="linear-gradient-12" x1="1307.25" y1="210.08" x2="1283.91" y2="254.08" xlink:href="#linear-gradient-10"/><linearGradient id="linear-gradient-13" x1="1182.91" y1="115.41" x2="1166.91" y2="190.74" xlink:href="#linear-gradient-10"/><linearGradient id="linear-gradient-14" x1="1190.44" y1="11.59" x2="1193.77" y2="96.92" xlink:href="#linear-gradient-10"/><linearGradient id="linear-gradient-15" x1="1182.44" y1="-12.31" x2="1202.14" y2="100.07" xlink:href="#linear-gradient-4"/><linearGradient id="linear-gradient-16" x1="1165.48" y1="12.56" x2="1168.81" y2="97.89" xlink:href="#linear-gradient-10"/><linearGradient id="linear-gradient-17" x1="1243.27" y1="62.79" x2="1238.6" y2="146.12" xlink:href="#linear-gradient-4"/><linearGradient id="linear-gradient-18" x1="1188.77" y1="59.73" x2="1184.1" y2="143.07" xlink:href="#linear-gradient-4"/><linearGradient id="linear-gradient-19" x1="1151.59" y1="57.65" x2="1146.92" y2="140.99" xlink:href="#linear-gradient-4"/><linearGradient id="linear-gradient-20" x1="1017.2" y1="682.13" x2="909.72" y2="1127.84" xlink:href="#linear-gradient-7"/><linearGradient id="linear-gradient-21" x1="1013.23" y1="83.43" x2="1013.23" y2="515.43" xlink:href="#linear-gradient-7"/><linearGradient id="linear-gradient-22" x1="616.72" y1="754.17" x2="797.98" y2="754.17" xlink:href="#linear-gradient"/><linearGradient id="linear-gradient-23" x1="805.36" y1="754.17" x2="986.62" y2="754.17" xlink:href="#linear-gradient"/><linearGradient id="linear-gradient-24" x1="994" y1="754.17" x2="1175.26" y2="754.17" xlink:href="#linear-gradient"/><linearGradient id="linear-gradient-25" x1="1201.78" y1="742.59" x2="1214.43" y2="742.59" xlink:href="#linear-gradient"/><linearGradient id="linear-gradient-26" x1="1291.24" y1="843.99" x2="1552.27" y2="843.99" xlink:href="#linear-gradient"/><linearGradient id="linear-gradient-27" x1="473.51" y1="1215.54" x2="597.36" y2="1215.54" xlink:href="#linear-gradient"/><linearGradient id="linear-gradient-28" x1="-440.57" y1="1078.22" x2="-464.97" y2="1126.21" gradientTransform="matrix(-0.98, -0.22, -0.22, 0.98, 1516.84, 84.27)" xlink:href="#linear-gradient-4"/><linearGradient id="linear-gradient-29" x1="-486.97" y1="1097.32" x2="-462.66" y2="1097.32" gradientTransform="matrix(-0.98, -0.22, -0.22, 0.98, 1516.84, 84.27)" xlink:href="#linear-gradient-10"/><linearGradient id="linear-gradient-30" x1="-520.61" y1="1033" x2="-417.32" y2="888.23" gradientTransform="matrix(-0.98, -0.22, -0.22, 0.98, 1516.84, 84.27)" gradientUnits="userSpaceOnUse"><stop offset="0" stop-color="#2b3582"/><stop offset="0.23" stop-color="#252a70"/><stop offset="0.73" stop-color="#19164f"/><stop offset="1" stop-color="#150e42"/></linearGradient><linearGradient id="linear-gradient-31" x1="-454.73" y1="1126.74" x2="-539.32" y2="1237.36" gradientTransform="matrix(-0.98, -0.22, -0.22, 0.98, 1516.84, 84.27)" xlink:href="#linear-gradient-4"/><linearGradient id="linear-gradient-32" x1="1721.71" y1="1331.11" x2="1723.05" y2="1203.77" xlink:href="#linear-gradient-7"/><linearGradient id="linear-gradient-33" x1="-504.55" y1="1119.75" x2="-481.73" y2="1119.75" gradientTransform="matrix(-0.98, -0.22, -0.22, 0.98, 1516.84, 84.27)" xlink:href="#linear-gradient-10"/><linearGradient id="linear-gradient-34" x1="-557.84" y1="1105.15" x2="-552.15" y2="911.58" gradientTransform="matrix(-0.98, -0.22, -0.22, 0.98, 1516.84, 84.27)" xlink:href="#linear-gradient-4"/><linearGradient id="linear-gradient-35" x1="-473.32" y1="881.07" x2="-415.56" y2="822.89" gradientTransform="matrix(-0.98, -0.22, -0.22, 0.98, 1516.84, 84.27)" xlink:href="#linear-gradient-7"/><linearGradient id="linear-gradient-36" x1="-422.45" y1="879.63" x2="-342.87" y2="879.63" gradientTransform="matrix(-0.98, -0.22, -0.22, 0.98, 1516.84, 84.27)" xlink:href="#linear-gradient-10"/><linearGradient id="linear-gradient-37" x1="1813.98" y1="887.51" x2="1965.18" y2="1155.8" xlink:href="#linear-gradient-7"/><linearGradient id="linear-gradient-38" x1="1795.62" y1="855.78" x2="1858.28" y2="962.45" xlink:href="#linear-gradient-10"/><linearGradient id="linear-gradient-39" x1="1872.08" y1="854.76" x2="2023.28" y2="1123.06" xlink:href="#linear-gradient-7"/><linearGradient id="linear-gradient-40" x1="1950.48" y1="974.56" x2="1929.81" y2="1019.22" xlink:href="#linear-gradient-10"/><linearGradient id="linear-gradient-41" x1="-2180.54" y1="888.46" x2="-2193.88" y2="780.45" gradientTransform="matrix(-1, -0.06, -0.06, 1, -733.62, 2107.7)" xlink:href="#linear-gradient-10"/><linearGradient id="linear-gradient-42" x1="-2494.37" y1="-1394.52" x2="-2415.53" y2="-1394.52" gradientTransform="matrix(-1, -0.06, -0.06, 1, -733.62, 2107.7)" xlink:href="#linear-gradient-4"/><linearGradient id="linear-gradient-43" x1="-2209.02" y1="891.97" x2="-2222.35" y2="783.97" gradientTransform="matrix(-1, -0.06, -0.06, 1, -733.62, 2107.7)" xlink:href="#linear-gradient-10"/><linearGradient id="linear-gradient-44" x1="12231.2" y1="1735.97" x2="12127.7" y2="1764.34" gradientTransform="translate(-10470.11 -96.68) rotate(-2.83)" xlink:href="#linear-gradient-4"/><linearGradient id="linear-gradient-45" x1="1713.53" y1="1054.49" x2="1623.53" y2="997.16" xlink:href="#linear-gradient-4"/><linearGradient id="linear-gradient-46" x1="402.41" y1="386.68" x2="548.27" y2="386.68" xlink:href="#linear-gradient"/><linearGradient id="linear-gradient-47" x1="561.66" y1="452.36" x2="573.73" y2="452.36" xlink:href="#linear-gradient"/><linearGradient id="linear-gradient-48" x1="99.56" y1="662.81" x2="-8.56" y2="791.28" gradientTransform="matrix(-1, 0, 0, 1, 230.68, 0)" xlink:href="#linear-gradient-4"/><linearGradient id="linear-gradient-49" x1="1590.45" y1="803.22" x2="1561.95" y2="908.68" gradientTransform="translate(-1206.27)" xlink:href="#linear-gradient-10"/><linearGradient id="linear-gradient-50" x1="6011.4" y1="704.45" x2="5994.54" y2="160.72" gradientTransform="translate(-5792.04 604.56) rotate(-7.16)" xlink:href="#linear-gradient-7"/><linearGradient id="linear-gradient-51" x1="320.47" y1="722.72" x2="287.47" y2="817.72" xlink:href="#linear-gradient-10"/><linearGradient id="linear-gradient-52" x1="-9031.19" y1="1485.94" x2="-9013.19" y2="1600.94" gradientTransform="matrix(-0.96, -0.28, -0.28, 0.96, -7819, -3462.59)" xlink:href="#linear-gradient-10"/><linearGradient id="linear-gradient-53" x1="-8886.4" y1="1642.41" x2="-8973.74" y2="1746.19" gradientTransform="matrix(-0.96, -0.28, -0.28, 0.96, -7819, -3462.59)" xlink:href="#linear-gradient-4"/><linearGradient id="linear-gradient-54" x1="-9004.12" y1="1481.7" x2="-8986.12" y2="1596.7" gradientTransform="matrix(-0.96, -0.28, -0.28, 0.96, -7819, -3462.59)" xlink:href="#linear-gradient-10"/><linearGradient id="linear-gradient-55" x1="5856.56" y1="1381.61" x2="6015.29" y2="1101.41" gradientTransform="translate(-5668.24 49.21) rotate(-0.54)" xlink:href="#linear-gradient-10"/><linearGradient id="linear-gradient-56" x1="5891.16" y1="1282.54" x2="5937.56" y2="1282.54" gradientTransform="translate(-5668.24 49.21) rotate(-0.54)" xlink:href="#linear-gradient-4"/><linearGradient id="linear-gradient-57" x1="477.21" y1="998.92" x2="387.21" y2="1097.91" xlink:href="#linear-gradient-10"/><linearGradient id="linear-gradient-58" x1="5934.18" y1="1290.92" x2="5989.49" y2="1290.92" gradientTransform="translate(-5668.24 49.21) rotate(-0.54)" xlink:href="#linear-gradient-4"/><linearGradient id="linear-gradient-59" x1="6010.79" y1="919.42" x2="5878.28" y2="1214.81" gradientTransform="translate(-5668.24 49.21) rotate(-0.54)" xlink:href="#linear-gradient-4"/><linearGradient id="linear-gradient-60" x1="319.2" y1="741.7" x2="316.2" y2="795.7" xlink:href="#linear-gradient-10"/><linearGradient id="linear-gradient-61" x1="-9228.26" y1="216.47" x2="-9248.91" y2="238.29" gradientTransform="matrix(-0.99, -0.16, -0.21, 1.26, -8667.97, -961.17)" xlink:href="#linear-gradient-4"/><linearGradient id="linear-gradient-62" x1="1621.94" y1="814.37" x2="1606.92" y2="869.95" gradientTransform="translate(-1206.27)" xlink:href="#linear-gradient-10"/><linearGradient id="linear-gradient-63" x1="1505.11" y1="73.69" x2="1592.91" y2="73.69" xlink:href="#linear-gradient"/><linearGradient id="linear-gradient-64" x1="1535.26" y1="74.81" x2="1570.55" y2="74.81" xlink:href="#linear-gradient"/><linearGradient id="linear-gradient-65" x1="150.55" y1="216.77" x2="271.71" y2="216.77" xlink:href="#linear-gradient"/><linearGradient id="linear-gradient-66" x1="176.49" y1="200.97" x2="269.22" y2="200.97" xlink:href="#linear-gradient"/><linearGradient id="linear-gradient-67" x1="204.94" y1="223.09" x2="215.48" y2="223.09" xlink:href="#linear-gradient"/><linearGradient id="linear-gradient-68" x1="234.45" y1="223.09" x2="244.98" y2="223.09" xlink:href="#linear-gradient"/><linearGradient id="linear-gradient-69" x1="182.81" y1="224.15" x2="265.01" y2="224.15" xlink:href="#linear-gradient"/><linearGradient id="linear-gradient-70" x1="198.24" y1="267.16" x2="212.93" y2="267.16" xlink:href="#linear-gradient"/><linearGradient id="linear-gradient-71" x1="243.02" y1="267.16" x2="257.72" y2="267.16" gradientTransform="translate(34.52 -28.59) rotate(7.02)" xlink:href="#linear-gradient"/><linearGradient id="linear-gradient-72" x1="1684.39" y1="499.17" x2="1791.88" y2="499.17" xlink:href="#linear-gradient"/><linearGradient id="linear-gradient-73" x1="1686.33" y1="483.38" x2="1787.82" y2="483.38" xlink:href="#linear-gradient"/><linearGradient id="linear-gradient-74" x1="1687.17" y1="511.96" x2="1725.22" y2="511.96" xlink:href="#linear-gradient"/><linearGradient id="linear-gradient-75" x1="1749.23" y1="511.97" x2="1787.28" y2="511.97" xlink:href="#linear-gradient"/><linearGradient id="linear-gradient-76" x1="53.47" y1="643.45" x2="121.33" y2="643.45" xlink:href="#linear-gradient"/><linearGradient id="linear-gradient-77" x1="1914.45" y1="807.3" x2="1941.33" y2="807.3" xlink:href="#linear-gradient"/><linearGradient id="linear-gradient-78" x1="1921.64" y1="791.5" x2="1964.58" y2="791.5" xlink:href="#linear-gradient"/><linearGradient id="linear-gradient-79" x1="1918.17" y1="779.61" x2="1985.25" y2="779.61" xlink:href="#linear-gradient"/><linearGradient id="linear-gradient-80" x1="1914.7" y1="767.73" x2="2005.82" y2="767.73" xlink:href="#linear-gradient"/><linearGradient id="linear-gradient-81" x1="1867.75" y1="291.84" x2="1958.37" y2="291.84" xlink:href="#linear-gradient"/><linearGradient id="linear-gradient-82" x1="823.88" y1="1060.99" x2="851.88" y2="1840.99" gradientUnits="userSpaceOnUse"><stop offset="0" stop-color="#e1473d"/><stop offset="1" stop-color="#e9605a"/></linearGradient><linearGradient id="linear-gradient-83" x1="823.88" y1="1060.99" x2="851.88" y2="1840.99" xlink:href="#linear-gradient-82"/><linearGradient id="linear-gradient-84" x1="954.43" y1="1056.3" x2="982.43" y2="1836.3" xlink:href="#linear-gradient-82"/></defs><g class="cls-1"><g id="Слой_2" data-name="Слой 2"><g id="Illustration"><path class="cls-2" d="M2050.49,731.4c-36.33-36.87-79.29-72.83-90.49-122.89-19.39-86.63,63.51-160.5,90.64-245.11,18.77-58.5,9.09-125.11-25.6-176.16s-93.67-85.49-156-91.09c-107.23-9.64-212.18,61.16-317.81,40.66C1466.66,120.39,1399.82,48,1314,40.2c-101-9.13-184.86,72.59-281.34,103.36-115.4,36.81-240.51-1.66-354-43.86S445.82,10.4,326.22,30.6C193.1,53.08,81.48,166.75,63.68,298,46,428,194,532.38,68.05,688.52,28.68,737.32,2.49,805.25,19.9,865.07c16.91,58.12,88.86,94.88,89.39,155.31.41,47.71-45.5,85.67-49.2,133.24-3.17,40.83,26.8,78.58,63.63,97.94s79.57,24.08,121.12,28.47h0a8.25,8.25,0,0,0-1.68,9,9.41,9.41,0,0,0,7.94,5.45c203.2,16.59,407.57,12.62,611.47,8.63l994-19.47c34-.66,68.93-1.48,100.66-13.62s60.18-38.1,65-71.13c8.23-56.22-51.74-105-46.2-161.55,7.07-72.19,110.82-100,130.56-169.93C2120.51,818,2086.82,768.28,2050.49,731.4Z"/><path class="cls-3" d="M1037.28,1285.21S887.75,1080.38,912.05,886.75s145.66-170.54,199.65-56,102.54,98.79,70.46-8.86-72.29-177.72-5.82-284.88,73.37-152.69,36-248.31S1128.11,57.55,1276.72,9.2s296.67,100.19,262,294.58-55.47,215.56-7.74,287.56,27.84,101.58,21.08,148.45,66.16,57.84,64.61-8.17-94.32-221.82-31-294.51,187.41-73.48,219.19,94.6-70,243.6-65,304.39,59.75-31.39,107.39,30.58-16.5,110.65-63.7,144.23-118.36,93.76-50.64,137.47,131.83,1.88,90.35,136.83Z"/><path class="cls-4" d="M1344.69,149.38A78.19,78.19,0,0,1,1358,159.55a108.25,108.25,0,0,1,11.56,12.51,142.83,142.83,0,0,1,18.24,29.65c9.93,21.4,15.25,45.22,17,69.07.31,3,.4,6,.53,9s.27,6,.21,9l0,9-.4,8.94-.22,4.48-.4,4.44-.82,8.9c-.82,5.88-1.39,11.83-2.43,17.65s-2,11.7-3.25,17.45l-1.83,8.67-1.9,8.39-7.64,33.46c-10.11,44.61-19.85,89.19-27.5,134-7.45,44.79-12.61,90.07-11.45,134.8.27,11.17,1,22.3,2.27,33.28a268.68,268.68,0,0,0,5.61,32.48,222.41,222.41,0,0,0,9.67,31,249.07,249.07,0,0,1,10.61,34.52c5.11,23.24,8.13,46.48,10.43,69.63s4,46.22,5.35,69.26c2.9,46,5.39,91.91,11.48,137.16.77,5.65,1.58,11.29,2.56,16.9s2,11.2,3,16.78,2.39,11.08,3.57,16.64c.66,2.76,1.42,5.47,2.13,8.21s1.39,5.5,2.27,8.16l2.51,8.08c.84,2.69,1.9,5.28,2.84,7.93,1.82,5.34,4.2,10.37,6.37,15.55a142.94,142.94,0,0,0,17.51,28.14l-1.7,1.83a144.26,144.26,0,0,1-20-27.41,221.51,221.51,0,0,1-14.09-31.55c-8-21.75-13.21-44.46-17.51-67.24-8.59-45.62-12.66-91.82-17.3-137.61-2.35-22.9-4.44-45.76-7.33-68.37s-6.44-45-11.78-66.46a239.65,239.65,0,0,0-10.06-30.8,245.52,245.52,0,0,1-11.34-34.23,290.9,290.9,0,0,1-6.7-35.31c-1.62-11.85-2.54-23.75-3-35.61-1.83-47.55,3.59-94.34,10.87-140.26,7.44-45.93,17.49-91.08,28.73-135.7,2.84-11.15,5.69-22.28,8.64-33.38l2.23-8.31,2-8.1c1.45-5.39,2.53-10.84,3.72-16.28s2-10.93,3.09-16.4l1.17-8.26c.42-2.75.78-5.51,1-8.27a279.8,279.8,0,0,0,1.85-33.23,206.42,206.42,0,0,0-2.54-33.07,192.52,192.52,0,0,0-7.84-32.1,162.85,162.85,0,0,0-6.26-15.23,131.53,131.53,0,0,0-7.74-14.5c-5.74-9.26-12.53-18.1-20.59-25.09Z"/><path class="cls-5" d="M1026.35,843.21c4.46,36.25,10.8,72.19,18.55,107.64q5.83,26.58,12.93,52.77c1.13,4.38,2.47,8.69,3.69,13s2.54,8.66,3.86,13c2.52,8.66,5.38,17.19,8.16,25.75,3,8.47,5.9,17,9.16,25.32,3,8.45,6.5,16.69,9.85,25,7,16.42,14.46,32.62,22.71,48.34s17.31,30.91,27,45.68a492.83,492.83,0,0,0,32,42l-1.61,1.92a304.07,304.07,0,0,1-36.48-38.64A418,418,0,0,1,1106,1160.1a522.13,522.13,0,0,1-24.43-48.84c-3.5-8.44-7.13-16.83-10.31-25.42s-6.17-17.25-9.16-25.91c-2.77-8.75-5.61-17.46-8.11-26.3-1.32-4.39-2.52-8.82-3.66-13.27s-2.4-8.87-3.44-13.34c-4.51-17.81-8.23-35.83-11.43-53.94-6.3-36.23-10.7-72.85-11.45-109.71Z"/><ellipse class="cls-6" cx="1039.5" cy="743.94" rx="545.8" ry="589.13" transform="translate(250.7 1749.81) rotate(-87.49)"/><g class="cls-7"><path class="cls-8" d="M1190.43,746.57c0,48.16-1.8,96.33-5.55,144.35s-9.7,95.9-18.22,143.34c-4.31,23.71-9.3,47.31-15.25,70.68a679.23,679.23,0,0,1-21.27,69.18c-8.5,22.59-18.36,44.86-31.74,65.22-6.74,10.1-14.38,19.79-23.83,27.77a68.15,68.15,0,0,1-15.62,10.06,46.84,46.84,0,0,1-18.26,4.29,46.16,46.16,0,0,1-18.46-3.39,63.76,63.76,0,0,1-16-9.51c-9.68-7.73-17.49-17.31-24.35-27.34-13.62-20.21-23.61-42.44-32.2-65a667.85,667.85,0,0,1-21.5-69.11c-6-23.35-11-46.94-15.39-70.64-8.66-47.42-14.58-95.29-18.58-143.3s-6-96.17-6.24-144.35c-.13-24.08.56-48.16,1.43-72.22s2.26-48.11,4.05-72.13c3.59-48,8.94-95.94,16.88-143.46,4-23.75,8.63-47.41,14.21-70.85a682.63,682.63,0,0,1,20.16-69.44c8.14-22.68,17.63-45.08,30.85-65.45,6.64-10.11,14.28-19.77,23.8-27.49a60.77,60.77,0,0,1,15.75-9.43,44.4,44.4,0,0,1,18.12-3.2,48,48,0,0,1,17.9,4.18,69.75,69.75,0,0,1,15.55,9.69c9.49,7.7,17.35,17.12,24.31,27,13.86,19.91,24.3,41.87,33.35,64.21a660.6,660.6,0,0,1,22.87,68.6c6.44,23.23,11.9,46.71,16.62,70.34a1367.86,1367.86,0,0,1,20.21,143.05C1188.27,650.23,1190.31,698.4,1190.43,746.57Zm-8,0c.1-48-1.71-95.92-5.69-143.71A1380.42,1380.42,0,0,0,1158.1,460.3c-4.41-23.56-9.55-47-15.67-70.15a654.7,654.7,0,0,0-21.87-68.4c-8.7-22.26-18.79-44.14-32.19-63.89-6.73-9.81-14.32-19.12-23.43-26.7a67,67,0,0,0-14.84-9.5,44.19,44.19,0,0,0-16.93-4.14,41.45,41.45,0,0,0-17.09,3.22,58.44,58.44,0,0,0-15,9.2C992.05,237.5,984.68,247,978.28,257c-12.74,20.17-21.89,42.46-29.68,65.05a676.57,676.57,0,0,0-19.18,69.22c-5.26,23.38-9.59,47-13.27,70.66-14.55,94.84-19.31,191-19,286.86q-.23,71.94,5,143.75c3.57,47.81,9,95.51,17.26,142.73,4.11,23.61,8.92,47.1,14.69,70.34a658.35,658.35,0,0,0,20.72,68.69c8.29,22.38,18,44.39,31.09,64.21,6.59,9.83,14.09,19.14,23.18,26.52a59.5,59.5,0,0,0,14.8,9,40.63,40.63,0,0,0,16.72,3.18,42.57,42.57,0,0,0,16.55-4.06,63.53,63.53,0,0,0,14.5-9.53c8.89-7.63,16.23-17.07,22.7-27,12.88-20,22.44-42,30.64-64.46a675.41,675.41,0,0,0,20.47-68.76c5.7-23.26,10.45-46.76,14.52-70.37,8.16-47.24,13.57-94.94,17.18-142.76S1182.48,794.54,1182.46,746.57Z"/><path class="cls-8" d="M1433.34,746.57c-.34,62-8.33,124.09-24.95,183.91-16.92,59.68-42.43,117.08-77,168.62s-78.57,97.05-131.18,130.14a349.06,349.06,0,0,1-84.43,38.58,316.16,316.16,0,0,1-183.56.09,348.73,348.73,0,0,1-84.5-38.51c-52.68-33.05-96.78-78.66-131.42-130.08S656,990.35,639,930.64a668.17,668.17,0,0,1-18.71-91.19,684,684,0,0,1,.07-185.75,666.45,666.45,0,0,1,18.78-91.16C656.2,502.86,681.81,445.47,716.52,394s78.75-96.92,131.41-129.87a350.33,350.33,0,0,1,84.42-38.36,313.76,313.76,0,0,1,183.24.09,349.72,349.72,0,0,1,84.35,38.43c52.59,33,96.6,78.57,131.17,129.93s60.18,108.84,77.15,168.49C1424.92,622.49,1433,684.54,1433.34,746.57Zm-9.14,0c-.08-61.24-7.69-122.56-23.83-181.68s-40.65-116-74.3-167.32a480.28,480.28,0,0,0-57.32-71.71,400.77,400.77,0,0,0-70.93-58.22,342.5,342.5,0,0,0-83.22-38.5,304.94,304.94,0,0,0-181.2.08,342.48,342.48,0,0,0-83.15,38.58,400.38,400.38,0,0,0-70.82,58.27,479.38,479.38,0,0,0-57.19,71.72C688.66,449.06,664.3,506,648.17,565a672.27,672.27,0,0,0-17.8,90,701.3,701.3,0,0,0,.06,183.08,673.16,673.16,0,0,0,17.87,89.95c16.18,59,40.59,115.92,74.19,167.12a479,479,0,0,0,57.2,71.63c21.37,21.89,45,41.72,70.8,58.16a343.64,343.64,0,0,0,83.07,38.42,302.73,302.73,0,0,0,180.88.09,344.07,344.07,0,0,0,83.14-38.35c25.87-16.42,49.5-36.23,70.91-58.11a479.65,479.65,0,0,0,57.33-71.61c33.68-51.22,58.15-108.18,74.41-167.19S1424.08,807.82,1424.2,746.57Z"/><path class="cls-8" d="M546.87,534.93l122.79-1.11,122.79-.63c40.93-.27,81.85-.24,122.78-.32l122.79-.19,245.58.56,122.79.69,122.78,1.2a.4.4,0,0,1,.4.41.41.41,0,0,1-.4.4l-122.78,1.2-122.79.68-245.58.56-122.79-.18c-40.93-.09-81.85-.06-122.78-.33l-122.79-.62-122.79-1.11a.61.61,0,0,1,0-1.21Z"/><path class="cls-8" d="M689.32,329.27c29.06-.51,58.12-.73,87.17-1.11l87.18-.63c29.06-.27,58.12-.24,87.18-.32L1038,327l87.18.21c29.06.12,58.11.05,87.17.35l87.18.68c29.06.41,58.12.65,87.18,1.2a.4.4,0,0,1,.39.41.41.41,0,0,1-.39.4c-29.06.55-58.12.79-87.18,1.2l-87.18.68c-29.06.29-58.11.22-87.17.35l-87.18.21-87.17-.18c-29.06-.09-58.12-.06-87.18-.32l-87.18-.63c-29-.38-58.11-.6-87.17-1.11a.61.61,0,0,1,0-1.21Z"/><path class="cls-8" d="M504.2,740.59l133.46-1.11,133.45-.63,266.91-.51,266.91.56,133.46.69,133.45,1.2a.39.39,0,0,1,.4.41.41.41,0,0,1-.4.4l-133.45,1.2-133.46.68L1038,744l-266.91-.51-133.45-.62L504.2,741.79a.6.6,0,0,1-.6-.6A.61.61,0,0,1,504.2,740.59Z"/><path class="cls-8" d="M546.87,946.25l122.79-1.11,122.79-.63c40.93-.27,81.85-.24,122.78-.32L1038,944l245.58.56,122.79.69,122.78,1.2a.39.39,0,0,1,.4.41.41.41,0,0,1-.4.4l-122.78,1.19-122.79.69L1038,949.7l-122.79-.18c-40.93-.09-81.85-.06-122.78-.33l-122.79-.63-122.79-1.11a.6.6,0,0,1-.6-.6A.61.61,0,0,1,546.87,946.25Z"/><path class="cls-8" d="M1404.29,1154.62H706.89a2.11,2.11,0,0,1,0-4.22h697.4a2.11,2.11,0,1,1,0,4.22Z"/></g><path class="cls-9" d="M1405.69,331.28s-14,.74-15.75,29.6c0,0,32.53,29.16,76.46,36.1,3.3.52-4.61-22.52-5.8-25.64C1454.94,356.49,1437.13,346.93,1405.69,331.28Z"/><path class="cls-10" d="M1247.71,297.34h29.6S1368.16,197,1427.75,186.88c0,0,41.48,53-2.21,151.88-3.51,8-13.34,11.49-20.67,6.81a11.84,11.84,0,0,1-4.73-5.63l3.52-84.47s-77.5,67.78-91,80.86S1230.74,341.44,1247.71,297.34Z"/><path class="cls-11" d="M1533.89,508c-12.4-10.87-32.17-23.06-60.7-26.56l-9.65,5.9A104.82,104.82,0,0,0,1480.93,506c10.33,6,26.29,14.13,39.51,15.89C1533.3,523.62,1535.2,515.85,1533.89,508Z"/><path class="cls-12" d="M1460.6,371.34c-7.64,2.47-11,13.3-30.39,6.14a171.71,171.71,0,0,1-39.88-21c-.16,1.39-.3,2.85-.39,4.41,0,0,34.29,32.62,78.23,39.56a4.37,4.37,0,0,0,4.73-5.89A110.26,110.26,0,0,0,1460.6,371.34Z"/><path class="cls-13" d="M1543.24,517.29a104,104,0,0,0-9.35-9.28c1.31,7.84-.59,15.61-13.45,13.89-13.22-1.76-29.18-9.89-39.51-15.89,13,11,32.65,22.77,57.52,22.08A6.53,6.53,0,0,0,1543.24,517.29Z"/><path class="cls-14" d="M1248.79,318.76l138.62,1.5s79.16,65.5,93.52,165.37c0,0,2.39,7.34-11.92,8.6,0,0-47.86-31.26-79.07-86.53-38.27-67.76-99.83-43.57-99.83-43.57-74.68,25.46-100.24-12.34-100.87-21.29Z"/><path class="cls-15" d="M1252.06,207.09s14.93,74.79,88,104.38l26-3.07,6.14,9.79-61,1.94s-52.15-20.65-79.78-76.94C1230.55,241.33,1215.33,209.92,1252.06,207.09Z"/><path class="cls-16" d="M1260.06,317.54s-17-46.13-20.62-91c0,0,12.42-10.67,20.18-15.28a5.61,5.61,0,0,0,2.19-7.27c-5.71-11.82-40.21-58.23-42.79-58.87-14-3.51-71.66-30.9-112.23,24.6-17.42,23.82,3.45,97.14,82.45,173.07l2.62.51a40.13,40.13,0,0,0,26-3.82Z"/><path class="cls-17" d="M1194.67,236.69s47.15,55.83,107.43,64c0,0,15.57-14.2,27.16-9.13S1356.73,319,1356.73,319h-77.4s-73.18-2.58-109.75-47C1172.52,256.52,1181.33,247.24,1194.67,236.69Z"/><path class="cls-18" d="M1167.17,106l-10.32,34.41a3.78,3.78,0,0,0,1.47,4.21c5,3.41,18,10.17,35.75,3.6a5.61,5.61,0,0,0,3.61-4.82l2.45-30Z"/><path class="cls-19" d="M1227.57,78.15s-5.07,35.67-18.77,46.63-40.4,2.71-49.41-24.17l18-46Z"/><path class="cls-20" d="M1175.33,84.38a1.76,1.76,0,0,0,2.29-1.41c.5-3.29,1.73-9.81,4.23-14.25,0,0-1.3-4.68,11.83,2.39s32.86,17.45,44.47,11.27c11.32-6,22.79-36.37-7.13-30.75a1.76,1.76,0,0,1-2.1-1.85c.37-5-.13-16.45-11.74-20.14-10.88-3.44-16.83,1.47-19.28,4.43a1.76,1.76,0,0,1-2.75,0c-3.26-4.25-12.1-13.3-25.12-7.56-10.72,4.73-12.39,11.33-12.21,15.45a1.76,1.76,0,0,1-2.51,1.68c-3.29-1.52-8.57-2.3-13.63,4-7,8.76,3,16.37,6,18.36a1.76,1.76,0,0,1,.8,1.46c0,4.55.74,24.44,10.71,35.66a1.78,1.78,0,0,0,3-.52l7.67-18.28a1.77,1.77,0,0,1,2.18-1Z"/><path class="cls-21" d="M1175.49,88.09s-4.68-19.08-11.8-12.88,1.85,19.83,10,22.43Z"/><path class="cls-22" d="M1352.83,323.33l34.75-115.89a11.86,11.86,0,0,1,10.54-8.42l46.92-3.21a6.66,6.66,0,0,1,6.74,8.84l-38.85,110.68a9.75,9.75,0,0,1-8.22,6.47l-46.2,5.13Z"/><path class="cls-22" d="M1358.51,326.93h-.23l-98.44-5a4.41,4.41,0,1,1,.44-8.81l98.45,5a4.41,4.41,0,0,1-.22,8.82Z"/><path class="cls-23" d="M1239.44,227.47h0a.88.88,0,0,1-.88-.89c.07-20.55-7.87-47.84-8-48.11a.9.9,0,0,1,.6-1.1.88.88,0,0,1,1.1.6c.08.28,8.08,27.81,8,48.62A.87.87,0,0,1,1239.44,227.47Z"/><path class="cls-24" d="M1194.67,237.58a.88.88,0,0,1-.69-.34c-.22-.27-21.76-27.66-29.17-46.43a.88.88,0,0,1,.5-1.14.87.87,0,0,1,1.14.49c7.32,18.54,28.7,45.72,28.91,46a.88.88,0,0,1-.14,1.24A.9.9,0,0,1,1194.67,237.58Z"/><path class="cls-25" d="M1164.41,279.45l-.66-.28c-31.19-13.35-50.44-50.57-50.63-51a.88.88,0,0,1,.38-1.19.89.89,0,0,1,1.19.39c.19.37,18.89,36.51,49.1,49.84l3.16-4.46a.88.88,0,1,1,1.44,1Z"/><path class="cls-26" d="M622.92,886.88c-45.46-.49-83.93-36.67-87.58-82.36L527,700.72c-2-24.75,6.16-49,22.32-66.55a80.33,80.33,0,0,1,59.56-26.1l810.39-1.49c25.38,0,47.54,10.14,62.58,28.55,15.38,18.84,21.19,44.45,15.93,70.27l-22.18,108.87c-9.22,45.24-53.29,80.69-100.32,80.69Z"/><path class="cls-27" d="M1419.34,627.66,609,629.15C572.19,629.22,545,661.08,548,699l8.3,103.8c2.78,34.8,32.62,62.6,66.81,63l751.37,8.07c37.11.4,73-27.46,80.46-63.82l22.18-108.87C1485.28,661.36,1459.49,627.58,1419.34,627.66Z"/><path class="cls-28" d="M797.1,702.48,759.7,816.75h-.15a15.85,15.85,0,0,1-11,10.75h-.15c-.14,0-.44.14-.59.14h-.29c-.15,0-.3.15-.44.15H743.5c-.14,0-.29-.15-.44-.15h-.29c-.15,0-.45-.14-.59-.14H742a16.32,16.32,0,0,1-11.19-10.75l-23.56-72-23.56,72a15.86,15.86,0,0,1-11,10.75h-.15c-.3,0-.44.14-.59.14h-.29c-.15,0-.3.15-.45.15h-3.53c-.15,0-.3-.15-.44-.15h-.3c-.29,0-.44-.14-.59-.14h-.14A16,16,0,0,1,655,816.75L617.6,702.48v-.29a17.85,17.85,0,0,1-.88-5.45c0-6.77,4-13.11,10.16-15.31a12.34,12.34,0,0,1,4.57-.74c6.33,0,12.36,4.42,14.43,11.34.14.29,13,39.31,23.56,71.71,10.6-32.4,23.41-71.42,23.41-71.71A16.46,16.46,0,0,1,702,681.72l.15-.15c.14,0,.29-.14.44-.14h.15c.14,0,.14-.15.29-.15h.29a.54.54,0,0,1,.44-.15l.15-.15c.3,0,.44,0,.59-.14h.15c.29,0,.44,0,.59-.15h.88c.3,0,.44,0,.59-.15H708a.52.52,0,0,0,.44.15h.88a1.32,1.32,0,0,0,.74.15,1.15,1.15,0,0,0,.59.14c.14,0,.14,0,.14.15.3,0,.44,0,.59.15h.3a.48.48,0,0,0,.29.15h.15c.15,0,.29.14.44.14l.15.15A16.46,16.46,0,0,1,721.86,692c0,.29,12.81,39.31,23.41,71.71,10.6-32.4,23.41-71.42,23.41-71.71,2.21-6.92,8.25-11.34,14.58-11.34a12.41,12.41,0,0,1,4.57.74C794,683.63,798,690,798,696.74a17.55,17.55,0,0,1-.88,5.45Z"/><path class="cls-29" d="M985.74,702.48l-37.4,114.27h-.15a15.85,15.85,0,0,1-11,10.75H937c-.15,0-.44.14-.59.14h-.29c-.15,0-.3.15-.44.15h-3.54c-.14,0-.29-.15-.44-.15h-.29c-.15,0-.45-.14-.59-.14h-.15a16.32,16.32,0,0,1-11.19-10.75l-23.56-72-23.56,72a15.88,15.88,0,0,1-11,10.75h-.15c-.3,0-.44.14-.59.14h-.3c-.14,0-.29.15-.44.15h-3.53c-.15,0-.3-.15-.44-.15h-.3c-.29,0-.44-.14-.59-.14h-.14a16.07,16.07,0,0,1-11.2-10.75l-37.4-114.27v-.29a17.55,17.55,0,0,1-.88-5.45c0-6.77,4-13.11,10.16-15.31a12.32,12.32,0,0,1,4.56-.74A15.41,15.41,0,0,1,834.52,692c.14.29,13,39.31,23.56,71.71,10.6-32.4,23.41-71.42,23.41-71.71a16.46,16.46,0,0,1,9.13-10.31l.14-.15c.15,0,.3-.14.45-.14h.14c.15,0,.15-.15.3-.15h.29a.54.54,0,0,1,.44-.15l.15-.15c.3,0,.44,0,.59-.14h.15c.29,0,.44,0,.59-.15h.88c.29,0,.44,0,.59-.15h1.32a.55.55,0,0,0,.45.15H898a1.3,1.3,0,0,0,.74.15,1.15,1.15,0,0,0,.59.14c.14,0,.14,0,.14.15.3,0,.44,0,.59.15h.3a.48.48,0,0,0,.29.15h.15c.15,0,.29.14.44.14l.15.15A16.46,16.46,0,0,1,910.5,692c0,.29,12.81,39.31,23.41,71.71,10.6-32.4,23.41-71.42,23.41-71.71,2.21-6.92,8.25-11.34,14.58-11.34a12.32,12.32,0,0,1,4.56.74c6.19,2.2,10.16,8.54,10.16,15.31a17.55,17.55,0,0,1-.88,5.45Z"/><path class="cls-30" d="M1174.38,702.48,1137,816.75h-.15a15.86,15.86,0,0,1-11,10.75h-.15c-.15,0-.44.14-.59.14h-.29c-.15,0-.3.15-.44.15h-3.54c-.15,0-.29-.15-.44-.15h-.3c-.14,0-.44-.14-.58-.14h-.15a16.32,16.32,0,0,1-11.19-10.75l-23.56-72-23.56,72a15.88,15.88,0,0,1-11,10.75h-.14c-.3,0-.45.14-.59.14h-.3c-.14,0-.29.15-.44.15H1045c-.15,0-.3-.15-.44-.15h-.3c-.29,0-.44-.14-.59-.14h-.14a16.07,16.07,0,0,1-11.2-10.75l-37.4-114.27v-.29a17.55,17.55,0,0,1-.88-5.45c0-6.77,4-13.11,10.16-15.31a12.32,12.32,0,0,1,4.56-.74A15.41,15.41,0,0,1,1023.16,692c.14.29,12.95,39.31,23.56,71.71,10.6-32.4,23.41-71.42,23.41-71.71a16.43,16.43,0,0,1,9.13-10.31l.14-.15c.15,0,.3-.14.45-.14h.14c.15,0,.15-.15.3-.15h.29a.54.54,0,0,1,.44-.15l.15-.15c.3,0,.44,0,.59-.14h.15c.29,0,.44,0,.59-.15h.88c.29,0,.44,0,.59-.15h1.32a.55.55,0,0,0,.45.15h.88a1.3,1.3,0,0,0,.74.15,1.14,1.14,0,0,0,.58.14c.15,0,.15,0,.15.15.3,0,.44,0,.59.15h.29a.52.52,0,0,0,.3.15h.15c.14,0,.29.14.44.14l.15.15a16.46,16.46,0,0,1,9.13,10.31c0,.29,12.81,39.31,23.41,71.71,10.6-32.4,23.41-71.42,23.41-71.71,2.21-6.92,8.25-11.34,14.58-11.34a12.32,12.32,0,0,1,4.56.74c6.19,2.2,10.16,8.54,10.16,15.31a17.55,17.55,0,0,1-.88,5.45Z"/><path class="cls-31" d="M1214.43,830.05a6.32,6.32,0,0,1-6.33,6.32h0a6.32,6.32,0,0,1-6.32-6.32V655.13a6.32,6.32,0,0,1,6.32-6.32h0a6.32,6.32,0,0,1,6.33,6.32Z"/><path class="cls-32" d="M1548.75,975.63l-94.31-115.06a3.42,3.42,0,0,1,1.85-5.48l83.3-20a8.66,8.66,0,0,0,2.6-15.74L1304.52,669.15a8.66,8.66,0,0,0-13.16,8.73l49.41,298.39a8.66,8.66,0,0,0,16,3l46.11-77.39a3.39,3.39,0,0,1,2.71-1.66,3.43,3.43,0,0,1,2.91,1.3l87.83,112.65a15.53,15.53,0,0,0,21,3.3l28.18-19.17a15.52,15.52,0,0,0,3.28-22.68Z"/><path class="cls-33" d="M487.81,1161.43c-9.83-41.12-5.21-81.41,10.12-112.74a120,120,0,0,0,6.65-89.88q-1.53-4.66-2.7-9.57c-11.81-49.45,8.92-96.78,46.29-105.7s77.25,23.92,89.07,73.37a119.46,119.46,0,0,1,3.29,29.76c-.55,30.7,10.06,60.71,30.73,83.44,18.48,20.32,32.87,47.07,40.23,77.89,11,46,3.92,90.93-16,123.46a117.79,117.79,0,0,0-15.44,40.09c-4.37,23.55-19.19,42.35-40.17,47.36-22.64,5.41-46.12-6.74-60.53-28.76a126.26,126.26,0,0,0-30.63-32C520.45,1237.15,497.74,1203,487.81,1161.43Z"/><path class="cls-3" d="M547.65,899.27c2.92,33.85,6.93,67.58,11.29,101.26,1.09,8.42,2.31,16.83,3.51,25.23l1.79,12.61,1.9,12.6c1.3,8.39,2.48,16.8,3.88,25.18l4.18,25.13c3,16.72,5.86,33.46,9.17,50.13,1.64,8.33,3.12,16.69,4.94,25l5.32,24.92c7.43,33.15,15.7,66.13,25.62,98.63l1.41-.41-6.5-24.6-1.64-6.15-1.48-6.18-2.94-12.37-3-12.37c-1-4.12-1.84-8.28-2.77-12.41-1.8-8.29-3.66-16.56-5.41-24.86-6.77-33.24-13.09-66.56-18.73-100-2.69-16.75-5.53-33.47-8.1-50.24l-2-12.57-1.86-12.59c-1.24-8.39-2.49-16.78-3.65-25.18q-3.69-25.18-7-50.41c-2.3-16.81-4.44-33.65-6.52-50.49Z"/><path class="cls-3" d="M499.06,1268.19c-13.92-19.16-20.21-41-19-60.45a67.33,67.33,0,0,0-15.92-47.89q-1.8-2.08-3.45-4.37c-16.74-23-16.24-51.94,1.13-64.56s45-4.18,61.76,18.85a66.83,66.83,0,0,1,8.1,14.67A67.69,67.69,0,0,0,565.47,1161,99.26,99.26,0,0,1,603,1192.64c15.56,21.42,21.59,46.17,18.31,67.25a66.26,66.26,0,0,0,.67,24c2.81,13.12-.78,26-10.53,33.09-10.52,7.65-25.25,6.4-37.43-1.9a70.88,70.88,0,0,0-22.71-10C532.21,1300.34,513.14,1287.55,499.06,1268.19Z"/><path class="cls-34" d="M473.51,1119.84c8.79,16.87,18.12,33.45,27.62,49.93,2.38,4.12,4.82,8.2,7.24,12.29l3.65,6.14,3.69,6.1c2.47,4.06,4.9,8.15,7.42,12.19l7.57,12.09c5.14,8,10.22,16.05,15.52,24,2.64,4,5.21,8,7.93,11.86l8.11,11.75c11,15.54,22.34,30.82,34.46,45.49l.64-.51-8.65-11.32-2.17-2.83-2.1-2.88-4.18-5.76-4.19-5.76c-1.4-1.92-2.73-3.89-4.1-5.83-2.72-3.89-5.46-7.77-8.15-11.69q-16-23.6-31.19-47.68c-5-8.08-10.06-16.12-15-24.24l-3.72-6.07-3.67-6.11c-2.45-4.07-4.9-8.14-7.31-12.24q-7.32-12.23-14.47-24.56c-4.81-8.19-9.53-16.44-14.23-24.7Z"/><rect class="cls-22" x="1856.28" y="1163.44" width="13.82" height="149.48"/><path class="cls-22" d="M1923.72,1315.8H1802.66v-6.53a2.46,2.46,0,0,1,2.46-2.46h115.94a2.66,2.66,0,0,1,2.66,2.65Z"/><rect class="cls-22" x="1784.85" y="1127.84" width="161.77" height="45.88" rx="15.8"/><path class="cls-35" d="M1740.66,1267.53s-44.69,19.24-42.13,39.39c0,0,46.19-8.86,54.46-22.07s3.71-20.85,3.71-20.85Z"/><path class="cls-36" d="M1751.6,1245.53l2.27,19.61a6.49,6.49,0,0,1-4.1,6.89,17.11,17.11,0,0,1-5.67.86,7.54,7.54,0,0,1-7.33-5.51l-4.4-15.86Z"/><path class="cls-37" d="M1849.22,1095.13s-82.19-3.8-123.09,20,2.08,138.32,2.08,138.32,10.68,2.3,26.06-5.92c0,0-22-83.8,16.18-98.38,42.87-16.39,87.22-12.4,87.22-12.4l-8.22-39.08Z"/><path class="cls-38" d="M1707.51,1298.08c9.35-2,37.06-13.53,41.27-13.38s10.17,6.46,10.17,6.46,1,3.45-2,8.4c-7.14,5.57-22.52,15.79-40.41,16.91-13.15.82-21.07-4.41-25.6-9.49A36.6,36.6,0,0,1,1707.51,1298.08Z"/><path class="cls-39" d="M1716.56,1316.47c17.89-1.12,33.27-11.34,40.41-16.91-2,3.34-5.91,7.37-13.2,11.49-18.07,10.21-47.94,8.72-53.86,6.42-4.75-1.84-3.28-6.27,1-10.49C1695.49,1312.06,1703.41,1317.29,1716.56,1316.47Z"/><path class="cls-40" d="M1768.77,1280.9c-.62,2.31-7.16,9.26-11,13.14a7.44,7.44,0,0,1-6.92,2.08,19.07,19.07,0,0,1-5-1.74,4.83,4.83,0,0,1-1.87-6.57l9.58-17.41Z"/><path class="cls-41" d="M1930.68,1088.24s7.17,50.9-13.57,61.3-66.24,17.21-81.92,43.61-43.81,78.21-69.43,93.1c0,0-14.62-4.76-18.9-12,0,0,30.4-79.92,43.09-99.35,11-16.82,27-41.06,49.86-51.54,6.53-3,7-9.93,5.89-17l-2.09-12.92Z"/><path class="cls-42" d="M1738.42,1030.54c29.08,8.3,42.1-73.54,42-75.53l44.59,52.13s-26.57,46.75-66.69,51.73a47.29,47.29,0,0,1-26-3.82A41.76,41.76,0,0,0,1738.42,1030.54Z"/><path class="cls-43" d="M1684.56,1003.75c12.68-5.21,23.43,5.19,23.43,5.19,12.56,12.86,22.52,19.35,30.43,21.6a41.76,41.76,0,0,1-6.14,24.51c-15.67-7.18-24.81-21.69-28.57-28.93a5.43,5.43,0,0,0-7.17-2.43c-2.69,1.3-5.46,3.28-5.63,6-.34,5.31-6.66,5.62-6.7,3.66s4.89-12.45,4.89-12.45-14.56,9.35-20.23,12.92-10.5-2.32-10.5-2.32S1671.89,1009,1684.56,1003.75Z"/><path class="cls-44" d="M1919.47,921.33s-39.08-26.66-133.47,21.56c0,0-9.72,12.32-5.16,26.21s60.59,89.07,62.77,124.36c0,0,38.31,22.55,88,.19C1931.65,1093.65,1948.33,1000.46,1919.47,921.33Z"/><path class="cls-45" d="M1828.53,879.57l25,37.93a8.62,8.62,0,0,1-.89,9.28c-4.26,5.33-13.13,12.49-28.29,7.88a13.3,13.3,0,0,1-9-9.63l-8-33.78Z"/><path class="cls-46" d="M1948.41,1027c2.65-18.4-46-54.06-46-54.06l17-51.62s92.77,66.2,73.26,120.26c-2.8,7.75-7,13.39-12.06,17.39C1970.85,1038.84,1957.53,1030.47,1948.41,1027Z"/><path class="cls-47" d="M1880.59,1032.11s55,15.36,66.4-1.38a8.65,8.65,0,0,0,1.42-3.72c9.12,3.46,22.44,11.83,32.26,32-26.1,20.54-76.45-2.48-90.12-9.38a9.66,9.66,0,0,0-7.25-.61c-4.86,1.52-13.29,3.88-18,3.62-6.87-.38-14.25,24.45-25.94,18.17C1839.37,1070.78,1844.68,1028.35,1880.59,1032.11Z"/><path class="cls-48" d="M1771.45,855.56c0,.64,11.35,40,17.16,60.1a10.67,10.67,0,0,0,14.37,6.87l4.51-1.89c6.16-2.58,16.93-10.53,17.53-17.18l-2-47.58S1772.26,841,1771.45,855.56Z"/><path class="cls-49" d="M1822.62,842.69c1.17-4.45,1.25-11.1-7.17-14s-14.33,2-17.34,5.82a4.07,4.07,0,0,1-5.11,1.06,3.2,3.2,0,0,0-3.63.44,4,4,0,0,1-5.8-1.22c-2.33-3.87-6.73-7.86-14.67-5.77-14.09,3.7-14.33,19.7-9.74,28.66s19.64,4.08,26.93-1.28c5.55-4.08,13.48-1,17,.7a4,4,0,0,1,2.16,2.75l3.94,17.68c4.38.43,8.68,1.22,13,2.06-.07-1.31-.1-2.43-.08-3.26.16-5.87,7-10,10-11.49a4,4,0,0,0,2-2.42c1.12-3.71,2.37-12.2-8.4-14.69A4.07,4.07,0,0,1,1822.62,842.69Z"/><path class="cls-50" d="M1824.26,886.67s-7.32-15.95-1.63-20.51,14.82-3.26,13.9,8.85C1835.38,890.06,1824.26,886.67,1824.26,886.67Z"/><path class="cls-51" d="M1810.38,1067.12h-.3l-128.47-.14a5.75,5.75,0,1,1,0-11.5l128.47.14a5.75,5.75,0,0,1,.28,11.49Z"/><path class="cls-52" d="M1566.13,950.48h107a20.41,20.41,0,0,1,18.44,11.69L1741,1067.05h-133a12.38,12.38,0,0,1-11.52-7.83l-38.36-97.05A8.55,8.55,0,0,1,1566.13,950.48Z"/><path class="cls-33" d="M1583.47,1342.66a5.54,5.54,0,0,1-2.13-.42,5.16,5.16,0,0,1-2.82-6.87l113.22-254.81a5.46,5.46,0,0,1,7.09-2.74,5.17,5.17,0,0,1,2.83,6.87L1588.43,1339.5A5.39,5.39,0,0,1,1583.47,1342.66Z"/><path class="cls-33" d="M1711,1342.66a5.4,5.4,0,0,1-5-3.16l-113.22-254.81a5.16,5.16,0,0,1,2.82-6.87,5.47,5.47,0,0,1,7.1,2.74L1716,1335.37a5.17,5.17,0,0,1-2.83,6.87A5.5,5.5,0,0,1,1711,1342.66Z"/><path class="cls-33" d="M1933.94,1342.66a5.54,5.54,0,0,1-2.13-.42,5.16,5.16,0,0,1-2.82-6.87l113.22-254.81a5.46,5.46,0,0,1,7.09-2.74,5.17,5.17,0,0,1,2.83,6.87L1938.9,1339.5A5.39,5.39,0,0,1,1933.94,1342.66Z"/><path class="cls-33" d="M2061.49,1342.66a5.4,5.4,0,0,1-5-3.16l-113.22-254.81a5.16,5.16,0,0,1,2.82-6.87,5.47,5.47,0,0,1,7.1,2.74l113.22,254.81a5.18,5.18,0,0,1-2.83,6.87A5.5,5.5,0,0,1,2061.49,1342.66Z"/><path class="cls-33" d="M2074.77,1072.69a6.19,6.19,0,0,0-1.07-4.71,4.89,4.89,0,0,0-3.93-2.08H1554.69a5.74,5.74,0,0,0-4.94,3,7.27,7.27,0,0,0-.38,6.29l5.58,13.52a7.81,7.81,0,0,0,7.1,5.08h504.18a6.12,6.12,0,0,0,5.81-5.36Z"/><path class="cls-3" d="M430.1,348c66.5,2.71,141.27,38.18,154.6,109.14C596,517.52,534.64,555.59,496,574.39a49.08,49.08,0,0,0-23.81,25.31c-11,26.47-37.63,73.19-86.16,62.82a3.47,3.47,0,0,1-.14-6.73c11.1-3,26.17-9.44,33.53-23.06,10-18.55-2.8-41.27-23.82-43C355.87,586.39,277.07,568.14,258,476.88,232.17,353.46,430.1,348,430.1,348Z"/><path class="cls-53" d="M425.66,454.81s-9.48-41-49.74-27.73c-38.15,12.57-17.3,64.19,43.15,89.72a21.9,21.9,0,0,0,20.09-1.59c22.62-14.06,74.46-52.3,37-88.43C452,403.44,425.66,454.81,425.66,454.81Z"/><path class="cls-54" d="M545.11,414.13A3.18,3.18,0,0,1,542.7,413c-20.23-23.78-60.42-51.27-137-47.06a3.23,3.23,0,0,1-3.33-3,3.17,3.17,0,0,1,3-3.33c43.68-2.38,103.78,4.22,142.12,49.28a3.17,3.17,0,0,1-.36,4.46A3.13,3.13,0,0,1,545.11,414.13Z"/><path class="cls-55" d="M570.57,464.75a3.17,3.17,0,0,1-3.12-2.66,88.62,88.62,0,0,0-5.54-17.74,3.16,3.16,0,1,1,5.83-2.43,92.69,92.69,0,0,1,6,19.17,3.16,3.16,0,0,1-2.62,3.62A2.81,2.81,0,0,1,570.57,464.75Z"/><path class="cls-53" d="M469.37,195.39,463.62,198l0,0a1.81,1.81,0,0,1-1.48-3.3h0l5.81-2.58a1.8,1.8,0,0,1,1.46,3.29Z"/><path class="cls-53" d="M450.41,204.37l-5.57,2.92h0a1.85,1.85,0,1,1-1.72-3.27h0l5.64-2.92a1.84,1.84,0,1,1,1.69,3.26Z"/><path class="cls-53" d="M432.05,214.47l-5.39,3.24,0,0a1.89,1.89,0,1,1-1.94-3.24h0l5.46-3.25a1.87,1.87,0,0,1,1.92,3.22Z"/><path class="cls-53" d="M414.31,225.64l-5.18,3.55,0,0a1.93,1.93,0,1,1-2.18-3.18h0l5.25-3.56a1.92,1.92,0,1,1,2.16,3.17Z"/><path class="cls-53" d="M397.27,237.82l-5,3.84,0,0a2,2,0,1,1-2.4-3.12h0l5.05-3.86a2,2,0,0,1,2.38,3.11Z"/><path class="cls-53" d="M380.94,250.94l-4.75,4.12,0,0a2,2,0,0,1-2.63-3h0l4.82-4.14a2,2,0,1,1,2.61,3Z"/><path class="cls-53" d="M365.37,265l-4.52,4.38,0,0a2,2,0,1,1-2.85-2.94h0l4.58-4.41a2,2,0,0,1,2.83,2.94Z"/><path class="cls-53" d="M350.6,279.85l-4.27,4.63,0,0a2.09,2.09,0,1,1-3.07-2.83h0l4.34-4.66a2.08,2.08,0,0,1,3,2.83Z"/><path class="cls-53" d="M336.67,295.53l-4,4.85,0,0a2.13,2.13,0,0,1-3.28-2.71h0l4.08-4.89a2.12,2.12,0,1,1,3.25,2.71Z"/><path class="cls-53" d="M323.63,311.94,319.9,317l0,0a2.17,2.17,0,0,1-3.49-2.58h0l3.8-5.1a2.16,2.16,0,1,1,3.46,2.57Z"/><path class="cls-53" d="M311.52,329.05l-3.45,5.26,0,0a2.21,2.21,0,0,1-3.7-2.43h0l3.51-5.31a2.19,2.19,0,0,1,3.66,2.42Z"/><path class="cls-53" d="M300.36,346.8l-3.15,5.44,0,0A2.25,2.25,0,0,1,293.3,350h0l3.21-5.5a2.24,2.24,0,0,1,3.87,2.26Z"/><path class="cls-53" d="M290.21,365.13l-2.84,5.61,0,0a2.29,2.29,0,1,1-4.08-2.07h0l2.9-5.66a2.28,2.28,0,0,1,4.06,2.08Z"/><path class="cls-53" d="M281.11,384l-2.52,5.75v0a2.33,2.33,0,1,1-4.27-1.87h0l2.57-5.82a2.32,2.32,0,1,1,4.24,1.88Z"/><path class="cls-53" d="M273.1,403.34l-2.18,5.89,0,0a2.37,2.37,0,1,1-4.44-1.64h0l2.24-6a2.36,2.36,0,1,1,4.41,1.66Z"/><path class="cls-53" d="M266.22,423.1l-1.83,6,0,0a2.41,2.41,0,1,1-4.61-1.41h0l1.88-6.07a2.4,2.4,0,0,1,4.58,1.42Z"/><path class="cls-53" d="M260.52,443.23l-1.48,6.1v0a2.45,2.45,0,0,1-4.76-1.15h0l1.52-6.18a2.44,2.44,0,1,1,4.74,1.16Z"/><path class="cls-53" d="M256,463.66l-1.11,6.18v0A2.49,2.49,0,1,1,250,469h0l1.15-6.27a2.48,2.48,0,0,1,4.87.89Z"/><path class="cls-53" d="M252.79,484.33l-.73,6.23v.05a2.53,2.53,0,0,1-5-.59h0l.76-6.32a2.52,2.52,0,1,1,5,.6Z"/><path class="cls-53" d="M250.81,505.15l-.35,6.27v0a2.57,2.57,0,0,1-5.14-.29h0l.37-6.35a2.56,2.56,0,0,1,5.11.31Z"/><path class="cls-53" d="M250.06,526.05v6.31a2.59,2.59,0,1,1-5.17,0h0V526a2.58,2.58,0,1,1,5.16,0Z"/><path class="cls-53" d="M250.51,547l.38,6.26v0a2.6,2.6,0,1,1-5.19.31h0l-.37-6.35a2.59,2.59,0,1,1,5.18-.3Z"/><path class="cls-53" d="M252.17,567.81l.73,6.23v.05a2.61,2.61,0,0,1-5.18.6h0l-.73-6.32a2.61,2.61,0,1,1,5.18-.6Z"/><path class="cls-53" d="M255,588.54l1.07,6.18v0a2.62,2.62,0,0,1-5.17.9h0l-1.09-6.27a2.62,2.62,0,0,1,5.17-.89Z"/><path class="cls-53" d="M259,609.08l1.42,6.12v0a2.64,2.64,0,0,1-5.15,1.19h0l-1.43-6.2A2.64,2.64,0,0,1,259,609Z"/><path class="cls-53" d="M264.12,629.39l1.75,6,0,0a2.66,2.66,0,0,1-5.1,1.48h0L259,630.82a2.65,2.65,0,1,1,5.09-1.47Z"/><path class="cls-53" d="M270.35,649.37l2.09,5.93v0a2.67,2.67,0,1,1-5,1.77h0l-2.11-6a2.66,2.66,0,0,1,5-1.76Z"/><path class="cls-53" d="M277.67,669l2.41,5.8,0,0a2.69,2.69,0,1,1-5,2.06h0L272.71,671a2.68,2.68,0,0,1,5-2Z"/><path class="cls-53" d="M286.06,688.15l2.72,5.67,0,0a2.69,2.69,0,0,1-4.85,2.33h0l-2.75-5.75a2.69,2.69,0,1,1,4.85-2.32Z"/><path class="cls-53" d="M295.5,706.84l3,5.5,0,0a2.71,2.71,0,0,1-4.74,2.62h0l-3.07-5.58a2.71,2.71,0,0,1,4.74-2.61Z"/><path class="cls-53" d="M306,725l3.34,5.32,0,0a2.72,2.72,0,0,1-4.61,2.89h0l-3.38-5.4a2.72,2.72,0,1,1,4.61-2.88Z"/><path class="cls-53" d="M317.43,742.46l3.63,5.11,0,0a2.74,2.74,0,1,1-4.46,3.17h0l-3.67-5.2a2.73,2.73,0,1,1,4.45-3.16Z"/><path class="cls-53" d="M329.87,759.26l3.92,4.89,0,0a2.75,2.75,0,0,1-4.29,3.44h0l-4-5a2.75,2.75,0,0,1,4.29-3.43Z"/><path class="cls-53" d="M343.27,775.29l4.2,4.66,0,0a2.77,2.77,0,0,1-4.11,3.71h0L339.14,779a2.76,2.76,0,0,1,4.1-3.69Z"/><path class="cls-53" d="M357.6,790.51l4.47,4.39,0,0a2.78,2.78,0,1,1-3.89,4h0l-4.55-4.47a2.78,2.78,0,0,1,3.9-4Z"/><path class="cls-53" d="M372.82,804.83l4.73,4.11,0,0a2.79,2.79,0,0,1-3.67,4.21h0l-4.8-4.18a2.79,2.79,0,0,1,3.67-4.2Z"/><path class="cls-53" d="M388.86,818.24l5,3.84,0,0a2.8,2.8,0,1,1-3.44,4.43h0l-5-3.91a2.8,2.8,0,0,1,3.44-4.42Z"/><path class="cls-53" d="M405.64,830.73l5.17,3.56,0,0a2.82,2.82,0,0,1-3.21,4.64h0l-5.24-3.62a2.82,2.82,0,0,1,3.21-4.63Z"/><path class="cls-53" d="M423.08,842.27l5.36,3.28,0,0a2.83,2.83,0,1,1-3,4.83h0l-5.42-3.34a2.83,2.83,0,0,1,3-4.82Z"/><path class="cls-53" d="M441.12,852.88l5.52,3,0,0a2.85,2.85,0,0,1-2.72,5h0l-5.59-3a2.84,2.84,0,1,1,2.72-5Z"/><path class="cls-53" d="M459.69,862.54l5.66,2.71,0,0a2.86,2.86,0,1,1-2.48,5.16h0l-5.73-2.76a2.86,2.86,0,0,1,2.47-5.15Z"/><path class="cls-53" d="M478.72,871.26l5.78,2.44h0a2.88,2.88,0,1,1-2.23,5.3h0l-5.86-2.48a2.87,2.87,0,1,1,2.23-5.28Z"/><path class="cls-53" d="M498.15,879.05l5.9,2.16h0a2.89,2.89,0,1,1-2,5.43h0l-6-2.2a2.88,2.88,0,1,1,2-5.41Z"/><path class="cls-53" d="M517.93,885.92l6,1.89h0a2.9,2.9,0,1,1-1.74,5.53h0l-6.06-1.91a2.9,2.9,0,0,1,1.74-5.53Z"/><path class="cls-53" d="M538,891.89l6.08,1.61h0a2.92,2.92,0,0,1-1.49,5.64h0l-6.14-1.64a2.91,2.91,0,0,1,1.5-5.62Z"/><path class="cls-53" d="M558.32,897l6.14,1.34h0a2.93,2.93,0,0,1-1.25,5.72h0L557,902.66a2.92,2.92,0,1,1,1.26-5.71Z"/><path class="cls-53" d="M578.85,901.14l6.2,1.08h0a2.94,2.94,0,0,1-1,5.8h0l-6.27-1.11a2.94,2.94,0,1,1,1-5.79Z"/><path class="cls-53" d="M599.55,904.44l6.24.83h0a3,3,0,0,1-.78,5.87h0l-6.32-.85a3,3,0,0,1,.78-5.85Z"/><path class="cls-53" d="M620.37,906.88l6.26.57h0a3,3,0,0,1-.53,5.92h0l-6.34-.58a3,3,0,0,1,.54-5.91Z"/><path class="cls-53" d="M641.28,908.46l6.28.3h0a3,3,0,1,1-.29,6h0l-6.35-.32a3,3,0,1,1,.29-5.95Z"/><path class="cls-53" d="M662.22,909.17l6.28.06h0a3,3,0,1,1-.06,6h0l-6.35-.07a3,3,0,1,1,.06-6Z"/><path class="cls-53" d="M683.17,909.09l6.29-.18h0a3,3,0,1,1,.17,6h0l-6.35.17a3,3,0,1,1-.16-6Z"/><path class="cls-53" d="M704.12,908.23l6.28-.41h0a3,3,0,1,1,.39,6h0l-6.35.4a3,3,0,0,1-.38-6Z"/><path class="cls-53" d="M725,906.62l6.26-.62h0a3,3,0,0,1,.6,6h0l-6.33.62a3,3,0,0,1-.59-6Z"/><path class="cls-53" d="M745.87,904.3l6.24-.83h0a3.06,3.06,0,0,1,.8,6.06h0l-6.3.83a3.05,3.05,0,1,1-.79-6.05Z"/><path class="cls-53" d="M766.63,901.29l6.21-1h0a3.07,3.07,0,1,1,1,6h0l-6.27,1a3.06,3.06,0,1,1-1-6Z"/><path class="cls-53" d="M787.29,897.64l6.17-1.22h0a3.08,3.08,0,0,1,1.2,6.05h0l-6.23,1.22a3.08,3.08,0,0,1-1.18-6Z"/><path class="cls-53" d="M807.83,893.36,814,892h0a3.1,3.1,0,0,1,1.37,6h0l-6.18,1.4a3.09,3.09,0,0,1-1.37-6Z"/><path class="cls-53" d="M828.24,888.49l6.09-1.57h0a3.11,3.11,0,0,1,1.56,6h0l-6.14,1.57a3.1,3.1,0,1,1-1.54-6Z"/><path class="cls-53" d="M848.5,883.06l6-1.73h0a3.13,3.13,0,0,1,1.72,6h0l-6.1,1.74a3.12,3.12,0,0,1-1.71-6Z"/><path class="cls-53" d="M868.63,877.1l6-1.89h0a3.13,3.13,0,0,1,1.88,6h0l-6.06,1.9a3.13,3.13,0,0,1-1.87-6Z"/><path class="cls-53" d="M888.62,870.63l6-2h0a3.15,3.15,0,1,1,2,6h0l-6,2a3.15,3.15,0,1,1-2-6Z"/><path class="cls-53" d="M908.45,863.69l5.92-2.17h0a3.16,3.16,0,0,1,2.18,5.94h0l-6,2.18a3.16,3.16,0,0,1-2.17-5.93Z"/><path class="cls-53" d="M928.11,856.29,934,854h0a3.18,3.18,0,0,1,2.33,5.92h0l-5.91,2.31a3.17,3.17,0,1,1-2.31-5.91Z"/><path class="cls-53" d="M947.62,848.47l5.82-2.43h0a3.19,3.19,0,0,1,2.46,5.89h0l-5.86,2.43a3.18,3.18,0,0,1-2.44-5.88Z"/><path class="cls-53" d="M967,840.25l5.77-2.54h0a3.21,3.21,0,0,1,2.58,5.87h0l-5.8,2.55a3.2,3.2,0,0,1-2.57-5.87Z"/><path class="cls-53" d="M986.15,831.67l5.73-2.64h0a3.22,3.22,0,0,1,2.69,5.85h0l-5.76,2.64a3.22,3.22,0,1,1-2.68-5.85Z"/><path class="cls-53" d="M1005.21,822.79l5.7-2.72h0a3.23,3.23,0,1,1,2.78,5.83h0l-5.72,2.71a3.23,3.23,0,0,1-2.77-5.83Z"/><path class="cls-53" d="M1024.17,813.66l5.67-2.78a3.24,3.24,0,1,1,2.87,5.82h0l-5.69,2.78a3.24,3.24,0,1,1-2.84-5.83Z"/><path class="cls-53" d="M1043.05,804.33l5.65-2.83a3.26,3.26,0,1,1,2.93,5.83h0l-5.67,2.83a3.26,3.26,0,1,1-2.9-5.83Z"/><path class="cls-53" d="M1061.86,794.87l5.64-2.86a3.27,3.27,0,1,1,3,5.83h0l-5.66,2.85a3.27,3.27,0,1,1-3-5.83Z"/><path class="cls-53" d="M1080.64,785.32l5.64-2.88a3.29,3.29,0,1,1,3,5.86h0l-5.64,2.87a3.28,3.28,0,0,1-3-5.85Z"/><path class="cls-53" d="M1099.42,775.73l5.64-2.88a3.3,3.3,0,0,1,3,5.88h0l-5.64,2.87a3.3,3.3,0,0,1-3-5.88Z"/><path class="cls-53" d="M1118.22,766.16l5.65-2.87a3.32,3.32,0,0,1,3,5.92h0l-5.65,2.85a3.31,3.31,0,1,1-3-5.91Z"/><path class="cls-53" d="M1137.05,756.66l5.67-2.83a3.33,3.33,0,1,1,3,5.95h0l-5.66,2.82a3.33,3.33,0,0,1-3-6Z"/><path class="cls-53" d="M1156,747.28l5.7-2.78a3.34,3.34,0,1,1,2.93,6h0l-5.68,2.77a3.34,3.34,0,0,1-2.94-6Z"/><path class="cls-53" d="M1175,738.1l5.73-2.7a3.31,3.31,0,1,1,2.83,6h0l-5.7,2.72h0a3.32,3.32,0,0,1-2.85-6Z"/><path class="cls-53" d="M1194.13,729.17l5.77-2.63a3.28,3.28,0,0,1,2.72,6h0l-5.73,2.63h0a3.29,3.29,0,1,1-2.75-6Z"/><path class="cls-53" d="M1213.41,720.53l5.81-2.53a3.25,3.25,0,0,1,2.59,6h0l-5.77,2.53h0a3.26,3.26,0,1,1-2.62-6Z"/><path class="cls-53" d="M1232.84,712.22l5.86-2.41a3.22,3.22,0,0,1,2.45,6h0l-5.81,2.41h0a3.23,3.23,0,1,1-2.48-6Z"/><path class="cls-53" d="M1252.45,704.32l5.92-2.28a3.19,3.19,0,1,1,2.29,6h0l-5.87,2.29h0a3.19,3.19,0,1,1-2.32-5.95Z"/><path class="cls-53" d="M1272.25,696.88l6-2.12a3.16,3.16,0,0,1,2.11,6h0l-5.92,2.12h0a3.16,3.16,0,1,1-2.13-6Z"/><path class="cls-53" d="M1292.28,690l6-1.94a3.13,3.13,0,0,1,1.92,5.95h0l-6,2h0a3.14,3.14,0,1,1-1.93-6Z"/><path class="cls-53" d="M1312.5,683.75l6.11-1.75a3.09,3.09,0,1,1,1.7,6h0l-6,1.76h0a3.1,3.1,0,0,1-1.73-6Z"/><path class="cls-53" d="M1332.92,678.14l6.16-1.55a3.07,3.07,0,0,1,1.5,5.95h0l-6.09,1.55h0a3.08,3.08,0,1,1-1.52-6Z"/><path class="cls-53" d="M1353.52,673.23l6.22-1.33a3,3,0,1,1,1.27,5.93h0l-6.14,1.33h0a3,3,0,1,1-1.29-5.95Z"/><path class="cls-53" d="M1374.3,669.06l6.26-1.09a3,3,0,1,1,1,5.91h0l-6.19,1.1h0a3,3,0,0,1-1-5.94Z"/><path class="cls-53" d="M1395.22,665.7l6.31-.84a3,3,0,1,1,.78,5.89h0l-6.23.85h0a3,3,0,0,1-.81-5.91Z"/><path class="cls-53" d="M1416.28,663.2l6.33-.57a2.94,2.94,0,1,1,.53,5.86h0l-6.26.59h0a3,3,0,1,1-.54-5.88Z"/><path class="cls-53" d="M1437.43,661.63l6.35-.27a2.91,2.91,0,1,1,.26,5.81h0l-6.28.3h0a2.92,2.92,0,1,1-.27-5.83Z"/><path class="cls-53" d="M1458.63,661.07l6.37,0a2.88,2.88,0,0,1,0,5.76h0l-6.28,0h0a2.89,2.89,0,0,1,0-5.77Z"/><path class="cls-53" d="M1479.85,661.57l6.36.37a2.85,2.85,0,1,1-.33,5.69h0l-6.27-.34h0a2.85,2.85,0,1,1,.31-5.7Z"/><path class="cls-53" d="M1501,663.21l6.33.72a2.82,2.82,0,0,1-.64,5.61h0l-6.24-.7h0a2.83,2.83,0,1,1,.62-5.62Z"/><path class="cls-53" d="M1522.07,666.06l6.28,1.1a2.79,2.79,0,0,1-1,5.49h0l-6.18-1.07h-.05a2.8,2.8,0,0,1,1-5.51Z"/><path class="cls-53" d="M1542.91,670.18l6.2,1.49a2.76,2.76,0,0,1-1.29,5.36h0l-6.1-1.44-.05,0a2.77,2.77,0,0,1,1.28-5.38Z"/><path class="cls-53" d="M1563.45,675.62l6.09,1.89a2.73,2.73,0,1,1-1.62,5.21h0l-6-1.85h-.05a2.74,2.74,0,1,1,1.61-5.23Z"/><path class="cls-53" d="M1583.6,682.41l6,2.3a2.7,2.7,0,1,1-2,5l0,0-5.85-2.24-.06,0a2.7,2.7,0,0,1,1.94-5.05Z"/><path class="cls-53" d="M1603.23,690.61l5.76,2.77a2.66,2.66,0,1,1-2.31,4.8l0,0-5.65-2.69-.06,0a2.67,2.67,0,0,1,2.3-4.83Z"/><path class="cls-53" d="M1622.14,700.42l5.5,3.28a2.63,2.63,0,1,1-2.7,4.52l-.06,0L1619.5,705l-.06,0a2.65,2.65,0,1,1,2.7-4.55Z"/><path class="cls-53" d="M1640.07,712l5.14,3.83a2.6,2.6,0,1,1-3.11,4.17l-.06,0-5-3.72-.07-.05a2.61,2.61,0,1,1,3.11-4.2Z"/><path class="cls-53" d="M1656.68,725.43l4.65,4.43a2.57,2.57,0,0,1-3.54,3.73l-.07-.07-4.52-4.27-.08-.07a2.58,2.58,0,0,1,3.55-3.75Z"/><path class="cls-53" d="M1671.46,740.93l4,5.05a2.49,2.49,0,0,1-3.9,3.1l-.07-.08-3.89-4.85-.07-.08a2.52,2.52,0,0,1,3.92-3.16Z"/><path class="cls-53" d="M1683.81,758.46l3.14,5.62a2.4,2.4,0,0,1-4.18,2.36l-.06-.1-3.07-5.39-.06-.11a2.43,2.43,0,1,1,4.22-2.4Z"/><path class="cls-53" d="M1693.11,777.83l2,6.14a2.31,2.31,0,0,1-4.38,1.47l0-.14-2-5.85,0-.14a2.33,2.33,0,0,1,4.42-1.5Z"/><path class="cls-53" d="M1698.39,798.68l.77,6.4a2.22,2.22,0,0,1-4.41.55l0-.13-.78-6.14,0-.13a2.25,2.25,0,1,1,4.46-.57Z"/><path class="cls-53" d="M1699.48,820.12l-.48,6.43a2.14,2.14,0,0,1-4.26-.3v-.13l.42-6.18v-.13a2.16,2.16,0,0,1,4.32.29Z"/><path class="cls-53" d="M1696.39,841.36l-1.77,6.21a2,2,0,0,1-3.94-1.1l0-.13,1.64-6,0-.12a2.07,2.07,0,1,1,4,1.1Z"/><path class="cls-53" d="M1688.92,861.51l-3.13,5.66a2,2,0,0,1-3.43-1.87l.07-.13,2.94-5.43.07-.13a2,2,0,0,1,3.49,1.89Z"/><path class="cls-53" d="M1676.86,879.34l-4.51,4.66a1.87,1.87,0,0,1-2.69-2.59l.11-.11,4.25-4.47.11-.11a1.89,1.89,0,1,1,2.74,2.61Z"/><path class="cls-53" d="M1660.39,893.23l-1.6,1a1.8,1.8,0,0,1-1.87-3.07l0,0,1.52-.94,0,0a1.8,1.8,0,1,1,1.89,3.07Z"/><polygon class="cls-22" points="496 163.65 497.04 193.1 516.54 179.74 496 163.65"/><path class="cls-33" d="M627.86,142.07l-77.09,72.58a7.45,7.45,0,0,1-10.73-.53L470.09,134a3,3,0,0,1,2.5-4.95Z"/><polygon class="cls-22" points="496.01 163.65 627.86 142.07 507.26 176.62 507.2 184.8 496.01 163.65"/><polygon class="cls-22" points="513.99 184.26 497.04 193.1 507.26 176.62 513.99 184.26"/><path class="cls-56" d="M336.05,671.4c20.64,13.76,39.57,44.72,1.72,94.6-33.94,44.74-68.8,74-63.64,101.48s-35.07,96.9-117,51.6c-80.84-44.72-65.36-130.72,32.68-163.4C247.24,736.55,260.49,621,336.05,671.4Z"/><path class="cls-57" d="M401.72,843.37s-32,38.36-64.27,7.21L325,879.48s47.09,36.46,82.81-20.91Z"/><path class="cls-58" d="M322.62,772.17c-8.89-2.66-34.77-7.59-59.39,15.14a15.24,15.24,0,0,0-4.4,15.19c6.62,24.35,24.06,96.28,8.76,127.4,0,0,27,29.72,56.38,5.77,0,0,13.19-57.52,30.48-82.77,11.93-17.43-19-65.46-26.86-77.06A9.2,9.2,0,0,0,322.62,772.17Z"/><path class="cls-59" d="M308.85,725.76S290.91,760.89,287.77,777a28.1,28.1,0,0,0,28.57-.78s6.33-36.63,9.26-43Z"/><path class="cls-60" d="M349.07,706s3.34,59-21.51,59.88-27.25-41.16-27.25-41.16,7.33-26.53,19.16-29.62S349.07,706,349.07,706Z"/><path class="cls-61" d="M341.76,687.73s11.35,11.61,9.4,18.83-26.3-.33-32.3-3.74l-20.11,21.41s.61-31.72,14.49-41.48S341.76,687.73,341.76,687.73Z"/><path class="cls-62" d="M307.83,725.25s-3-20.26-12.93-14.56.73,21.39,8.47,20.41Z"/><path class="cls-63" d="M358.3,1056.43c-.1,2.61,4.49,23.32,7,34.37a18.13,18.13,0,0,1-2,13l-86.4,145.43a19.52,19.52,0,0,0-2.27,5.65c-1.58,6.83-4.87,23.55-3.15,38.77L276,1303l-19.34-4.39-4.2-51.91,5.47-3.34A26,26,0,0,0,268.42,1231c7.81-19,27.21-67.29,32.22-90.84,5.68-26.75,35.39-48.49,35.39-48.49l-5.22-12.34Z"/><path class="cls-64" d="M235.15,1280.73s10.44-16.55,11.67-23,4.65-17.81,11.08-14.39c0,0,3,31.3,2,43.53s13.82,11.83,13.82,11.83a13.91,13.91,0,0,1,7.1,3.58,3.48,3.48,0,0,1-2.33,5.85,83.26,83.26,0,0,1-20.71-1.17,6.33,6.33,0,0,1-5.11-5.85l-2.15-36-13.16,16.63Z"/><path class="cls-65" d="M306.69,1079.59s-3.05,130.08-3.46,148.56,2.91,59.42,21.43,71.66l-8.05,6s-10.08-8.56-19.92-25c-11.05-18.51-14.39-21.89-14.39-21.89l3.67-7.51a16.57,16.57,0,0,0,1.33-10.6c-4-19.37-17.34-83.8-21-97.67-4.3-16.38-4.6-38.25,10.36-56.56S306.69,1079.59,306.69,1079.59Z"/><path class="cls-66" d="M289.58,1311.63a1.13,1.13,0,0,1-1.14-1c-.62-4.34-3.18-21.72-5.28-26.23-2.41-5.15-10.26-26.85,0-28.69,0,0,25.52,37.28,30.42,42.31s11.08,1.76,11.08,1.76a18.45,18.45,0,0,1,8.38,6,3.39,3.39,0,0,1-2.67,5.43l-17.19.16a12.08,12.08,0,0,1-11.33-7.62c-3-7.56-8.23-18.64-14.29-23.56l3.15,30.14a1.14,1.14,0,0,1-1.13,1.26Z"/><path class="cls-67" d="M328,921.64s-3.88,12.35,2.07,32.68L367,1083.24a4,4,0,0,1-2.5,4.86c-11,4-47.34,15.16-96.89,11.75a5.63,5.63,0,0,1-5.13-4.38c-3.27-14.7-14.41-64.84-16.7-75.15-8.74-39.26-17.2-76.59,25.73-102.19C291.32,926.6,308.48,926.59,328,921.64Z"/><path class="cls-68" d="M283.51,804.91s-7.44,106.2,61.18,52.86c0,0,10.13-9.58,17.45-10.74,3.94-.63,8.38-1,11.64-1.3a1.47,1.47,0,0,1,1,2.67c-2.36,1.65-5.45,3.44-8.13,3.71-5.17.54.35,4.33-5.29,14.25s-13.69,6.17-13.69,6.17S269,953,253.33,812.62C252.77,786.5,277.91,787.89,283.51,804.91Z"/><path class="cls-69" d="M422.78,817l-23.34-3.08c-2.79-.46-5.66,1.17-7.38,4.19L376.71,852c-2.89,5.07-.84,11.8,3.84,12.57l18.74,2.4c1.8.3,3.64-.83,4.65-2.85l20.77-41.45C425.91,820.31,424.9,817.33,422.78,817Z"/><path class="cls-70" d="M406.85,862.76s15.7-22.84,13.87-25.66-15.58-6.84-18.81-7.79S392.6,849.07,406.85,862.76Z"/><path class="cls-33" d="M167.69,901.28a.86.86,0,0,0,.32-1.66,57.06,57.06,0,0,1-28.68-80.94c11.17-19.9,32.56-31,53.26-41.77l2.49-1.3c22.37-11.65,44.17-25.53,52.18-48a.86.86,0,1,0-1.62-.58c-7.81,21.9-29.3,35.55-51.36,47l-2.49,1.3c-20.91,10.87-42.54,22.11-54,42.46a58.78,58.78,0,0,0,29.55,83.38A.85.85,0,0,0,167.69,901.28Z"/><path class="cls-33" d="M190.8,893.35a.86.86,0,0,0,.83-.65.85.85,0,0,0-.62-1c-17.4-4.4-31.94-15.29-38.88-29.12-7.82-15.58-5.34-35,5.9-46.18a.85.85,0,0,0,0-1.21.87.87,0,0,0-1.22,0c-11.75,11.68-14.37,31.94-6.22,48.18,7.16,14.26,22.11,25.48,40,30Z"/><path class="cls-33" d="M1610.8,10.78,1494.25,4.72a15.83,15.83,0,0,0-16.85,16.51l3,107.19a15.73,15.73,0,0,0,16.82,15L1607.91,138c7.51-.37,13.7-7,13.92-14.9l2.7-96C1624.77,18.49,1618.67,11.19,1610.8,10.78Z"/><path class="cls-71" d="M1549,117.59a43.9,43.9,0,1,1,43.9-43.9A43.95,43.95,0,0,1,1549,117.59Zm0-80.45a36.55,36.55,0,1,0,36.55,36.55A36.59,36.59,0,0,0,1549,37.14Z"/><path class="cls-72" d="M1535.26,90.6V59a4.35,4.35,0,0,1,6.57-3.74l26.59,15.78a4.36,4.36,0,0,1,0,7.49l-26.59,15.78A4.35,4.35,0,0,1,1535.26,90.6Z"/><path class="cls-33" d="M278.65,157,162.1,151a15.83,15.83,0,0,0-16.85,16.52l3,107.19c.25,8.76,7.83,15.45,16.82,15l110.68-5.46c7.51-.37,13.7-7,13.92-14.91l2.7-96C292.62,164.73,286.52,157.43,278.65,157Z"/><path class="cls-73" d="M257.66,254.71H195.49a5.28,5.28,0,0,1-5.05-3.77l-17.57-59.29-17.73-2.31a5.27,5.27,0,1,1,1.36-10.45l21.13,2.75a5.29,5.29,0,0,1,4.37,3.73l17.43,58.8h53.86l8-42.09a5.27,5.27,0,0,1,10.35,2l-8.77,46.38A5.27,5.27,0,0,1,257.66,254.71Z"/><path class="cls-74" d="M264,206.24H181.76a5.27,5.27,0,1,1,0-10.54H264a5.27,5.27,0,1,1,0,10.54Z"/><path class="cls-75" d="M210.21,249.44a5.27,5.27,0,0,1-5.27-5.27V202a5.27,5.27,0,1,1,10.54,0v42.15A5.27,5.27,0,0,1,210.21,249.44Z"/><path class="cls-76" d="M239.72,249.44a5.27,5.27,0,0,1-5.27-5.27V202A5.27,5.27,0,1,1,245,202v42.15A5.26,5.26,0,0,1,239.72,249.44Z"/><path class="cls-77" d="M259.74,229.42H188.08a5.27,5.27,0,0,1,0-10.54h71.66a5.27,5.27,0,0,1,0,10.54Z"/><path class="cls-78" d="M212.93,267.16a7.35,7.35,0,1,1-7.35-7.35A7.35,7.35,0,0,1,212.93,267.16Z"/><circle class="cls-79" cx="250.37" cy="267.16" r="7.35" transform="translate(-30.77 32.59) rotate(-7.02)"/><path class="cls-22" d="M1797.85,438,1681.29,432a15.83,15.83,0,0,0-16.84,16.52l3,107.19c.25,8.76,7.82,15.45,16.82,15L1795,565.21c7.5-.37,13.7-7,13.92-14.91l2.7-96C1811.82,445.73,1805.71,438.43,1797.85,438Z"/><path class="cls-80" d="M1779.17,541.32H1697.1a12.73,12.73,0,0,1-12.71-12.71V469.74A12.73,12.73,0,0,1,1697.1,457h82.07a12.73,12.73,0,0,1,12.71,12.71v58.87A12.73,12.73,0,0,1,1779.17,541.32Zm-82.07-73.76a2.18,2.18,0,0,0-2.17,2.18v58.87a2.18,2.18,0,0,0,2.17,2.18h82.07a2.18,2.18,0,0,0,2.17-2.18V469.74a2.18,2.18,0,0,0-2.17-2.18Z"/><path class="cls-81" d="M1737.36,504.88a5.36,5.36,0,0,1-3-1l-45.76-32.45a5.27,5.27,0,0,1,6.1-8.6l42.71,30.29,42.14-29.93a5.27,5.27,0,1,1,6.1,8.59l-45.19,32.09A5.25,5.25,0,0,1,1737.36,504.88Z"/><path class="cls-82" d="M1692.47,541.93l-1.64-10.4.77,5.21-4.43-2.84c.94-1.53,17.38-30.29,28.21-49.25a5.27,5.27,0,0,1,9.15,5.22s-7.06,12.37-14.14,24.74c-3.53,6.19-7.07,12.37-9.74,17C1695,541.52,1695,541.52,1692.47,541.93Z"/><path class="cls-83" d="M1782,541.94c-2.52-.41-2.52-.41-8.21-10.32l-9.74-17-14.13-24.74a5.27,5.27,0,0,1,9.15-5.22c10.82,19,27.27,47.73,28.2,49.25l-4.43,2.84Z"/><path class="cls-22" d="M147.24,580.16,30.68,574.09a15.84,15.84,0,0,0-16.84,16.52l3,107.19c.25,8.76,7.83,15.45,16.82,15l110.68-5.47c7.5-.37,13.7-7,13.92-14.91l2.7-96C161.21,587.87,155.1,580.56,147.24,580.16Z"/><path class="cls-84" d="M95.74,600.24a3,3,0,0,0-4,2.82v53.48a25.27,25.27,0,0,0-16-5.41c-12.33,0-22.32,8-22.32,17.85s10,17.85,22.32,17.85,22.31-8,22.31-17.85c0-.09,0-.17,0-.26h0V615.56c8.84,1.33,14.84,8.05,18.36,13.53a2.65,2.65,0,0,0,4.87-1.59C120.45,610.93,103.6,603,95.74,600.24Z"/><path class="cls-22" d="M2013.81,711.71l-116.55-6.07a15.84,15.84,0,0,0-16.85,16.52l3,107.19c.24,8.76,7.82,15.45,16.82,15l110.67-5.47c7.51-.37,13.7-7,13.92-14.9l2.7-96C2027.78,719.42,2021.68,712.12,2013.81,711.71Z"/><path class="cls-85" d="M1927.89,820.74a13.45,13.45,0,1,1,13.44-13.44A13.46,13.46,0,0,1,1927.89,820.74Zm0-21.55a8.11,8.11,0,1,0,8.11,8.11A8.12,8.12,0,0,0,1927.89,799.19Z"/><path class="cls-86" d="M1927.89,778.62a28.71,28.71,0,0,1,28.68,28.68,27.73,27.73,0,0,1-.15,2.9,2,2,0,0,0,2.22,2.17l4.17-.63a2,2,0,0,0,1.67-1.81c.06-.87.1-1.75.1-2.63a36.73,36.73,0,0,0-36.69-36.69,35.5,35.5,0,0,0-4.52.29,2,2,0,0,0-1.7,2.27l.69,4.06a1.94,1.94,0,0,0,2.15,1.6A27,27,0,0,1,1927.89,778.62Z"/><path class="cls-87" d="M1927.89,757.94a49.41,49.41,0,0,1,49.36,49.36v0a1.94,1.94,0,0,0,2.21,1.94l4.1-.61,1.69-2a57.43,57.43,0,0,0-57.36-56.75,56.71,56.71,0,0,0-8.08.58,1.94,1.94,0,0,0-1.61,2.25l.69,4.05a1.94,1.94,0,0,0,2.16,1.61A48.31,48.31,0,0,1,1927.89,757.94Z"/><path class="cls-88" d="M1927.89,737.26a70.12,70.12,0,0,1,70,67,2,2,0,0,0,2.23,1.88l4.06-.61a2,2,0,0,0,1.68-2,77.94,77.94,0,0,0-89.47-73.43,2,2,0,0,0-1.62,2.27l.69,4a2,2,0,0,0,2.23,1.59A69.14,69.14,0,0,1,1927.89,737.26Z"/><path class="cls-33" d="M1962.26,244.84l-95.14-5a12.92,12.92,0,0,0-13.75,13.48l2.46,87.49a12.84,12.84,0,0,0,13.73,12.25l90.34-4.46c6.12-.3,11.18-5.73,11.36-12.17l2.2-78.37C1973.66,251.13,1968.68,245.17,1962.26,244.84Z"/><path class="cls-89" d="M1949.79,254.71h-67.26c-6.23,0-14.78,4.64-14.78,11.06v37.41c0,6.17,8.62,10.54,14.78,10.54h46.27c1.59,0,2.17,3.69,2.17,5.28v5.53c0,2.27,2.41,3.12,3.53,3.49a4.79,4.79,0,0,0,2.65.94,3.32,3.32,0,0,0,2.48-1.1l9.93-11.75c6.28-.13,8.81-6.76,8.81-12.93V265.77C1958.37,259.65,1955.91,254.71,1949.79,254.71Zm2.25,48.47c0,2.89.09,6.32-2.25,6.32h-2.51l-12.1,11.66V313c0-1.59,1.18-3.53-.41-3.53h-52.24c-2.86,0-8.46-3.45-8.46-6.32V267.31c0-4.17,5.57-4.17,8.46-4.17h67.26c2.85,0,2.25-.21,2.25,2.63Z"/><path class="cls-53" d="M1945.72,273.67a2.1,2.1,0,0,1-2.11,2.11H1882.5a2.1,2.1,0,0,1-2.11-2.11h0a2.1,2.1,0,0,1,2.11-2.1h61.11a2.1,2.1,0,0,1,2.11,2.1Z"/><path class="cls-53" d="M1945.72,284.21a2.1,2.1,0,0,1-2.11,2.11H1882.5a2.1,2.1,0,0,1-2.11-2.11h0a2.11,2.11,0,0,1,2.11-2.11h61.11a2.11,2.11,0,0,1,2.11,2.11Z"/><path class="cls-53" d="M1945.72,299a2.1,2.1,0,0,1-2.11,2.11H1882.5a2.1,2.1,0,0,1-2.11-2.11h0a2.1,2.1,0,0,1,2.11-2.1h61.11a2.1,2.1,0,0,1,2.11,2.1Z"/><path class="cls-53" d="M1690.13,271.24l-51.49-2.68a7,7,0,0,0-7.45,7.3l1.34,47.35a6.93,6.93,0,0,0,7.43,6.63l48.89-2.41a6.74,6.74,0,0,0,6.15-6.59l1.19-42.41C1696.3,274.65,1693.6,271.42,1690.13,271.24Z"/><path class="cls-53" d="M1773.35,187.18l-35.82-1.86a4.86,4.86,0,0,0-5.18,5.07l.93,32.94a4.82,4.82,0,0,0,5.17,4.61l34-1.68a4.68,4.68,0,0,0,4.28-4.58l.82-29.5A4.7,4.7,0,0,0,1773.35,187.18Z"/><path class="cls-53" d="M1911.1,580.55l-42-2.19a5.71,5.71,0,0,0-6.07,6L1864.1,623a5.67,5.67,0,0,0,6.07,5.41l39.89-2a5.49,5.49,0,0,0,5-5.37l1-34.61A5.52,5.52,0,0,0,1911.1,580.55Z"/><path class="cls-53" d="M2036.44,657.39l-20.79-1.08a2.82,2.82,0,0,0-3,3l.53,19.12a2.81,2.81,0,0,0,3,2.67l19.75-1a2.72,2.72,0,0,0,2.48-2.66l.48-17.13A2.75,2.75,0,0,0,2036.44,657.39Z"/><path class="cls-53" d="M48.09,378.23,6.07,376A5.72,5.72,0,0,0,0,382l1.09,38.63A5.67,5.67,0,0,0,7.15,426l39.9-2a5.48,5.48,0,0,0,5-5.37l1-34.61A5.53,5.53,0,0,0,48.09,378.23Z"/><path class="cls-53" d="M173.43,455.07,152.64,454a2.83,2.83,0,0,0-3,2.95l.54,19.12a2.8,2.8,0,0,0,3,2.67l19.74-1a2.72,2.72,0,0,0,2.49-2.66l.48-17.13A2.75,2.75,0,0,0,173.43,455.07Z"/><path class="cls-53" d="M401.45,97.76l-32.24-1.67a4.37,4.37,0,0,0-4.66,4.57l.83,29.65a4.36,4.36,0,0,0,4.65,4.15L400.65,133a4.2,4.2,0,0,0,3.85-4.13l.75-26.56A4.24,4.24,0,0,0,401.45,97.76Z"/><path class="cls-90" d="M803,1215.86a4.39,4.39,0,0,1-1.73-.35L783,1208a4.49,4.49,0,0,1-2.78-4.43l.86-14.7a74.74,74.74,0,0,1-14.71-14.64l-14.69.92a4.46,4.46,0,0,1-4.44-2.77l-7.59-18.21a4.52,4.52,0,0,1,1.17-5.11l11-9.77a74.79,74.79,0,0,1,0-20.76l-11-9.74a4.5,4.5,0,0,1-1.18-5.1l7.51-18.24a4.42,4.42,0,0,1,4.43-2.78l14.7.86a75,75,0,0,1,14.64-14.71l-.92-14.68a4.51,4.51,0,0,1,2.78-4.45l18.2-7.59a4.5,4.5,0,0,1,5.1,1.17l9.78,11a74.41,74.41,0,0,1,20.76,0l9.74-11a4.52,4.52,0,0,1,5.1-1.18l18.24,7.51a4.5,4.5,0,0,1,2.78,4.44l-.86,14.69a74.52,74.52,0,0,1,14.71,14.65l14.68-.93a4.52,4.52,0,0,1,4.45,2.77l7.59,18.21a4.53,4.53,0,0,1-1.17,5.11l-11,9.77a74.8,74.8,0,0,1,0,20.76l11,9.74a4.52,4.52,0,0,1,1.19,5.1l-7.52,18.24a4.43,4.43,0,0,1-4.44,2.78l-14.69-.86a74.74,74.74,0,0,1-14.64,14.71l.92,14.69a4.51,4.51,0,0,1-2.77,4.44l-18.21,7.59a4.52,4.52,0,0,1-5.11-1.17l-9.77-11a74.41,74.41,0,0,1-20.76,0l-9.74,11A4.5,4.5,0,0,1,803,1215.86Zm.68-6.19h0Zm45.65-.09h0Zm-62.69-6.93,15.86,6.53,11.17-12.68,1.73.28a68.22,68.22,0,0,0,22.18,0l1.72-.29,11.22,12.62,15.83-6.59-1.06-16.85,1.41-1a68.47,68.47,0,0,0,15.65-15.72l1-1.42,16.87,1,6.53-15.85-12.68-11.18.28-1.72a68.28,68.28,0,0,0,0-22.19l-.29-1.72,12.62-11.22L900,1088.76l-16.85,1.06-1-1.41a68.32,68.32,0,0,0-15.73-15.65l-1.41-1,1-16.87-15.85-6.53L839,1061l-1.73-.28a68.21,68.21,0,0,0-22.18,0l-1.72.29-11.22-12.62L786.31,1055l1.06,16.85-1.41,1a68.56,68.56,0,0,0-15.66,15.73l-1,1.42-16.87-1-6.53,15.86,12.67,11.17-.28,1.73a68.49,68.49,0,0,0,0,22.18l.29,1.72L746,1152.93l6.59,15.83,16.85-1.06,1,1.42a68.47,68.47,0,0,0,15.72,15.65l1.42,1Zm79.79,1.13h0Zm35.09-35.24h0Zm-116.35-113h0Zm18.2-7.58Zm-1.21-2.92h0Zm24.63,134.69a50.77,50.77,0,0,1-50.3-58.07,3.16,3.16,0,1,1,6.26.92,44.43,44.43,0,1,0,26.89-34.63,44.87,44.87,0,0,0-8.31,4.54,3.16,3.16,0,0,1-3.6-5.19,50.29,50.29,0,0,1,9.48-5.18,50.76,50.76,0,1,1,19.58,97.61Z"/><path class="cls-91" d="M826.27,1149.44a20.68,20.68,0,0,1-3-41.13h0a20.67,20.67,0,0,1,6.08,40.9A20.05,20.05,0,0,1,826.27,1149.44Zm-2.07-34.88a14.36,14.36,0,1,0,10.66,2.67,14.38,14.38,0,0,0-10.66-2.67Z"/><path class="cls-92" d="M959.06,1247.58a3.82,3.82,0,0,1-3.47-2.21l-2.6-5.64a37.38,37.38,0,0,1-8.31-2.51l-5.28,3.27a3.84,3.84,0,0,1-4.41-.29l-7.35-6a3.82,3.82,0,0,1-1.16-4.27l2.15-5.83a37.54,37.54,0,0,1-4.11-7.64l-6-1.43a3.83,3.83,0,0,1-2.92-3.33l-.94-9.44a3.81,3.81,0,0,1,2.2-3.85l5.63-2.59a37.22,37.22,0,0,1,2.51-8.31l-3.27-5.28a3.81,3.81,0,0,1,.3-4.42l6-7.34a3.81,3.81,0,0,1,4.28-1.16l5.82,2.15a37,37,0,0,1,7.64-4.11l1.43-6a3.82,3.82,0,0,1,3.32-2.92l9.44-.94a3.76,3.76,0,0,1,3.85,2.2l2.6,5.63a37.22,37.22,0,0,1,8.31,2.51l5.28-3.27a3.81,3.81,0,0,1,4.41.29l7.35,6a3.81,3.81,0,0,1,1.17,4.26l-2.16,5.84a37,37,0,0,1,4.11,7.64l6,1.43a3.82,3.82,0,0,1,2.92,3.33l.94,9.44a3.81,3.81,0,0,1-2.18,3.84l-5.65,2.6a37,37,0,0,1-2.51,8.3l3.27,5.29a3.82,3.82,0,0,1-.3,4.42l-6,7.34a3.81,3.81,0,0,1-4.26,1.17l-5.84-2.16a37.54,37.54,0,0,1-7.64,4.11l-1.43,6a3.82,3.82,0,0,1-3.34,2.92l-9.43.94ZM944.29,1230l1.57.77a31.2,31.2,0,0,0,9.7,2.93l1.73.23,3.29,7.13,5.88-.59,1.81-7.65,1.65-.56a31.11,31.11,0,0,0,8.93-4.8l1.38-1.06,7.38,2.72,3.74-4.57-4.14-6.69.77-1.57a31.2,31.2,0,0,0,2.93-9.7l.23-1.73,7.14-3.29-.59-5.88-7.65-1.81-.57-1.65a31.11,31.11,0,0,0-4.8-8.93l-1.06-1.38,2.72-7.38-4.57-3.74-6.69,4.13-1.57-.76a30.93,30.93,0,0,0-9.7-2.93l-1.73-.23-3.29-7.14-5.88.59-1.81,7.65-1.65.56a31.47,31.47,0,0,0-8.93,4.8l-1.38,1.07-7.38-2.72-3.74,4.57,4.13,6.69-.76,1.56a31.34,31.34,0,0,0-2.93,9.71l-.23,1.73-7.13,3.29.59,5.87,7.64,1.81.57,1.65a31,31,0,0,0,4.8,8.94l1.06,1.38-2.72,7.38,4.57,3.74Zm24,10.3h0Zm18.24-9.8,0,0Zm6-7.34h0Zm-73-19h0Zm7.42-22.35h0Zm.18-2.91v0Zm60.65-3.18h0Zm-57.65-.47h0Zm53.22-5.34h0ZM958,1162.28Zm2.21-1.7h0Zm-.46,68.11a26.06,26.06,0,0,1-25.88-23.45,26.1,26.1,0,0,1,2.34-13.69,3.16,3.16,0,1,1,5.72,2.7,19.83,19.83,0,0,0-1.77,10.36,19.74,19.74,0,1,0,17.67-21.6,20.37,20.37,0,0,0-4.12.85,3.16,3.16,0,1,1-1.94-6,25.48,25.48,0,0,1,5.42-1.13,26.05,26.05,0,0,1,5.21,51.84A26.26,26.26,0,0,1,959.78,1228.69Z"/></g></g></g></svg>